<?xml version="1.0" standalone="no"?>
<!DOCTYPE svg PUBLIC "-//W3C//DTD SVG 1.1//EN" "http://www.w3.org/Graphics/SVG/1.1/DTD/svg11.dtd" >
<svg xmlns="http://www.w3.org/2000/svg">
<metadata></metadata>
<defs>
<font id="mazebold" horiz-adv-x="1009" >
<font-face units-per-em="2048" ascent="1536" descent="-512" />
<missing-glyph horiz-adv-x="509" />
<glyph horiz-adv-x="0" />
<glyph unicode="&#xd;" horiz-adv-x="509" />
<glyph unicode=" "  horiz-adv-x="509" />
<glyph unicode="&#x09;" horiz-adv-x="509" />
<glyph unicode="&#xa0;" horiz-adv-x="509" />
<glyph unicode="'" horiz-adv-x="516" d="M391 709l23 -23v-4v-29v-2l-174 -174q-2 -2 -4 -2l-3 2l-116 115v2v2v55l-115 115l-2 2v2v231q0 4 4 5h19l-21 22h-2v2v31q0 4 4 4h291v-2h2l117 -117v-2v-231v-2v-2h-2h-2h-19zM406 942l-14 14q-13 15 -30.5 32.5t-36 34.5t-26.5 28v-222q4 -4 19.5 -19t34 -33.5 t33.5 -35t20 -20.5v221zM240 991v-16l22 -21v17zM125 934v-107q0 -4 -4 -4h-84v-20h113h2v-2l22 -21v17l-29 28v2v86zM154 788v-71h20v51zM72 883l14 -17v17h-14zM197 803l-21 20h-16l20 -20h17zM203 926v18q0 4 4 4h29h2l2 -2l22 -20v16l-26 27h-199v-109h45l-23 23v2h-2v2 v57q0 4 4 4h60h2v-2l22 -20v18q0 4 5 4h28h2v-2zM240 934v-74h22v53zM227 803l-22 22h-2v2v86l-21 21v-105l27 -26h18zM35 1006h201h2h2l22 -23v43h-248zM117 664v102h-103zM236 485q2 2 26.5 27t54 53.5t56 55t33.5 32.5l-111 111l-170 -168zM406 682l-14 14 q-13 13 -30.5 30t-36 34.5t-26.5 27.5v-16l107 -108v18zM383 717h18l-108 106h-76l21 -20h57h2v-2z" />
<glyph unicode="," horiz-adv-x="516" d="M391 -55l23 -23v-4v-29v-2l-174 -174q-2 -2 -4 -2l-3 2l-116 115v2v2v55l-115 115l-2 2v2v232q0 4 4 4h19l-21 22h-2v2v31q0 4 4 4h291v-2h2l117 -117v-2v-231v-2v-2h-2h-2h-19zM406 178l-14 14q-13 15 -30.5 32.5t-36 34.5t-26.5 28v-221l19.5 -19.5l34 -34t33.5 -35 t20 -20.5v221zM240 227v-16l22 -21v17zM125 170v-107q0 -4 -4 -4h-84v-20h113h2v-2l22 -21v17l-29 28v2v87zM154 25v-72h20v51zM72 119l14 -17v17h-14zM197 39l-21 20h-16l20 -20h17zM203 162v18q0 4 4 4h29h2l2 -2l22 -20v16l-26 27h-199v-109h45l-23 23v2h-2v2v57q0 4 4 4 h60h2v-2l22 -20v18q0 4 5 4h28h2v-2zM240 170v-74h22v54zM227 39l-22 22h-2v2v87l-21 20v-104l27 -27h18zM35 242h201h2h2l22 -23v43h-248zM117 -100v102h-103zM236 -279q2 2 26.5 27t54 53.5t56 55t33.5 32.5l-111 111l-170 -168zM406 -82l-14 14l-30.5 30.5t-36 34.5 t-26.5 28v-17l107 -108v18zM383 -47h18l-108 106h-76l21 -20h57h2v-2z" />
<glyph unicode="." horiz-adv-x="516" d="M391 86l23 -20v-5v-174v-2h-2v-2h-2h-232q-2 0 -2 2l-22 23v-21v-2h-2q0 -2 -2 -2h-29q-2 0 -4 2l-115 117h-2v2v291q0 4 4 4h291q2 0 2 -2l117 -117v-2v-88v-2h-2v-2h-2h-19zM406 176l-14 14q-13 15 -30.5 32.5t-36 34.5t-26.5 28v-76l19.5 -19.5l34 -34t33.5 -35 t20 -20.5v76zM94 227v-190h45l-22 22v2v29q0 4 4 4h18l-22 23v2v2v84zM160 203l14 -15v15h-14zM129 117l23 -23h16l-21 23h-18zM129 57l23 -20h110v20h-133zM197 94l-21 23q-2 0 -2 2v2v55l-20 21v-76l26 -27h17zM246 117l16 -17v17h-16zM227 94l-22 23h-17l21 -23h18z M43 262l20 -22h27h2h2l23 -23v19q0 4 4 4h141v22h-219zM231 176l-20 21v-76l27 -27h18l-23 23v2h-2v2v55zM139 -109l-20.5 20.5t-33.5 35t-33.5 34t-20.5 19.5h-17q8 -10 26.5 -27.5t36 -35l31.5 -31.5l13 -15h18zM145 -84l-86 86h-2v2v232l-20 20v-250l108 -108v18z M180 -109h221l-108 109h-221zM406 59l-14 15q-13 14 -30.5 31.5t-36 35t-26.5 27.5v-162l107 -108v161zM383 94h18l-108 109h-76l21 -21h57h2v-2z" />
<glyph unicode="0" d="M885 899l22 -20v-5v-987v-2h-2v-2h-2h-725q-2 0 -2 2l-22 23v-21v-2h-2q0 -2 -2 -2h-29q-2 0 -4 2l-115 117h-2v2v1045q0 4 4 4h199h6h-2h581h3l116 -117v-4v-29v-2q-2 0 -2 -2h-2h-18zM793 1038v-16q4 -4 19 -20.5t33.5 -34t34 -33.5t19.5 -21v19zM487 936l-43 45v-16 l27 -29h16zM270 270h107v400l-107 108v-508zM385 270h137v398h-137v-398zM522 676v108h-248l109 -108h139zM618 750v-570l21 -20v567zM37 328h45l-23 22h-2v2v637l-20 21v-682zM174 991v25h-131l20 -21h27h2h2v-2l23 -22v20q0 4 4 4h29h2v-2l22 -22v16v6v-2zM152 37h602v20 h-625zM94 981v-160h45l-22 23v2v24v7v-3v87zM119 879h2h-2zM129 842l23 -21h22v21h-45zM94 354l27 -26h18l-22 22v2v406l-23 20v-424zM168 328l-21 20h-18l23 -20h16zM174 725h-14l14 -14v14zM174 334v364l-20 21v-365zM231 739v19l-26 26h-105l21 -22h86h2h2zM231 815 l-20 21v-48l20 -20v47zM72 348l20 -20h19l-21 20h-18zM205 291h-168v-21h190zM231 274v453l-20 23v-453zM672 821h2v-2l22 -22v20q0 4 4 4h29h2v-2h2l21 -22v45h-537l21 -21h434zM154 139v-45h43l-21 23zM676 807v-653h20v632zM188 117l21 -23h541l-23 23h-539zM754 100v686 l-21 21v-686zM633 154l-21 20h-512l21 -20h29h2v-2l22 -23v21q0 4 4 4h455zM94 37h45l-22 22v2v86l-23 21v-131zM197 879l-21 22h-2v2v58l-20 20v-102h43zM246 899l20 -20h488v20h-508zM227 879l-22 20h-17l21 -20h18zM565 784l21 -22h28h2l23 -23v45h-74zM231 930l-20 22 v-47l27 -26h18l-23 22l-2 2v27zM559 238l21 -21v541l-21 20v-540zM477 958l23 -22h254v22h-277zM459 936l-21 22h-221l21 -22h221zM43 231l20 -20h512l-22 20h-510zM227 995l-16 15v-15h16zM211 1049v2v-2zM139 -109l-20.5 20.5t-33.5 35t-33.5 34t-20.5 19.5h-17 q8 -10 26.5 -27.5t36 -35l31.5 -31.5l13 -15h18zM145 -84l-86 86h-2v2v201l-20 22v-221l108 -108v18zM180 -109h713l-107 109h-714zM899 872q0 2 -8 9.5t-19 19.5q-20 20 -44.5 44t-34.5 36v-975l106 -108v974zM877 907h16l-107 109h-315q-4 0 -6 2q2 -2 4 -2h-252l21 -21 h202h2v-2l23 -22v20q0 4 4 4h319h3v-2z" />
<glyph unicode="1" horiz-adv-x="559" d="M457 -113h-2v-2h-2h-86q-2 0 -2 1t-3 1l-20 23v-21h-2v-2l-2 -2h-88q-2 0 -2 2l-23 23v-21q0 -2 -2 -2l-2 -2h-28q-2 0 -2.5 1t-2.5 1l-114 117h-2v2v752h-54h-4l-114 116h-2v3v2l2 2l174 174h2h262h2l117 -117v-2v-1047v-2zM342 1040v-1032l107 -108v1034zM303 336v16 l-27 27h-104l23 -21h84h2h2zM66 909l-21 23h-53v-23h74zM303 510v43h-100l43 -43v18q0 4 4 4h29h2h2zM279 997h2l2 -2l20 -20v43h-188l20 -21h144zM225 926v-160h21v111q0 4 4 4h18l-20 22zM168 416h43l-23 22v2v2v27l-20 20v-73zM188 496h-16l16 -15v15zM240 416l-21 22 h-16l20 -22h17zM246 498l-21 20v-76l21 -20v76zM211 532l-23 23v2v86l-20 21v-132h43zM225 592h15l-15 14v-14zM299 592l-23 20h-45l21 -20h47zM303 596v18l-20 21v-17zM303 627v16l-27 27h-104l23 -21h84h2q0 -2 2 -2zM303 655v191l-20 20v-190zM303 901h-43l43 -43v43z M303 944v19l-20 20v-16zM168 961v-254h78v20h-53q-4 0 -5 4v205q0 4 5 4h28l2 -2l23 -23v21q0 4 4 4h49l-23 21h-108zM109 995l20 -20v16l-20 21v-17zM225 98h21v168l-21 21v-189zM203 322l43 -46v46h-43zM188 352l-20 21v-334h20v258q0 4 5 4h18l-23 23v2v26zM283 385 l20 -20v133l-20 20v-133zM57 989l21 -20h47l-23 20h-45zM94 909l-20 23q-2 0 -2 2v2v27l-21 20v-47l27 -27h16zM283 66l20 -21v279l-20 20v-278zM129 887v45h-43zM231 59l21 -20h47l-23 20h-45zM72 766v106h-160l106 -106h54zM211 -106q-4 4 -20.5 20t-34 34.5t-34 34 t-20.5 19.5h-16l109 -108h16zM217 -82l-86 86h-2v2v868l-20 23v-889l108 -108v18zM328 -106l-109 108h-76l109 -108h76zM334 -82l-86 86h-2v2v27l-21 22v-47l109 -108v18zM369 -106h73l-106 108h-76z" />
<glyph unicode="2" d="M907 932v-608v-2l-2 -3h-2h-518v-49h403v-2h3l116 -116v-2v-263v-2h-2v-2h-2h-29l-2 2l-22 23v-21v-2h-2v-2h-2h-725q-2 0 -4 2l-115 117h-2v2v258v4v434q0 4 4 5h78l-80 79q-2 0 -2 2v2v203q0 4 4 4h19l-21 23h-2v2v29q0 4 4 4h784h3l116 -117v-4zM899 932l-106 106 v-598l106 -106v598zM893 328l-107 108h-512l109 -108h510zM754 188v48h-74l22 -25h27h2h2zM270 981v-76l27 -26h16l-22 22v2v58zM328 864v-16l26 -27h17l-21 23zM575 94l-22 23h-510l20 -23h512zM37 154h45l-23 22h-2v2v29q0 4 4 4h21l-23 22l-2 3v405l-20 21v-508zM94 270 h45l-22 21v2v2v346l-23 21v-392zM37 901v2v-24h45l-23 22l-2 2v29l-20 20v-45v-6zM231 958h-14l14 -16v16zM342 821l-20 21h-279l20 -21h279zM37 821h14l-14 15v-15zM174 958h-14l14 -16v16zM154 952v-47l26 -26h17l-21 22q-2 0 -2 2v29zM129 899l23 -20h16l-21 20h-18z M117 958h-17l17 -16v16zM94 952v-47l27 -26h18l-22 22v2v29zM72 899l20 -20h19l-21 20h-18zM227 879l-22 20h-17l21 -20h18zM57 958h-14l14 -16v16zM754 473v21h-160l20 -21h140zM487 473l-43 43v-16l27 -27h16zM459 473l-21 21h-164l23 -21h162zM580 174h-508l20 -20h463h2 v-2h2l21 -23v45zM559 121l21 -21v19l-21 20v-18zM256 211l-23 22l-2 3v258h-77v-197l20 -23v195q0 4 4 4h29q4 0 4 -4v-231l27 -27h18zM168 270l-21 21h-18l23 -21h16zM154 633v-103h43l-21 23h-2v2v57zM211 662v-105l20 -20v104zM188 551l21 -21h18l-22 21h-17zM440 647 l2 -2l23 -22v45h-139h-4h2h-107l21 -21h202zM465 551h-160l21 -21h114h2v-2l23 -20v43zM270 530h43l-22 23v2v29l-21 20v-74zM444 614l21 -20v18l-21 21v-19zM274 610l23 -22h141h4h-2h19l-21 22h-164zM270 473h15l-15 14v-14zM516 473l-20 21h-17l21 -21h16zM545 473 l-21 21q0 2 -2 2v2v143l-20 21v-162l26 -27h17zM516 821l-20 21h-17l21 -21h16zM487 821l-22 23v2v143l-21 21v-162l27 -27h16zM459 821l-21 21h-18l20 -21h19zM430 821l-22 23h-2v2v86l-21 20v-104l27 -27h18zM406 958h-15l15 -16v16zM465 1016h-16l16 -15v15zM522 827v162 l-20 21v-162zM754 1016h-15l15 -15v15zM733 1010v-453l21 -20v452zM559 981v-102h21v82zM618 981v-424l27 -27h17l-23 23v2v406zM594 551l20 -21h19l-21 21h-18zM711 551l20 -21h19l-23 21h-16zM696 1016h-14l14 -15v15zM676 1010v-453l26 -27h17l-21 23h-2v2v434zM653 551 l21 -21h16l-20 21h-17zM639 1016h-131l20 -21h27h2q0 -2 2 -2l21 -22v20q0 4 4 4h30h2v-2l23 -22v45zM522 668h-14l14 -15v15zM575 473l-22 21h-16l20 -21h18zM604 473l-22 21v2q-2 0 -2 2v28q0 4 4 4h20l-22 23v2h-2v287h-21v-342l27 -27h18zM362 842l21 -21h18l-22 21h-17 zM174 668h-74l21 -21h29h2v-2l22 -22v45zM72 231l20 -20h135l-22 20h-133zM57 668h-14l14 -15v15zM618 197v-103h21v82zM639 231h-393l20 -20h348h2l23 -23v43zM328 905l20 -20v73h-20v-53zM256 879l-23 22l-2 2v29l-20 20v-47l27 -26h18zM82 37l-23 22l-2 2v29l-20 21v-74 h45zM305 899l21 -20l22 -23v16l-26 27h-17zM285 879l-21 20h-18l20 -20h19zM696 205l-20 24v-168q0 -4 -4 -4h-600l20 -20h604v168zM14 784l78 -79h430v79h-508zM2 268q2 0 2 2zM35 995h231h2v-2l23 -22v20q0 4 4 4h111v21h-392zM2 268q-2 0 -2 -2q0 2 2 2zM14 0 q8 -10 26.5 -27.5t36 -35l31.5 -31.5l13 -15h715l-109 109h-713zM842 -84l-86 86l-2 2v172l-21 21v-191l109 -108v18zM877 -109h16l-107 109h-18zM899 147l-106 109v-250l106 -108v249zM377 270v52l-107 108v-160h107z" />
<glyph unicode="3" d="M905 -115v-2h-2h-725q-2 0 -2 2l-22 23v-21v-2h-2q0 -2 -2 -2h-29q-2 0 -4 2l-115 117h-2v2v262q0 4 4 4h518v49h-401h-4l-115 117h-2v2v2v260q0 4 4 5h78l-80 79q-2 0 -2 2v2v203q0 4 4 4h19l-21 23h-2v2v29q0 4 4 4h784h3l116 -117v-4v-1045v-2h-2zM899 932l-106 106 v-1032l106 -108v1034zM182 981v-8v-6v2v-6l27 -27h18zM385 139v-18l21 -21v19zM111 94l-17 17v-17h17zM401 94l-22 23h-279l21 -23h280zM37 473h45l-23 21v2h-2v2v143l-20 21v-189zM750 37l-23 20h-190l20 -20h193zM580 449v45h-451l23 -21h403h2v-2h2zM522 821v21h-450 l20 -21h430zM37 821h45l-23 23h-2v2v26l-20 21v-72zM299 981v-45h43zM733 981v-18l21 -21v19zM754 117h-189l21 -23h143h2h2l21 -22v45zM690 211l-20 20h-17l21 -20h16zM614 530h2v-2l23 -20v16l-27 27h-452l20 -21h434zM618 807v-250l21 -20v249zM154 530h14l-14 15v-15z M618 211h44l-23 22v3v260l-21 20v-305zM696 217v627l-20 20v-626zM594 899l20 -20h58h2l22 -23v43h-102zM565 842l21 -21h28h2v-2l23 -22v45h-74zM580 932l-21 20v-47l27 -26h18l-22 22v2h-2v29zM43 899l20 -20h512l-22 20h-510zM559 614l21 -20v221l-21 21v-222zM727 174 h-219l20 -20h222zM575 94l-16 17v-17h16zM754 160v741l-21 23v-744zM754 913v19l-27 26h-162l21 -22h143h2h2zM334 958l20 -22h168v22h-188zM129 610l23 -22h423l-22 22h-424zM502 37h43l-21 22h-2v2v86l-20 21v-131zM754 43v16l-21 23v-19zM246 1016l20 -21h29h2v-2l22 -22 v20q0 4 5 4h405h2q0 -2 2 -2l21 -22v45h-508zM522 668h-422l21 -21h401v21zM94 662v-162l27 -27h18l-22 21v2v2v86q0 4 4 4h18l-22 22v2v2v27zM72 494l20 -21h19l-21 21h-18zM57 668h-14l14 -15v15zM559 238l21 -21v221l-21 21v-221zM240 963l22 -21v47l-22 21v-47zM51 936 l-14 16v-16h14zM449 231l22 -20h104l-22 20h-104zM217 958l21 -22h18l-20 22h-19zM197 936l-21 22h-133l20 -22h134zM444 63l21 -20v162l-21 22v-164zM43 231l20 -20h343v20h-363zM72 174l20 -20h289h2v-2h2l21 -23v45h-334zM72 57l20 -20h367l-21 20h-366zM35 995h143h2v-2 l23 -22v45h-189zM92 705h430v79h-508zM522 328v108h-508l107 -108h401zM139 -109l-20.5 20.5t-33.5 35t-33.5 34t-20.5 19.5h-17l107 -109h18zM145 -84l-86 86h-2v2v29q0 4 4 4h21l-23 22l-2 2v89q0 4 4 4h21l-23 22h-2v2v27l-20 22v-221l108 -108v18zM180 -109h713 l-107 109h-714l80 -80z" />
<glyph unicode="4" horiz-adv-x="1011" d="M907 -109q2 -2 0 -4q0 -4 -4 -4h-260q-2 0 -4 2l-115 117h-2v2v29q0 4 4 4h19l-21 22h-2v2v258h-401h-4l-115 117q-2 0 -2 2v2v609q0 4 4 4h262h2l117 -117v-4v-227h137v344q0 4 4 4h262h3l116 -117v-4v-492v-2v-2h-2h-2h-18l22 -22v-4v-519zM793 516v-508l106 -108v510z M793 557q33 -35 67.5 -68.5t38.5 -39.5v483l-106 106v-424v-57zM786 551h-47l21 -21h28h3v-2l86 -84h16zM754 100v19l-27 26h-16l22 -22zM733 111v-74h21v53zM676 37h20v84q0 4 4 4h19l-21 20l-2 2v3v434l-20 20v-450v-7v3v-113zM727 610h-45l20 -22h48zM696 670l-20 20v-43 h20v23zM754 129v395l-21 21v-19v-374zM754 641l2 4q0 -2 -2 -2v318l-21 20v-305v-8v4v-58l21 -20v47zM682 1016l20 -21h27h2q0 -2 2 -2l21 -22v45h-72zM676 1010v-19v-260l20 -20v278zM653 725l21 -20l22 -23v16l-26 27h-17zM674 145h-2h2zM639 961l-21 20v-305h21v24 q0 4 4 5h19l-23 22v2v232zM643 182h-2h2zM639 61v113v6v-2v375l-21 22v-512l21 -20v18zM618 633v-19l21 -20v18zM639 623v16h-16zM565 1016l21 -21h28h2v-2l23 -22v45h-74zM559 674l21 -21v336l-21 21v-336zM274 668l23 -21h278l-22 21h-279zM348 584l-20 20v-74h43l-21 23 h-2v2v29zM516 473l-20 21h-199h-4h2h-223l20 -21h424zM117 815l-23 21v-105l23 -20v47q0 4 4 4h18l-22 22v2v2v27zM117 827v15h-17zM154 836v-48l26 -26h17l-21 22q-2 0 -2 2v2v25v2zM174 827v15h-14zM207 784h-19l43 -45v45h-24zM231 821v23q-4 8 -20 20v-43h20zM147 784 h-18l23 -22l22 -23v19zM94 662v-132h45l-22 23v2v86zM121 647h47l-21 21h-47zM152 530h16l-21 21h-18zM174 537v47l-20 20v-47zM174 594v16h-14zM174 653v74l-20 23v-76zM90 725h-18l20 -20h19zM270 705h107v227l-107 106v-333zM270 557l21 -20v104l-21 21v-105zM246 551 l20 -21h19l-21 21h-18zM231 727l-20 23v-193v-4v2v-25h45l-23 23h-2v2v172zM217 1016l14 -15v15h-14zM211 905l20 -20v104l-20 21v-105zM188 899l23 -20l20 -23v16l-26 27h-17zM160 1016l14 -15v15h-14zM154 905l26 -26h17l-21 22q-2 0 -2 2v86l-20 21v-105zM129 899l23 -20 h16l-21 20h-18zM100 1016l17 -15v15h-17zM94 905l27 -26h18l-22 22v2v86l-23 21v-105zM72 899l20 -20h19l-21 20h-18zM43 1016l14 -15v15h-14zM37 727v2v-29v-227h45l-23 21v2h-2v2v202q0 2 1 2t1 3h2h21l-23 22l-2 2v145q0 4 4 5h21l-23 22l-2 2v86l-20 21v-277v-6zM37 727 h-2h2zM522 436h-282h-7h3h-173h-4h2h-47l107 -108h401v108zM522 479v17l-20 20v-16zM522 528v-2v25h-160l21 -21h115h2v-2l22 -20v14v6zM555 588h2h2l21 -23v19q0 4 4 4h30h2l23 -23v19l-27 26h-278l20 -22h201zM559 121v-27h21v459l-21 22v-335v-7v3v-29v-84v-4v2zM524 530 h2h-2v0zM557 37h76l-21 20h-75zM645 -109h248l-109 109h-247z" />
<glyph unicode="5" d="M885 901l22 -22v-5v-202v-2l-2 -2h-2h-76l80 -80v-2v-699v-2h-2q0 -2 -2 -2h-725q-2 0 -2 2l-22 23v-21l-2 -2h-2v-2h-29q-2 0 -2 1t-2 1l-115 117h-2v2v262q0 4 4 4h518v49h-401q-2 0 -4 3l-115 114q-2 0 -2 2v2v609q0 4 4 4h784h3l116 -117v-2v-29v-2v-2h-2h-2h-18z M899 932l-13 14q-14 15 -31 32t-35.5 34.5t-26.5 27.5v-18q4 -4 19 -19.5t33.5 -34t34 -34.5t19.5 -21v19zM502 981v-76q0 -4 -4 -4h-29q-4 0 -4 4v27l-21 20v-104l27 -27h16l-22 23v2v28q0 4 4 5h76l-21 22h-2v2v2v56zM57 438v2v-2v0zM94 199v-162h45l-22 22v2v2v29 q0 4 4 4h18l-22 21v2v2v55zM750 879l-23 22h-16l20 -22h19zM719 879l-21 22q-2 0 -2 4v27l-20 20v-47l26 -26h17zM690 879l-20 22h-17l21 -22h16zM662 879l-23 22v2v2v27l-21 20v-47l27 -26h17zM639 958h-16l16 -14v14zM696 958h-14l14 -14v14zM754 958h-15l15 -14v14z M733 952v-47l21 -20v47zM565 958l15 -14v14h-15zM594 901l20 -22h19l-21 22h-18zM559 905l27 -26h18l-22 22v2h-2v2v27l-21 20v-47zM406 958h-15l15 -14v14zM154 123l20 -21v105l-20 20v-104zM371 821l-21 23h-2v2v143l-20 21v-162l26 -27h17zM342 821l-20 21h-17l21 -21h16 zM328 590h43l-21 20l-2 2v2v27l-20 21v-72zM754 72v45h-508l20 -21h463h2v-2h2zM559 633v-43h45l-22 20zM618 575v-18l21 -20v18zM618 270h44l-23 21v2v2v143l-21 21v-189zM559 530h16l-16 17v-17zM633 530l-21 21h-47l21 -21h47zM565 494l21 -21h28h2v-2l23 -20v43h-74z M690 270l-20 21h-17l21 -21h16zM559 238l27 -27h18l-22 22v3h-2v2v229l-21 20v-249zM217 174l21 -20h516v20h-537zM256 96l-23 21v2h-2v2v26l-20 21v-72h45zM754 668h-15l15 -15v15zM733 662v-424l21 -21v424zM727 233h-133l20 -22h115h2h-2h21zM696 276v336l-20 21v-336z M696 668h-73l22 -21h27h2v-2l22 -20v43zM618 662v-46l21 -22v47zM594 610l22 -22l23 -23v17v2l-27 26h-18zM580 668h-246l20 -21h201h2l2 -2l21 -20v43zM522 473v21h-160l21 -21h139zM371 473l-21 23h-2v2v26l-20 23v-47l26 -27h17zM334 551l20 -21h162l-20 21h-142 q-2 0 -4 2l2 -2h-18zM522 537v18l-20 20v-18zM522 610h-160l21 -20h115q2 0 2 -2l22 -23v45zM305 494l21 -21h16l-20 21h-17zM291 668h-17l17 -15v15zM270 662v-162l27 -27h16l-22 23v2v143zM207 473h20l-22 21h-162l20 -21h142h4h-2zM37 530h45l-23 23q0 2 -2 2v434l-20 21 v-480zM154 821h43l-21 23h-2v2v143l-20 21v-189zM291 1016h-131l20 -21h27h2l2 -2l20 -20v18q0 4 5 4h30h2v-2l23 -20v43zM231 508v16l-26 27h-17l23 -21zM154 557l26 -27h17l-21 23h-2v2v203l-20 20v-221zM211 981v-102h20v82zM174 784h-14l14 -16v16zM211 557l20 -20v249 l-20 21v-250zM188 842l43 -43v43h-43zM147 551h-18l23 -21h16zM117 1016h-17l17 -15v15zM94 1010v-453l27 -27h18l-22 23v2v434zM72 551l20 -21h19l-21 21h-18zM57 1016h-14l14 -15v15zM37 473h14l-14 14v-14zM256 473l-45 43v-16l27 -27h18zM285 473l-21 21h-18l20 -21h19z M270 821h43l-22 23v2v115l-21 20v-160zM348 1016h-14l14 -15v15zM160 233l20 -22h395l-22 22h-393zM733 63l21 -20v18l-21 21v-19zM401 821l-22 21h-17l21 -21h18zM129 117l23 -21h16l-21 21h-18zM129 59l23 -22h598l-23 22h-598zM430 821l-22 23l-2 2v86l-21 20v-104 l27 -27h18zM553 901h-16l20 -22h18zM479 842l21 -21h254v21h-275zM459 821l-21 21h-18l20 -21h19zM449 958l16 -14v14h-16zM43 236l20 -25h27h2h2l23 -23v48h-74zM791 436v2v-2zM342 705l-72 73v-73h72zM401 995l-16 15v-15h16zM522 328v108h-454h-9h2h-47q8 -10 26.5 -27.5 t36 -35l31.5 -31.5l13 -14h401zM139 -109l-20.5 20.5t-33.5 35t-33.5 34t-20.5 19.5h-17l107 -109h18zM145 -84l-86 86h-2v2v203l-20 22v-223l108 -108v18zM180 -109h713l-107 109h-714zM899 584l-106 106v-248q0 -4 -2 -4q2 0 2 2v-434l106 -108v686zM819 676h74l-107 108 h-512l80 -79h434h3zM793 981v-190l106 -109v192zM877 909h16l-107 107h-395l21 -21h86h2v-2l22 -20v18q0 4 4 4h262h3v-2z" />
<glyph unicode="6" d="M885 903l22 -22v-2v-205v-2h-2v-2h-2h-76l80 -80v-2v-697v-2q0 -2 -2 -2h-2h-725h-2l-22 23v-19v-2l-2 -2h-2h-29h-4l-115 117h-2v2v1047q0 4 4 4h141q4 0 7 -2l-2 2h638v-2h3l116 -117v-2v-29v-2v-2h-2h-2h-18zM899 934l-106 108v-18l106 -106v16zM502 983v-74l26 -26 h17l-21 20l-2 2v2v56zM94 201v-160h45l-22 20v2v3v114zM465 961h-16l16 -15v15zM750 883l-23 20h-16l20 -20h19zM719 883l-21 20l-2 2v2v27l-20 20v-45l26 -26h17zM690 883l-20 20h-17l21 -20h16zM662 883l-23 20v2v2v27l-21 20v-45l27 -26h17zM639 961h-16l16 -15v15z M696 961h-14l14 -15v15zM754 961h-15l15 -15v15zM733 954v-45l21 -22v47zM565 961l15 -15v15h-15zM594 903l20 -20h19l-21 20h-18zM479 844l21 -21h254v21h-275zM37 535h45l-23 20v2h-2v2v432l-20 23v-479zM43 1018l20 -21h87h2l22 -22v18q0 4 4 4h29h2h2l20 -22v18q0 4 5 4 h30h2l23 -22v43h-80q-4 0 -6 2q2 0 2 -2h-164zM406 961h-15l15 -15v15zM385 954v-104l27 -27h18l-22 23v2h-2v86zM362 844l21 -21h18l-22 21h-17zM348 1018h-14l14 -14v14zM328 1014v-164l26 -27h17l-21 23h-2v2v143zM305 844l21 -21h16l-20 21h-17zM270 823h43l-22 23v2 v115l-21 20v-160zM328 592h43l-21 22h-2v2v27l-20 23v-74zM754 76v43h-508l20 -21h463h2l2 -2zM154 983v-100h20v80zM211 983v-100h20v80zM328 502l26 -27h17l-21 23h-2v2v28l-20 21v-47zM559 635v-100h45l-22 20v2h-2v2v55zM676 635v-336l20 -20v335zM690 272l-20 21h-17 l21 -21h16zM614 475h2l23 -22v43h-74l21 -21h28zM733 201v-19l21 -20v18zM246 236l20 -21h309l-22 21h-307zM750 156l-23 20h-510l21 -20h512zM154 98h20v111l-20 20v-131zM174 297v115l-20 20v-133l2 -2h18zM197 535l-21 20l-2 2v2v201l-20 20v-219l26 -26h17zM94 823h45 l-22 23v2v86l-23 20v-131zM117 961h-17l17 -15v15zM160 786l14 -14v14h-14zM211 561l20 -22v249l-20 21v-248zM231 844h-102l23 -21h55h2h2l20 -22v43zM231 510v18l-26 27h-17l23 -23zM100 786l17 -14v14h-17zM129 555l23 -20h16l-21 20h-18zM211 520v-18l20 -21v19z M256 215l-23 21v2h-2v2v143l-20 20v-161l27 -27h18zM231 438h-71l20 -20h27h2v-2h2l20 -23v45zM100 438l17 -14v14h-17zM96 297h21v115l-23 20v-133zM160 236l20 -21h47l-22 21h-45zM94 561l27 -26h18l-22 20v2v2v201l-23 20v-219zM205 496h-162l20 -21h164zM256 98l-23 23 h-2v2v27l-20 22v-74h45zM604 215l-22 21v2h-2v2v229l-21 23v-250l27 -27h18zM618 272h44l-23 23v2v143l-21 21v-189zM502 578v-17l20 -22v18zM334 555l20 -20h162l-20 20h-142h-4h2h-18zM362 496l21 -21h139v21h-160zM377 272v52l-107 108v-160h107zM385 272h137v50h-137 v-50zM522 330v108h-248l109 -108h139zM362 612l21 -20h115h2v-2l22 -21v43h-160zM72 555l20 -20h19l-21 20h-18zM37 492v-195h20v172zM754 670h-15l15 -15v15zM733 666v-424l21 -23v424zM594 236l20 -21h115h2v-2h2l21 -23v19l-27 27h-133zM696 670h-73l22 -21h27h2l22 -22 v43zM618 666v-105l21 -22v104zM594 555l20 -20h19l-21 20h-18zM580 670h-246l20 -21h201h2h2l21 -22v43zM305 496l21 -21h16l-20 21h-17zM291 670h-17l17 -15v15zM270 666v-191h43l-22 23v2v143zM733 68l21 -23v18l-21 21v-16zM459 823l-21 21h-18l20 -21h19zM727 61h-598 l23 -20h598zM559 909l27 -26h18l-22 20v2h-2v2v27l-21 20v-45zM487 883l-22 20v2v2v27l-21 20v-104l27 -27h16l-22 23v2v31q0 4 4 4h18zM537 903l20 -20h18l-22 20h-16zM516 883l-20 20h-17l21 -20h16zM39 238l24 -23h27h2v-2h2l23 -23v48h-78zM342 709l-72 71v-71h72z M401 997l-16 17v-17h16zM121 -104h18q-4 4 -20.5 19t-33.5 33.5t-33.5 34t-20.5 19.5h-17zM145 -82l-86 86q0 2 -2 2v203l-20 20v-221l108 -106v16zM152 -78q12 -10 19 -18t9 -8h713l-107 106h-714q12 -10 36 -35t44 -45zM899 586q0 2 -29.5 31.5t-56.5 54.5q-6 6 -11 12 t-9 10v-686l106 -106v684zM819 678h74l-107 108h-512l80 -77h434v-2h3zM899 877l-106 106v-190l106 -109v193zM877 911h16l-107 107h-395l21 -21h86h2l22 -22v18q0 4 4 4h262h3z" />
<glyph unicode="7" d="M907 -113v-2h-2v-2h-2h-260q-2 0 -4 2l-115 117h-2v2v664h-286l-3 2l-22 20v-18v-2q0 -2 -2 -2h-2h-86q-2 0 -4 2l-115 114q-2 0 -2 2v2v261q0 4 4 4h725h2h2l21 -23v19q0 4 4 4h30h3l116 -117v-4v-1045zM899 932l-106 106v-1032l106 -108v1034zM465 913v45h-393l22 -22 l23 -23v19q0 4 4 4h319h2zM94 924v-45h45zM555 995h2q0 -2 2 -2l21 -22v20q0 4 4 4h88h2v-2l22 -22v45h-653l20 -21h492zM559 270h21v662q0 4 4 4h20l-22 22l-23 23v-711zM676 981v-743l20 -21v744zM690 211l-20 20h-47l22 -20h23h6h-2h18zM618 924v-654h21v631zM594 958 l22 -22l23 -23v45h-45zM618 121l21 -21v105l-21 22v-106zM676 209v-2v2zM565 231l15 -14v14h-15zM594 117l20 -23h19l-21 23h-18zM559 37h45l-22 22v2h-2v29q0 4 4 4h20l-22 23v2h-2v2v84l-21 22v-190zM129 899l23 -20h254v20h-277zM82 936l-23 22v3h-2v2v26l-20 21v-189h20 v111q0 4 4 4h21zM522 958h-14l14 -16v16zM502 848l20 -21v105l-20 20v-104zM690 37l-20 20h-76l20 -20h76zM682 174l14 -14v14h-14zM479 842l21 -21h16l-20 21h-17zM719 37l-21 22h-2v2v86l-20 21v-105l26 -26h17zM444 848l27 -27h16l-22 23v2v55l-21 23v-76zM750 37l-23 20 h-16l20 -20h19zM100 842l21 -21h338l-21 21h-338zM754 1018l-21 20v-975l21 -20v975zM197 676q-4 4 -19.5 20.5t-34 34t-34 33.5t-19.5 20h-76l107 -108h76zM203 698l-86 86v2v2v27l-23 21v-48l109 -106v16zM522 676v108h-393l36.5 -36.5t45.5 -42.5q4 -6 9 -11.5t9 -9.5 q4 -6 9 -8h284zM645 -109h248l-107 109h-249z" />
<glyph unicode="8" d="M885 784l22 -22v-4v-260v-2v-2l-84 -84l84 -84v-2v-437v-2h-2v-2h-2h-725q-2 0 -2 2l-22 23v-21v-2h-2q0 -2 -2 -2h-29q-2 0 -4 2l-115 117h-2v2v436l2 2l84 84q-4 2 -15.5 15.5t-27.5 27.5q-18 16 -39 37l-4 4v2v2v435q0 4 4 4h784h3l116 -117v-4v-144v-2v-2h-2h-2h-18z M442 934l2 -2q0 2 -2 2zM174 205l-20 22v-190h43l-21 22h-2v2v144zM37 1010v-392h20v314q0 4 4 4h21l-23 22v3h-2v2v26zM57 1001v15h-14zM92 936h19l-21 22h-18zM117 942v47l-21 21v-47zM682 784l14 -16v16h-14zM676 588h20v112q0 4 4 5h19l-21 22h-2v2v29l-20 20v-190z M676 459v-305h20v256q0 4 4 4h19l-21 22zM696 449v16h-14zM672 37h18l-20 20h-482l21 -20h457h8h-2zM123 473h84q2 0 4 -2v-2v-287v-6v2v-84h45l-23 23v2h-2v2v29l2 2q0 2 3 2h20l-23 22h-2v2v291q0 4 5 4h319q4 0 4 -4v-231l21 -21v277h-480zM96 487v-14h15zM94 612v-2v2z M147 842h-16l21 -21h16zM100 899l17 -14v14h-17zM96 616q0 -2 -2 -4l2 2v-26h43l-22 22v2v2v203q0 4 4 4h18l-22 23v2v26l-21 21v-277zM522 676v108h-248l109 -108h139zM385 668v-50h137v50h-137zM270 778v-160h107v52zM246 117l20 -23h406h2l22 -22v45h-450zM612 174h-307 l21 -20h307zM639 160v336l-21 20v-336zM291 176v2v27l-21 22v-47l27 -26h16zM522 328v108h-248l109 -108h139zM385 319v-49h137v49h-137zM270 430v-160h107v52zM297 211h278l-22 20h-279zM246 174l20 -20h19l-21 20h-18zM639 551h-102l20 -21h57h2v-2l23 -20v43zM524 553h-2 v2v25h-73l22 -21h27h2l28 -29h17zM502 545v-15h14zM412 530h18l-22 23q0 2 -2 2v25h-72l20 -21h27h2h2zM385 545v-15h16zM297 530h16l-22 23v2v25h-45zM270 545v-15h15zM174 537v16l-20 22v-18zM147 551h-22v-21h43zM174 565v19l-27 26h-16zM238 821h104l-20 21h-105z M211 836v-48l20 -20v47zM348 827v45l-20 21v-45zM348 885v14h-14zM174 594v164l-20 20v-164zM180 762h27h2h2l20 -23v19l-26 26h-45zM211 559h45l-23 23v2h-2v143l-20 23v-191zM326 530h16l-20 21h-17zM348 537v16l-20 22v-18zM440 530h19l-21 21h-18zM465 537v16l-21 22 v-18zM676 63l26 -26h17l-21 22l-22 23v-19zM731 37h19l-23 20h-16zM754 43v336l-21 22v-338zM754 391v45h-43l22 -22zM174 872l-20 21v-45l20 -21v45zM160 436l14 -16v16h-14zM154 266l20 -20v164l-20 20v-164zM676 35v-2v2zM754 647v23l-21 20v-43h21zM754 786l-21 21v-76 l21 -20v75zM727 725h-16l22 -20l21 -23v16zM291 901l-21 23v-19l21 -20v16zM264 899h-104l20 -20h105zM168 936l-14 16v-16h14zM729 995h2l2 -2l21 -22v45h-654l23 -21h606zM733 963l21 -21v19l-21 20v-18zM131 262l43 -45v19l-27 26h-16zM618 614l21 -20v221l-21 21v-222z M645 821h84h2v-2h2l21 -22v45h-131zM383 936h2l21 -23v19q0 2 2 4h2h24h6h310l-23 22h-313h-6h2h-250l20 -22h86h2l23 -23v19q0 4 4 4h86h2zM117 262v2v2v113l-21 22v-364h21v199q0 4 4 4h18zM594 610l20 -22h19l-21 22h-18zM430 821l-22 23h-2v2v55l-21 23v-103h45zM43 436 l20 -22h29h2l23 -23v45h-74zM582 610v2h-2v2v172l-21 21v-219h45zM580 844l-21 20v-16l21 -21v17zM553 842h-133l20 -21h115h2v-2h2l21 -22v18zM459 879l-15 14v-14h15zM139 -109l-108 109h-17l109 -109h16zM145 -84l-86 86h-2v2v406l-20 20v-424l108 -108v18zM895 -109 l-109 109h-714l80 -80l28 -29h715zM793 430v-424l106 -108v424zM817 416q4 6 16.5 17t24.5 24.5t24.5 25t16.5 15.5l-111 110l-81 -82l84 -84zM872 784l-79 80v-250l106 -106v250zM895 793l-109 106h-198q-4 0 -4 2v-2h-135l22 -20h84h2h2l21 -23v18q0 4 4 5h204h3l86 -86 h18zM899 932l-106 106v-133q4 -4 19 -19.5t33.5 -33.5t34 -34.5t19.5 -20.5v135z" />
<glyph unicode="9" d="M905 -117v-2h-2h-782q-2 0 -4 2l-115 117h-2v2v29q0 4 4 4h19l-21 22h-2v2v203q0 4 4 4h78l-80 82h-2v2v697q0 4 4 4h725h2h2l21 -23v19q0 4 4 4h30h3l116 -117v-4v-1045v-2h-2zM793 1036v-1032l106 -108v1034zM639 0v2v-2zM291 127v20q0 4 4 5h29h2v-2l22 -23v18l-26 27 h-250l22 -22l23 -23v20q0 4 4 5h29h2v-2l22 -23v20q0 4 4 5h29h2v-2h2l20 -23v20q0 4 5 5h30q2 0 2 -2zM328 137v-45h20v25zM94 137v-45h23v25zM154 137v-45h20v25zM211 137v-45h20v25zM696 969v45h-653l20 -21h609h2v-2zM348 186v19q0 4 4 4h29h2h2l21 -23v19q0 4 4 4h30h2 l23 -23v19q0 4 4 4h29h2l22 -23v43h-248l23 -20h27h2zM750 35l-23 20h-74l21 -20h76zM662 35l-23 22v2v86l-21 21v-105l27 -26h17zM633 35l-21 20h-18l20 -20h19zM604 35l-22 22l-2 2v86l-21 21v-105l27 -26h18zM575 35l-22 20h-16l20 -20h18zM502 35h43l-21 22h-2v2v115 l-20 21v-160zM459 383l-21 20h-192l20 -20h193zM168 383l-21 20h-18l23 -20h16zM754 477v43h-160l22 -22l23 -21v19q0 4 4 4h29h2v-2l22 -21v19q0 4 4 4h29h2l2 -2zM444 543v-17l21 -20v16zM465 463h-160l21 -21h114v-2h2l23 -22v45zM117 477v17l-27 26h-18zM559 922v-19 l21 -20v16zM676 748v-132h20v109zM733 748v-164l21 -21v162zM618 485v-219h21v199zM676 485v-219h20v199zM559 805v-189h45l-22 21v2h-2v2v143zM750 557l-23 21h-162l21 -21h164zM676 195v-103h20v82zM594 229l20 -20h58h2l22 -23v43h-102zM604 500l-22 22l-2 2v27l-21 22 v-364h45l-22 22v2h-2v263q0 4 4 4h20zM633 616l-21 21h-18l20 -21h19zM580 815q0 4 4 4h49l-21 21h-512l21 -21h86h2v-2h2l20 -22v20q0 4 5 4h319h2v-2h2l21 -22v20zM211 805v-221l20 -21v221zM154 748v-191h43l-21 23h-2v2v143zM227 557l-22 21h-17l21 -21h18zM100 782 l21 -22h29h2l22 -23v45h-74zM111 819l-17 15v-15h17zM94 526l23 -20v250l-23 20v-250zM639 825v105l-21 20v-104zM639 956h-16l16 -16v16zM43 897l20 -20h512l-22 20h-510zM270 616h107v52l-107 108v-160zM385 616h137v50h-137v-50zM522 782h-248l109 -108h139v108zM313 442 l-22 21v2v2v27l-21 20v-72h43zM459 500l-21 20h-164l23 -20h141h4h-2h19zM285 557l-15 16v-16h15zM565 172l15 -14v14h-15zM623 172l16 -14v14h-16zM754 782h-131l22 -22h27h2l22 -23v19q0 4 4 4h29h2h2l21 -23v45zM618 776v-133l21 -22v135zM72 956l20 -22h463h2h2l21 -23 v45h-508zM37 383h20v113q0 4 4 4h21l-23 22h-2v2v346l-20 21v-508zM94 383h45l-22 23v2v57l-23 20v-102zM174 389v105l-20 20v-104zM207 500h2q0 -2 2 -2l20 -21v43h-71l20 -20h27zM211 383h45l-23 23l-2 2v57l-20 20v-102zM465 389v19l-21 20v-18zM465 553q0 4 4 4h29h2 l22 -22v43h-248l23 -21h143h2l23 -22v18zM502 383h20v139l-20 21v-160zM754 41v424l-21 20v-424zM57 987l-20 21v-74h45l-23 22v2h-2v3v26zM285 209l-15 14v-14h15zM444 35h21v139l-21 21v-160zM385 195v-103h21v82zM231 229h-188l20 -20h168v20zM82 152l-23 22h-2v2v27 l-20 20v-131h20v55q0 4 4 5h21zM328 178l20 -20v16l-20 21v-17zM721 815l-23 27h-2v2v114l-20 21v-164h45zM305 55l21 -20h80v20h-101zM750 815l-23 25h-16l20 -25h19zM270 61l27 -26h16l-22 22v2v58l-21 20v-76zM754 1016l-21 20v-190l21 -25v195zM92 266h430v80h-508z M35 35h250l-21 20h-250zM14 -2q8 -10 26.5 -27.5t36 -35l31.5 -31.5l13 -15h772l-107 109h-57h-82h-6h2h-629z" />
<glyph unicode="A" d="M905 -115v-2h-2h-203l-2 2l-22 23v-21v-2h-2v-2h-2h-29q-2 0 -4 2l-115 117h-2v2v2v139h-137v-258v-2h-2v-2h-2h-203q-2 0 -2 2l-22 23v-21v-2h-2q0 -2 -2 -2h-29q-2 0 -4 2l-115 117h-2v2v1045q0 4 4 4h784h3l116 -117v-4v-1045v-2h-2zM793 1038v-1032l106 -108v1034z M377 147l-107 109v-250l107 -108v249zM94 227v-45h45zM37 299h45l-23 20v3h-2v2v434q0 4 4 4h21l-23 22v2h-2v2v201l-20 21v-711zM94 356h23v371l-23 23v-394zM117 784h-45l45 -45v45zM150 299h2v-2l22 -23v19l-27 26h-75l20 -20h58zM154 1010v-74h20v53zM129 899l23 -20h75 l-22 20h-76zM129 842l23 -21h403h2v-2h2l21 -22v45h-451zM270 1010v-131h43l-22 22v2v86zM676 240h20v661l-20 23v-684zM696 958h-362l20 -22h260h2l23 -23v19q0 4 4 4h29h2l22 -23v45zM555 299h2v-2h2l21 -23v45h-334l20 -20h289zM227 37l-22 20h-17l21 -20h18zM197 37 l-21 22h-2v2v86l-20 21v-105l26 -26h17zM168 37l-21 20h-18l23 -20h16zM231 43v102h-20v-82zM154 240h43l-21 22l-22 23v-45zM559 807v-424l21 -21v424zM274 377l23 -21h278l-22 21h-279zM516 414l-20 22h-279l21 -22h278zM211 750v-277h45l-23 21v2h-2v2v229zM502 459v-19 l20 -20v18zM270 530h107v140l-107 108v-248zM522 668h-137v-138h137v2v136zM270 356h15l-15 15v-15zM522 784h-248l109 -108h139v108zM246 494l20 -21h232h2v-2l22 -22v45h-276zM231 784h-71l20 -22h27h2h2l20 -23v45zM154 326l20 -21v453l-20 20v-452zM188 262l23 -22 l20 -23v45h-43zM211 209l20 -21v17l-20 22v-18zM256 299l-23 20v3h-2v2v86l-20 20v-131h45zM559 240h45l-45 45v-45zM633 240l-21 22h-18l20 -22h19zM618 864v-598l21 -20v598zM618 905l21 -20v16l-21 23v-19zM328 936h14l-14 16v-16zM305 899l21 -20h288h2l23 -23v16 l-27 27h-307zM129 203l45 -43v18q0 4 4 4h49l-22 21h-76zM94 37h45l-22 22v2v84h-23v-108zM565 203l21 -21h143h2l2 -2l21 -20v16l-27 27h-162zM676 94h14l-14 17v-17zM696 145h-78v-108h44l-23 22v2v60q0 4 4 4h29q2 0 2 -2l22 -23v45zM750 37l-23 20h-74l21 -20h76z M733 168v-105l21 -20v104zM754 1016h-480l23 -21h432q4 0 4 -4v-782l21 -21v828zM231 1016h-71l20 -21h27q4 0 4 -4v-86l20 -20v131zM117 1016h-74l20 -21h27q4 0 4 -4v-170h45l-22 23v2v28q0 4 4 5h18l-22 22v2v113zM139 -109l-108 109h-17l21.5 -21.5t36 -37t34.5 -35.5 l15 -15h18zM145 -84l-86 86h-2v2v232q0 4 4 4h29h2h2l23 -23v45h-80v-256l108 -108v18zM180 -109h191l-107 109h-192l80 -80zM522 154v108h-248l109 -108h139zM662 -109l-20.5 20.5t-34 35t-34 34t-20.5 19.5h-16l108 -109h17zM668 -84l-86 86q-2 0 -2 2v172l-21 21v-191 l109 -108v18zM674 -80q29 -29 28 -29h191l-107 109h-192z" />
<glyph unicode="B" d="M885 784l22 -20v-4v-260v-2v-2l-84 -84l84 -84v-2v-437v-2l-2 -2h-2h-725q-2 0 -2 2l-22 21v-19v-2h-2v-2h-2h-29q-2 0 -4 2l-115 115q-2 0 -2 2v2v1045q0 4 4 4h784h3v-2l116 -115v-4v-146v-2h-2v-2h-2h-18zM899 932q0 2 -15.5 17.5t-34 33.5t-35.5 35.5t-21 21.5v-133 l106 -108v133zM385 866v-43h45l-22 21zM211 461v-365h45l-23 23v2h-2v319zM559 461v-221l21 -21v221zM559 809v-219h45l-22 22v2h-2v174zM174 758l-20 22v-221l20 -20v219zM168 532l-21 21h-75l20 -21h76zM37 532h45l-23 23h-2v2v377q0 4 4 4h21l-23 23v2h-2v28l-20 21v-480 zM754 1018h-654l21 -21h608h2v-2h2l21 -22v45zM270 924v-17l21 -20v16zM168 823l-21 21h-18l23 -21h16zM117 901h-17l17 -14v14zM117 819q0 4 4 4h18l-22 21v2v2v26l-23 21v-305h23v229zM174 874l-20 21v-45l20 -23v47zM285 881l-21 20h-104l20 -20h105zM168 938l-14 16v-16 h14zM94 1012v-47l23 -21v47zM72 958l20 -20h19l-21 20h-18zM57 1018h-14l14 -17v17zM291 934q0 4 4 4h455l-23 20h-567l20 -20h86h2l23 -23v19zM754 944v19l-21 20v-18zM211 750v-189h45l-23 23h-2v2v143zM270 270h107v54l-107 108v-162zM385 270h137v52h-137v-52zM522 436 h-248l109 -106h139v106zM614 532h2v-2l23 -20v43h-102l20 -21h57zM545 532l-21 23h-2v2v25h-73l22 -21h27h2v-2l28 -27h17zM502 532h14l-14 15v-15zM459 532l-21 21h-18l20 -21h19zM430 532l-22 23l-2 2v25h-72l20 -21h27h2l2 -2l27 -27h18zM385 532h16l-16 15v-15zM342 532 l-20 21h-17l21 -21h16zM313 532l-22 23v2v25h-45l22 -23l29 -27h16zM270 532h15l-15 15v-15zM348 539v16l-20 20v-16zM465 539v16l-21 20v-16zM733 809v-76l21 -20v75zM682 784l14 -14v14h-14zM618 518v-336l21 -22v338zM305 176l21 -20h307l-21 20h-307zM676 590h20v112 q0 4 4 5h19l-21 22h-2v2v27l-20 22v-190zM733 649h21v23l-21 20v-43zM754 684v16l-27 27h-16zM754 844h-136v-228l21 -20v223q0 4 4 4h86h2v-2h2l21 -22v45zM385 618h137v52h-137v-52zM522 784h-248l109 -106h139v106zM270 780v-162h107v54zM291 207l-21 20v-71h43l-22 20v2 v2v27zM676 123l20 -21v310q0 4 4 4h19l-21 22l-22 23v-338zM750 39l-23 20h-539l21 -20h541zM174 219v17l-27 26h-18zM117 436h-17l17 -14v14zM174 436h-14l14 -14v14zM154 432v-164l20 -20v162zM94 39h23v199q0 4 4 4h18l-22 22v2v144l-23 22v-393zM154 39h43l-21 22h-2v2 v144l-20 20v-188zM754 45v336l-21 20v-335zM754 436h-43l43 -43v43zM696 467h-14l14 -16v16zM594 610l20 -20h19l-21 20h-18zM231 758l-26 26h-45l20 -20h27h2h2l20 -23v17zM575 213l-22 20h-279l23 -20h278zM246 117l20 -21h424l-20 21h-424zM231 817l-20 21v-47l20 -21v47 zM420 844l20 -21h115h2v-2h2l21 -22v45h-160zM342 823l-20 21h-105l21 -21h104zM43 496l20 -21h144h2v-2h2l20 -22v20q0 4 5 4h319h2v-2h2l21 -22v45h-537zM348 874l-20 21v-45l20 -23v47zM139 -106l-108 108h-17l21.5 -21.5t36 -37t34.5 -34.5l15 -15h18zM145 -84l-86 86v2 h-2v2v463l-20 20v-481l108 -108v16zM152 -78q29 -29 28 -28h713l-107 108h-714zM899 324l-15 15q-16 15 -34.5 34.5t-35.5 37t-21 21.5v-424l106 -108v424zM817 418q2 2 13.5 13t24.5 24.5t25.5 27t16.5 17.5l-109 110l-81 -82zM899 758q0 2 -15.5 17.5t-34 33.5t-35.5 35.5 t-21 21.5v-250l106 -106v248zM877 793h16l-107 108h-452l20 -20h27h2l2 -2l21 -21v19q0 4 4 4h378h3v-2z" />
<glyph unicode="C" d="M385 668v-398h287h2v-2l22 -20v18q0 4 4 4h88h3v-2l116 -114v-4v-261v-2q0 -2 -2 -2h-2h-725h-2l-22 23v-19v-2h-2v-2h-2h-29h-4l-115 117q-2 0 -2 2v2v1045q0 4 4 4h784h3v-2l116 -117v-2v-262v-2h-2l-2 -2h-518zM328 199v-103h43l-21 23h-2v2v57zM94 983v-944h45 l-22 20v2v2v754q0 4 4 4h18l-22 23v2v2v113zM270 983v-102h43l-22 20v2v2v56zM154 809v-713h43l-21 23h-2v2v665zM750 821l-23 23h-481l20 -23h484zM231 784h-14l14 -14v14zM733 63q0 -4 -4 -4h-483l20 -20h488v168l-21 20v-164zM754 233h-15l15 -14v14zM231 90l-26 27h-17 l23 -23l20 -20v16zM211 821h45l-23 23v2h-2v2v55l-20 21v-103zM639 915v19q0 4 4 4h111v20h-420l20 -20h260h2v-2zM342 938l-14 14v-14h14zM653 901l21 -20h55h2v-2h2l21 -23v45h-101zM754 827v19l-21 20v-18zM618 907l27 -26h17l-44 43v-17zM160 958l20 -20h27h2l2 -2 l20 -21v43h-71zM211 66l27 -27h18l-23 20l-22 23v-16zM256 96l-23 23h-2v2v637l-20 20v-655l27 -27h18zM305 901l21 -20h307l-21 20h-307zM129 844l23 -23l22 -22v133l-20 20v-104q0 -4 -4 -4h-21zM129 59l23 -20h75l-22 20h-76zM696 131v45h-305l21 -22h260h2zM385 154h16 l-16 16v-16zM676 123l20 -21v17l-20 22v-18zM362 117l21 -21h307l-20 21h-308zM285 96l-21 21h-18l20 -21h19zM291 207l-21 20v-104l21 -21v105zM43 1018l20 -23h27h2h2l23 -22v18q0 4 4 4h145h2l23 -22v18q0 4 4 4h459v23h-711zM690 213l-20 20h-396l23 -20h27h2v-2l22 -23 v21q0 4 4 4h338zM274 784l109 -108h510l-107 108h-512zM899 932l-15 16q-16 15 -34.5 34t-35.5 36.5t-21 21.5v-249l106 -109v250zM139 -106q-4 4 -21.5 21t-37 35.5t-34.5 34t-15 17.5h-17l21.5 -21.5t36 -37t34.5 -34.5l15 -15h18zM145 -84l-86 86v2h-2v2v985l-20 21 v-1006l108 -106v16zM180 -106h713l-107 108h-714zM793 256v-250l106 -106v250zM696 236l-20 20v-16l20 -21v17zM377 270v402l-107 106v-508h107z" />
<glyph unicode="D" d="M733 -113q0 -2 -2 -2h-2h-551q-2 0 -2 2l-22 21v-19v-2h-2v-2h-2h-29q-2 0 -4 2l-115 115q-2 0 -2 2v2v1045q0 4 4 4h551h2l2 -2l21 -21v19q0 4 4 4h30l2 -2l175 -174l116 -115v-4v-697v-2zM899 758l-15 15q-16 15 -34.5 34.5t-35.5 37t-21 21.5v-684l106 -108v684z M94 199v-160h45l-22 22v2v29q0 4 4 4h18l-22 23v2v57zM154 199v-43h43l-21 20zM522 784h-248l109 -106h139v106zM270 270h107v402l-107 108v-510zM385 270h137v400h-137v-400zM522 973v45h-479l20 -21h435v-2h2zM211 66l27 -27h18l-23 22l-22 21v-16zM580 39v20h-334l20 -20 h314zM754 741v43h-131l22 -20h84h2h2zM211 270h20v402l-20 20v-422zM168 270l-21 21h-75l20 -21h76zM37 270h45l-23 23q0 2 -2 2v696l-20 21v-742zM174 508v18l-27 27h-18l23 -23zM139 532l-22 23v2v201l-23 22v-450h23v198q0 4 4 4h18zM117 784h-17l17 -14v14zM174 670h-14 l14 -17v17zM154 664v-105l20 -20v104zM174 276v222l-20 20v-221zM94 823h45l-22 21v2v2v84l-23 22v-131zM231 682v18l-26 27h-17zM174 874l-20 21v-45l20 -23v47zM129 844l23 -23l22 -22v18l-27 27h-18zM231 713v104l-20 21v-105zM696 901h-536l20 -20h516v20zM154 707h43 l-21 22h-2v2v57l-20 21v-102zM555 823l2 -2h2l21 -22v20q0 4 4 4h170v21h-537l21 -21h317zM559 809v-479h45l-22 20v2h-2v2v434zM633 330l-21 20h-18l20 -20h19zM696 334v366l-20 21v-365zM696 727h-14l14 -14v14zM653 350l21 -20h16l-20 20h-17zM639 758l-21 22v-424 l27 -26h17l-23 20v2v2v404zM733 297l21 -21v453l-21 21v-453zM676 156h20v22l-20 21v-43zM696 209q0 4 4 4h54v20h-131l22 -20h27h2v-2l22 -21v19zM618 182l21 -22v47l-21 20v-45zM516 938l-20 20h-396l21 -20h395zM565 291l21 -21h164l-23 21h-162zM188 176l21 -20h424 l-21 20h-424zM129 117l23 -21h55h2h2l20 -22v18q0 4 5 4h403v21h-510zM129 59l23 -20h75l-22 20h-76zM545 938l-21 23l-22 22v-18l26 -27h17zM559 240l21 -21v45l-21 23v-47zM594 958l20 -20h25v20h-45zM575 938l-22 20h-16l20 -20h18zM43 233l20 -20h27h2h2v-2l23 -21v19 q0 4 4 4h29h2v-2l22 -21v19q0 4 4 4h397l-22 20h-510zM580 1020l-21 20v-75l27 -27h18l-22 23v2h-2v57zM139 -106l-108 108h-17l21.5 -21.5t36 -37t34.5 -34.5l15 -15h18zM145 -84l-86 86v2h-2v2v201l-20 20v-221l108 -106v16zM152 -78q29 -29 28 -28h539l-107 108h-540z M897 63l-109 111l-170 -168l111 -110z" />
<glyph unicode="E" d="M885 903l22 -22v-2v-205v-2h-2v-2h-2h-76l80 -80v-2v-262v-2h-2v-2h-2h-518v-50h403h3v-2l116 -114v-4v-261v-2q0 -2 -2 -2h-2h-725h-2l-22 23v-19v-2l-2 -2h-2h-29h-4l-115 117h-2v2v1047q0 4 4 4h784q0 -2 3 -2l116 -117v-2v-29v-2v-2h-2h-2h-18zM899 934l-15 16 q-16 15 -34.5 34.5t-35.5 36.5l-21 21v-18l15 -16q15 -15 33.5 -34.5t36 -35.5t21.5 -20v16zM502 983v-74l26 -26h17l-21 20l-2 2v2v56zM893 330l-107 108h-512l109 -108h510zM94 403v-364h45l-22 22v2v3v317zM154 403v-305h20v285zM754 74v45h-508l20 -21h463h2v-2h2z M256 98l-23 23h-2v2v27l-20 22v-74h45zM754 156v20h-537l21 -20h516zM256 215l-23 21v2h-2v2v198h-20v-223h45zM733 66l21 -21v18l-21 21v-18zM754 236h-508l20 -21h488v21zM129 61l23 -22h598l-23 22h-598zM465 961h-16l16 -15v15zM618 909l27 -26h17l-23 20v2v2v27l-21 20 v-45zM754 961h-15l15 -15v15zM733 954v-45l21 -22v47zM711 903l20 -20h19l-23 20h-16zM696 961h-14l14 -15v15zM676 954v-45l26 -26h17l-21 20l-2 2v2v27zM653 903l21 -20h16l-20 20h-17zM639 961h-16l16 -15v15zM565 961l15 -15v15h-15zM594 903l20 -20h19l-21 20h-18z M479 844l21 -21h254v21h-275zM406 961h-15l15 -15v15zM385 954v-104l27 -27h18l-22 23v2h-2v86zM401 823l-22 21h-17l21 -21h18zM371 823l-21 23h-2v2v143l-20 23v-164l26 -27h17zM342 823l-20 21h-17l21 -21h16zM291 1018h-131l20 -21h27h2h2l20 -22v18q0 4 5 4h30h2 l23 -22v43zM231 883v80l-20 20v-100h20zM217 844l14 -15v15h-14zM211 559l20 -20v278l-20 23v-281zM270 823h43l-22 23v2v115l-21 20v-160zM348 1018h-14l14 -14v14zM37 532h45l-23 23v2h-2v2v432l-20 23v-482zM57 1018h-14l14 -14v14zM111 532l-21 23h-18l20 -23h19z M139 532l-22 23v2v2v432l-23 23v-455l27 -27h18zM117 1018h-17l17 -14v14zM168 532l-21 23h-18l23 -23h16zM180 532h17l-21 23h-2v2v2v432l-20 23v-455zM270 502l27 -27h16l-22 23v2v143l-21 21v-162zM328 592h43l-21 22h-2v2v27l-20 21v-72zM696 670h-362l20 -21h318h2 l22 -22v43zM672 532h2l22 -22v18l-26 27h-336l20 -23h318zM328 532h14l-14 17v-17zM676 635v-17l26 -26h17zM672 592h2v-2l22 -23v19l-26 26h-308l21 -20h289zM719 532l-21 23l-22 23v-19l26 -27h17zM754 532v23h-43l20 -23h23zM719 475l-21 23l-22 22v-18l26 -27h17z M754 475v21h-43l20 -21h23zM754 670h-15l15 -15v15zM733 664v-46l21 -20v45zM711 612l20 -20h19l-23 20h-16zM305 496l21 -21h342h6h-2h18l-20 21h-365zM674 473v2v-2zM291 670h-17l17 -15v15zM676 473v-2v2zM459 823l-21 21h-18l20 -21h19zM231 510v18l-26 27h-17l23 -23z M246 496l20 -21h19l-21 21h-18zM559 909l27 -26h18l-22 20v2h-2v2v27l-21 20v-45zM487 883l-22 20v2v2v27l-21 20v-104l27 -27h16l-22 23v2v31q0 4 4 4h18zM211 502l27 -27h18l-45 45v-18zM537 903l20 -20h18l-22 20h-16zM516 883l-20 20h-17l21 -20h16zM385 997h16l-16 17 v-17zM43 496l20 -21h142h4h-2h20l-22 21h-162zM72 438l45 -45v21q0 4 4 4h29h2v-2l22 -23v45h-102zM342 707l-72 73v-73h72zM139 -104q-4 4 -21.5 21t-37 35.5t-34.5 33.5l-15 16h-17l107 -106h18zM145 -82l-86 86l-2 2v408q0 4 4 4h21l-23 20v2h-2v2v27l-20 20v-481 l108 -108v18zM72 2l21.5 -21.5t37 -36t34.5 -33.5l15 -15h713l-107 106h-714zM899 150l-15 15q-16 15 -34.5 34.5t-35.5 37t-21 21.5v-250l106 -108v250zM377 272v52l-107 108v-160h107zM899 586l-15 15q-16 15 -34.5 34.5t-35.5 37t-21 21.5v-250l106 -108v250zM819 678h74 l-107 108h-512l80 -79h434h3zM872 903l-79 80v-190l106 -109v193zM877 911h16l-107 107h-395l21 -21h86h2l22 -22v18q0 4 4 4h262h3z" />
<glyph unicode="F" d="M885 842l22 -23v-2v-145v-2v-2h-2h-2h-76l80 -80v-4v-260v-2l-2 -3h-2h-518v-432v-2h-2v-2h-2h-203q-2 0 -2 2l-22 23v-21v-2h-2q0 -2 -2 -2h-29q-2 0 -4 2l-115 117h-2v2v1045q0 2 2 4h2h258h4h522h3l116 -117v-4v-86v-2v-2h-2h-2h-18zM100 1016l21 -21h377h2v-2l22 -22 v20q0 4 4 4h228v21h-654zM690 821l-20 21h-598l22 -23l23 -22v20q0 4 4 4h569zM270 705h72l-72 73v-73zM231 739v45h-71l20 -22h27h2h2zM211 750v-45h20v22zM117 786l-23 21v-102h45l-22 22v2v57zM152 705h16l-21 20h-18zM174 711v47l-20 20v-47zM702 821h17l-43 43v-16z M731 821h23v21h-43zM754 879v20h-625l23 -20h520h2l22 -23v18q0 4 4 5h54zM465 936v22h-336l23 -22h313zM545 936l-21 22l-22 23v-45h43zM94 879h45l-22 22v2v29q0 4 4 4h18l-22 22v3v2v26l-23 21v-131zM43 1016l14 -15v15h-14zM139 -109l-108 109h-17l21.5 -21.5t36 -37 t34.5 -35.5l15 -15h18zM145 -84l-86 86h-2v2v639q0 4 4 4h29h2q0 -2 2 -2l23 -22v20q0 4 4 4h633v21h-693q-4 0 -4 4v145q0 4 4 4h21l-23 23h-2v2v143l-20 21v-1004l108 -108v18zM231 100v19l-26 26h-17zM211 111v-74h20v53zM117 612l-23 21v-596h45l-22 22v2v551zM152 37 h16l-21 20h-18zM174 43v78q0 4 4 4h19l-21 20q-2 0 -2 2v3v434l-20 20v-541zM174 594v16h-14zM231 129v455l-20 20v-452zM238 588h28h2l23 -23v45h-74zM270 473h43l-22 21v2v2v55l-21 22v-102zM326 473h424l-23 21h-422zM348 584l-20 20v-74h43l-21 23h-2v2v29zM754 479v17 l-21 20v-16zM754 508v43h-392l21 -21h346h2q2 0 2 -2zM754 588v22h-420l20 -22h400zM371 -109l-107 109h-192l80 -80l28 -29h191zM377 322l-107 108v-424l107 -108v424zM893 328l-107 108h-512l109 -108h510zM793 690v-250l106 -106v250zM893 676l-107 108h-512l80 -79h434 h3l28 -29h74zM793 924v-136l106 -106v133zM893 850l-107 108h-249l20 -22h231h3l86 -86h16zM899 932l-106 106v-75l106 -107v76z" />
<glyph unicode="G" d="M903 670h-76l80 -80v-4v-144v-2v-2h-2h-2h-18l22 -22v-4v-523v-2h-2v-2h-2h-725q-2 0 -2 2l-22 23v-21q0 -2 -2 -2l-2 -2h-29q-2 0 -2 1t-2 1l-115 117h-2v2v1045q0 4 4 4h784h3l116 -117v-2v-262v-2l-2 -2h-2zM793 1040v-249l106 -107v250zM754 625v45h-246l20 -21h27h2 v-2h2l21 -22v20q0 4 4 4h145h2v-2h2zM94 983v-944h45l-22 22v2v900zM154 983v-770h43l-21 23h-2v2v725zM733 983v-160h21v140zM559 635v-45h45l-22 22zM690 823l-20 21h-424l20 -21h424zM231 961h-14l14 -17v17zM270 881h43l-22 22v2v29l-21 20v-73zM696 901h-391l21 -20 h346h2l22 -23v43zM696 940v21h-422l23 -21h399zM696 829v17l-20 20v-16zM211 240l27 -27h18l-23 23l-2 2v581q0 4 5 4h20l-23 23h-2v2v86l-20 20v-714zM385 475h45l-22 23h-2v2v143l-21 21v-189zM618 518v-188h21v168zM676 578v-248h43l-21 22h-2v2v201zM754 74v45h-566 l21 -21h520l2 -2h2zM555 475q4 0 4 -4v-199h45l-22 21v2h-2v2v199h-160l20 -21h115zM754 496h-21v-140l21 -20v160zM711 350l20 -20h19l-23 20h-16zM197 98l-21 21q-2 0 -2 2v2v27l-20 20v-72h43zM618 156h15l-15 14v-14zM750 156l-23 20h-104l22 -20h105zM580 176h-420 l20 -20h400v20zM754 162v16l-21 21v-17zM733 240l21 -21v19l-21 20v-18zM754 293h-160l20 -21h115h2v-2h2l21 -22v45zM246 233l20 -20h463h2h2l21 -23v17l-27 26h-481zM487 532l-22 23v2v57l-21 21v-103h43zM465 670h-74l21 -21h28h2v-2l23 -22v45zM733 66l21 -21v18l-21 21 v-18zM594 612l20 -22h58h2l22 -23v45h-102zM537 553l20 -21h57h2l23 -22v43h-102zM516 532l-20 21h-17l21 -21h16zM188 233l21 -20h18l-22 20h-17zM129 59l23 -20h598l-23 20h-598zM522 643l-20 21v-105l26 -27h17l-21 23h-2v2v86zM362 438l109 -108h51v108h-160zM385 403 v-131h137v50h-53h-4zM43 1018l20 -21h27h2h2v-2l23 -20v18q0 4 4 4h29h2v-2l22 -20v18q0 4 4 4h551h2q0 -2 2 -2l21 -20v43h-711zM778 532l-22 23v2h-2v57l-21 21v-103h45zM348 700l-78 80v-508h107v140l-27 26h-2v2v2v258zM139 -106l-108 108h-17l21.5 -21.5t36 -37 t34.5 -34.5l15 -15h18zM145 -82l-86 86h-2v2v985l-20 21v-1004l108 -108v18zM180 -106h713l-107 108h-20h-25h-20h-25h-20h-25h-14h-31h-12h-33h-12h-33h-6h-39h-10h-37h-4h-41h-10h-35h-4h-41h-6h-39h-6h-39h-9h-36h-4h-44h-6h-28zM872 438q-23 23 -48 48.5t-31 31.5v-510 l106 -108v512zM877 446h16l-107 107h-18l23 -21zM793 692v-133l106 -108v135zM819 678h74l-107 108h-512l80 -79h434h3z" />
<glyph unicode="H" d="M903 494h-18l22 -23v-2v-582v-2h-2v-2h-2h-260q-2 0 -4 2l-115 117h-2v2v315h-137v-432v-2h-2v-2h-2h-203q-2 0 -2 2l-22 23v-21v-2h-2q0 -2 -2 -2h-29q-2 0 -4 2l-115 117h-2v2v1045q0 4 4 4h262h2l117 -117v-4v-227h137v344q0 4 4 4h262h3l116 -117v-4v-434v-2l-2 -2 h-2zM899 932l-106 106v-424l106 -106v424zM377 322l-107 108v-424l107 -108v424zM211 459v-19l20 -20v18zM676 111v-74h20v53zM733 111v-74h21v53zM739 551l15 -14v14h-15zM733 152l21 -23v395l-21 21v-393zM94 37h23v84q0 4 4 4h18l-22 20v2v3v260l-23 20v-393zM117 436 h-17l17 -16v16zM154 37h20v53l-20 21v-74zM174 100v19l-27 26h-18l23 -22zM174 410l-20 20v-278l20 -23v281zM211 401v-364h20v342zM231 410l-26 26h-45l20 -22h27h2h2l20 -23v19zM639 971v45h-74l21 -21h28h2v-2zM750 647l-23 21h-16l20 -21h19zM676 647h43l-43 43v-43z M754 653v336l-21 21v-336zM754 1016h-15l15 -15v15zM676 731l20 -20v278l-20 21v-279zM696 1016h-14l14 -15v15zM559 674l21 -21v336l-21 21v-336zM522 530v21h-160l21 -21h139zM348 584l-20 20v-74h43l-21 23h-2v2v29zM555 588h2h2l21 -23v45h-246l20 -22h201zM559 37h45 l-22 22v2h-2v492l-21 22v-538zM633 37l-21 20h-18l20 -20h19zM653 725l43 -43v16l-26 27h-17zM274 668l23 -21h278l-22 21h-279zM305 494l21 -21h196v21h-217zM662 125l-23 20v2v3v550q0 4 4 5h19l-23 22v2v232l-21 20v-918l21 -20v78q0 4 4 4h19zM94 705h23v53q0 4 4 4h18 l-22 22v2v2v27l-23 21v-131zM174 1016h-14l14 -15v15zM168 530l-21 21h-18l23 -21h16zM94 530h45l-22 23v2v86l-23 21v-132zM117 842h-17l17 -15v15zM211 864v-76l20 -20v76zM174 842h-14l14 -15v15zM129 784l45 -45v19l-27 26h-18zM174 610h-14l14 -16v16zM100 668l21 -21 h47l-21 21h-47zM174 653v74l-20 23v-76zM174 537v47l-20 20v-47zM197 762l-21 22q-2 0 -2 2v2v27l-20 21v-48l26 -26h17zM211 530h20v197l-20 23v-220zM231 739v19l-26 26h-17zM231 1016h-14l14 -15v15zM211 1010v-105l20 -20v104zM188 899l43 -43v16l-26 27h-17zM154 905 l26 -26h17l-21 22h-2v2v86l-20 21v-105zM100 1016l17 -15v15h-17zM129 899l23 -20h16l-21 20h-18zM94 905l27 -26h18l-22 22v2v86l-23 21v-105zM270 500l27 -27h16l-22 21v2v2v143l-21 21v-162zM711 145l22 -22l21 -23v19l-27 26h-16zM696 119l-26 26h-17l43 -45v19z M43 1016l14 -15v15h-14zM72 899l20 -20h19l-21 20h-18zM72 494l20 -21h115h2v-2h2l20 -22v20q0 4 5 4h49l-21 21h-192zM696 584l-20 20v-452l26 -27h17l-21 20l-2 2v3v434zM270 1038v-333h107v227zM139 -109l-108 109h-17l21.5 -21.5t36 -37t34.5 -35.5l15 -15h18zM145 -84 l-86 86h-2v2v465q0 4 4 4h21l-23 21v2h-2v2v376q0 4 4 5h21l-23 22l-2 2v86l-20 21v-1004l108 -108v18zM180 -109h191l-107 109h-192zM522 328v108h-248l109 -108h139zM645 -109h248l-107 109h-249zM872 494q-23 23 -48 49t-31 32v-569l106 -108v569zM877 502h16l-107 108 h-104l20 -22h86h3z" />
<glyph unicode="I" horiz-adv-x="487" d="M362 901l23 -22v-2v-988q0 -4 -4 -4h-203q-2 0 -2 2l-22 21v-19v-2h-2v-2h-2h-29q-2 0 -4 2l-115 115l-2 2v2v1045q0 4 4 4h262q2 0 2 -2l117 -115v-4v-29v-2h-2v-2h-2h-19zM377 934l-15 16q-16 15 -35.5 33t-36 35.5t-20.5 21.5v-16l16 -16q15 -15 33.5 -34.5t36 -36.5 t21.5 -22v19zM154 983v-367l20 -20v367zM231 510v16l-26 27h-51v-430l20 -21v426q0 4 4 4h29h2l2 -2zM117 961h-17l17 -17v17zM231 961h-14l14 -17v17zM211 954v-395l20 -20v395zM129 119l23 -23h16l-21 23h-18zM139 590l-22 22v2v320l-23 20v-858h45l-22 23v2v2v463 q0 4 4 4h18zM211 66l20 -21v453l-20 20v-452zM168 590l-21 20h-18l23 -20h16zM43 1018l14 -14v14h-14zM72 59l20 -20h135l-22 20h-133zM111 997l-17 15v-15h17zM139 -106l-108 108h-17l21.5 -21.5t36 -37t34.5 -34.5l15 -15h18zM145 -84l-86 86v2h-2v2v29q0 4 4 4h21l-23 22 h-2v2v928l-20 21v-1004l108 -108v16zM377 874l-15 16q-16 15 -35.5 34.5t-36 37t-20.5 21.5v-977q0 -4 -4 -4h-194l108 -108h197v980zM354 909h17l-107 109h-164l21 -21h29h2v-2l22 -22v20q0 4 4 4h88v-2h2z" />
<glyph unicode="J" d="M907 -115h-2v-2h-2h-29l-2 2l-22 23v-21v-2h-2h-2v-2h-725q-2 0 -2 1t-2 1l-115 117h-2v2v522q0 4 4 4h19l-21 23h-2v2v145q0 4 4 5h78l-80 79q-2 0 -2 2v2v261q0 4 4 4h784h3l116 -117v-2v-1047v-2zM899 932l-15 16q-16 15 -34.5 34t-35.5 36.5t-21 21.5v-1034l106 -108 v1034zM444 690v-248l78 -80v250zM618 981v-743l21 -21v744zM676 981v-918l20 -20v918zM211 633v-17l20 -22v18zM270 633v-76l27 -27h16l-22 23v2v57zM37 328h45l-23 22h-2v2v115l-20 20v-159zM580 799v16l-27 27h-424l23 -21h403h2l2 -2zM37 154h45l-23 22h-2v2v29q0 4 4 4 h21l-23 22v3h-2v2v26l-20 21v-131zM231 467l-20 20v-190l20 -21v191zM43 291l20 -21h164l-22 21h-162zM238 473h163l-22 21h-162zM174 524l-20 23v-219h20v196zM117 584l-23 20v-250l23 -20v250zM72 348l20 -20h19l-21 20h-18zM639 100v19l-21 20v-16zM639 174h-422l21 -20 h376h2v-2l23 -21v43zM211 168v-14h16zM72 174l20 -20h82v20h-102zM43 117l20 -21h570l-21 21h-569zM575 211l-22 22h-481l20 -22h483zM94 938h17l-17 14v-14zM100 899l21 -20h395l-20 20h-396zM522 885v18l-20 21v-19zM522 958h-422l21 -20h377h2v-2l22 -23v45zM94 821h45 l-22 23v2v26l-23 23v-74zM580 958h-15l15 -16v16zM559 952v-104l21 -21v105zM406 479v133l-21 21v-133zM406 668h-72l20 -21h27h2l2 -2l21 -20v43zM328 662v-105l20 -20v104zM305 551l21 -21h16l-20 21h-17zM285 530l-21 21h-104l20 -21h105zM227 590l-22 20h-105l21 -20 h106zM57 494h-14l14 -15v15zM82 37l-23 22v2h-2v29l-20 21v-74h45zM604 211l-22 22v3h-2v2v548l-21 21v-569l27 -27h18zM522 319h-137v-49h133h4v49zM377 322l-107 108v-160h107v52zM690 37l-20 20h-598l20 -20h598zM633 211l-21 22h-18l20 -22h19zM522 350l-84 86h-164 l109 -108h139v22zM43 668l20 -21h144h2l2 -2l20 -20v18q0 4 5 4h30h2v-2l23 -20v43h-248zM57 989l-20 21v-189h20v168zM37 557l20 -20v104l-20 21v-105zM754 973v43h-711l20 -21h551h2v-2l23 -20v18q0 4 4 4h29h2v-2l22 -20v18q0 4 4 4h29h2l2 -2zM92 705h348h2l80 -80v159 h-508zM35 530h16l-20 21h-17zM836 -109l-21.5 21.5t-36 37t-34 35t-17.5 15.5h-713l21.5 -21.5l36 -36t34 -33.5t15.5 -18h715zM842 -84l-86 86v2h-2v957l-21 20v-975l109 -108v18zM848 -80l29 -29h16l-107 109h-18z" />
<glyph unicode="K" d="M907 494l-84 -84l84 -84v-2v-58v-2v-2h-2h-2h-18l22 -22v-4v-349q0 -4 -4 -4h-260q-2 0 -4 2l-115 117h-2v2v287h-137v-404v-2h-2v-2h-2h-203q-2 0 -2 2l-22 23v-21v-2h-2l-2 -2h-29q-2 0 -4 2l-115 117h-2v2v1045q0 4 4 4h262h2l117 -117v-2v-258h82l55 55v318q0 4 4 4 h262h3l116 -117v-2v-436v-2v-2zM899 932l-106 106v-424l106 -106v424zM733 342v-305h21v285zM377 293l-107 108v-395l107 -108v395zM94 430v-393h45l-22 22v2v349zM94 836v-277h45l-22 23v2v231zM305 580l21 -21h196v21h-217zM522 639h-276l45 -45v20q0 4 4 4h227v21z M154 618h43l-21 21q-2 0 -2 2v2v143l-20 21v-189zM227 618l-22 21h-17l21 -21h18zM256 618l-23 21v2h-2v2v115l-20 20v-133l27 -27h18zM231 813h-71l20 -20h27h2v-2h2l20 -23v45zM270 586l27 -27h16l-43 45v-18zM174 1016h-14l14 -15v15zM94 907h45l-22 23v2v2v55l-23 21 v-103zM117 1016h-17l17 -15v15zM168 907l-21 23h-18l23 -23h16zM197 907l-21 23h-2v2v2v55l-20 21v-76l26 -27h17zM231 1016h-14l14 -15v15zM211 934l20 -21v76l-20 21v-76zM231 885v18l-26 27h-17zM129 580l23 -21h133l-21 21h-135zM618 807v-367l21 -20v366zM733 981v-16 l21 -23v19zM733 647h21v139l-21 21v-160zM754 797v18l-27 27h-45l20 -21h27h2v-2h2zM618 401v-307h21v285zM696 879v20h-43l21 -20h22zM639 932l-21 20v-73h44l-23 22v2v29zM733 848l21 -21v76l-21 21v-76zM754 932l-27 26h-104l22 -20h84l2 -2h2l21 -23v19zM676 588h20v227 l-20 21v-248zM565 436l21 -22h28h2l23 -23v19l-27 26h-47zM565 1016l21 -21h143h2q0 -2 2 -2l21 -20v43h-189zM594 842l22 -23l23 -22v45h-45zM604 37l-22 22v2h-2v349l-21 20v-393h45zM211 877l20 -21v16l-20 23v-18zM559 528l21 -20v309q0 4 4 4h20l-22 23q-2 0 -2 2v143 l-21 21v-482zM231 362v44h-71l20 -21h27h2h2zM154 94h20v285l-20 22v-307zM211 63l20 -20v307l-20 21v-308zM129 57l23 -20h75l-22 20h-76zM690 37l-20 20h-76l20 -20h76zM682 436l14 -16v16h-14zM43 1016l14 -15v15h-14zM72 870l22 -22l23 -21v19q0 4 4 4h106l-22 20h-133z M72 522l20 -20h483l-22 20h-481zM72 465l22 -23l23 -22v20q0 4 4 4h401v21h-450zM719 356l-21 23h-2v2v29l-20 20v-367l20 -20v309q0 4 4 4h19zM377 932l-107 106v-362h107v256zM139 -109l-108 109h-17l21.5 -21.5t36 -37t34.5 -35.5l15 -15h18zM145 -84l-86 86h-2v2v436 q0 4 4 4h21l-23 21v2h-2v2v29q0 4 4 4h21l-23 22h-2v2v320q0 4 4 4h21l-23 22h-2v2v115l-20 21v-1004l108 -108v18zM180 -109h191l-107 109h-192zM522 299v51l-55 56h-193l109 -107h139zM899 236l-106 106v-338q0 -4 -5 -4h-251l108 -109h254v345zM877 270h16l-107 107h-75 l43 -43v18q0 4 4 4h30h3v-2zM899 322l-13 14q-14 14 -31 31.5t-35.5 35t-26.5 27.5v-47l106 -109v48zM817 416q4 6 16.5 17t24.5 24.5t23.5 25l15.5 15.5l-109 110l-81 -82l84 -84z" />
<glyph unicode="L" d="M907 -113q0 -2 -2 -2h-2h-725h-2l-22 23v-19v-2h-2v-2h-2h-29h-4l-115 117q-2 0 -2 2v2v1045q0 4 4 4h262v-2h2l117 -117v-2v-664h287h2v-2l22 -20v18q0 4 4 4h88h3v-2l116 -114v-4v-261v-2zM899 150l-106 106v-250l106 -106v250zM94 983v-102h23v80zM211 983v-18l20 -21 v17zM328 199v-103h43l-21 23h-2v2v57zM211 924v-103h20v82zM754 74v16l-27 27h-16l22 -23zM696 131v45h-305l21 -22h260h2zM385 154h16l-16 16v-16zM754 233h-15l15 -14v14zM733 227v-104l21 -21v105zM676 123l26 -27h17l-21 23l-22 22v-18zM733 66l21 -21v16l-21 21v-16z M727 59h-481l20 -20h484zM256 39l-23 20l-22 23v-16l27 -27h18zM227 39l-22 20h-76l23 -20h75zM231 784h-14l14 -14v14zM160 784l14 -14v14h-14zM197 96l-21 23h-2v2v637l-20 20v-682h43zM211 123l20 -21v656l-20 20v-655zM168 821l-21 23h-22h-6h2h-21l21 -23h47zM117 846 v2v-2zM94 39h45l-22 20v2v2v754l-23 21v-799zM231 74v16l-26 27h-17l23 -23zM174 932l-20 20v-104l20 -21v105zM362 117l21 -21h307l-20 21h-308zM231 932l-26 26h-45l20 -20h27h2l2 -2l20 -21v17zM291 207l-21 20v-131h21v111zM690 213l-20 20h-396l23 -20h27h2v-2l22 -23 v21q0 4 4 4h338zM43 1018l20 -23h27h2h2l23 -22v18q0 4 4 4h86h2h2l20 -22v45h-188zM696 236l-20 20v-16l20 -21v17zM377 932l-13 14q-14 15 -31.5 32t-35.5 34.5t-27 27.5v-770h107v662zM139 -106q-4 4 -21.5 21t-37 35.5t-34.5 34t-15 17.5h-17l21.5 -21.5t36 -37 t34.5 -34.5l15 -15h18zM145 -84l-86 86v2h-2v2v985l-20 21v-1006l108 -106v16zM180 -106h713l-107 108h-714z" />
<glyph unicode="M" horiz-adv-x="1531" d="M1430 934v-1047v-2h-3v-2h-2h-143q-2 0 -2 1t-2 1l-23 23v-21v-2h-2q0 -2 -2 -2h-86q-2 0 -2 1t-2 1l-114 117h-3v2v635h-137v-752q0 -4 -4 -4h-260q-2 0 -2 1t-2 1l-115 117h-2v2v635h-137v-752v-2h-2v-2h-2h-203q-2 0 -2 2l-22 23v-21q0 -2 -2 -2h-2v-2h-29q-2 0 -2 1 t-2 1l-115 117h-2v2v1045q0 4 4 4h1307h2l117 -117v-2zM1421 932l-13 14q-13 15 -30.5 32t-36 34.5t-26.5 27.5v-1034l106 -108v1034zM1161 246v18l-26 27h-19zM377 641l-107 135v-770l107 -108v743zM94 750v-713h23v518q0 4 4 4h18l-22 23v2v2v143zM676 807v-16l20 -23v18z M1104 856v18q0 4 4 5h29h2l22 -23v18q0 4 4 5h86h2h2l23 -23v16l-27 27h-458v-20h81h3h2l20 -23v18q0 4 4 5h174h2h2zM160 725l14 -14v14h-14zM154 586l20 -21v133l-20 23v-135zM211 37h20v430l-20 20v-450zM231 479v17l-26 26h-45l20 -20h27h2l2 -2zM211 528l20 -20v190 l-20 23v-193zM231 725h-14l14 -14v14zM154 37h20v459l-20 20v-479zM129 582l23 -23h16l-21 23h-18zM1141 864v-43h43l-23 23zM1255 864v-801l23 -20v801zM879 864v-16l26 -27h19l-23 23zM633 37l-21 20h-18l20 -20h19zM639 43v655l-21 23v-658zM639 725h-16l16 -14v14z M580 758l-21 20v-741h45l-22 22v2h-2v697zM676 750v-713h43l-21 22h-2v2v668zM1278 913v45h-713l21 -20h665h2v-2h2zM750 37l-23 20h-16l20 -20h19zM285 879l-21 20h-221l20 -20h222zM37 938h45l-23 20v3h-2v2v26l-20 21v-72zM754 899h-160l20 -20h115h2h2l21 -23v43z M580 932l-21 20v-47l27 -26h18l-22 22v2h-2v29zM575 879l-22 20h-248l21 -20h249zM313 879l-22 22l-21 23v-19l27 -26h16zM72 958l20 -20h174v-2h2l23 -23v21q0 4 4 4h227v20h-450zM1278 995v21h-1235l20 -21h1215zM37 879h14l-14 16v-16zM754 43v801l-21 20v-801zM793 821 h100l-21 21h-79v-21zM913 842l21 -21h110v21h-131zM1255 905l23 -20v18l-23 21v-19zM1272 37l-21 20h-18l20 -20h19zM1176 842l20 -23l23 -20v43h-43zM1198 37h45l-22 22l-2 2v725l-21 21v-770zM696 758l-26 26h-105l21 -20h86q2 0 2 -2l22 -23v19zM1147 784l14 -16v16h-14z M1126 270l-22 21v2v2v549l-23 20v-567v-4v2v-258h23v229q0 4 4 4h18zM1141 297l20 -21v482l-20 20v-481zM61 842h-18l20 -21h609h2v-2l22 -20v43h-633h-4h2zM72 784l45 -45v21q0 4 4 4h110v20h-159zM139 -109l-20.5 20.5t-33.5 35t-33.5 34t-20.5 19.5h-17q8 -10 26.5 -27.5 t36 -35l31.5 -31.5l13 -15h18zM145 -84l-86 86h-2v2v756q0 4 4 4h21l-23 20v2h-2v2v27l-20 21v-830l108 -108v18zM180 -109h191l-107 109h-192zM522 647v137h-248l109 -137h139zM899 -109v750l-106 135v-772q0 -4 -5 -4h-251l108 -109h254zM1044 647v137h-247l108 -137h139z M1243 -109l-108 109h-76l108 -109h76zM1247 -84l-86 86v2v232l-20 20v-250l106 -108v18zM1282 -109h135l-108 109h-133z" />
<glyph unicode="N" d="M885 899l22 -20v-5v-987v-2h-2v-2h-2h-260q-2 0 -4 2l-115 117h-2v2v635h-137v-752v-2h-2v-2h-2h-203q-2 0 -2 2l-22 23v-21v-2h-2q0 -2 -2 -2h-29q-2 0 -4 2l-115 117h-2v2v1045q0 4 4 4h784h3l116 -117v-4v-29v-2q-2 0 -2 -2h-2h-18zM793 1038v-16q4 -4 19 -20.5 t33.5 -34t34 -33.5t19.5 -21v19zM377 641l-107 135v-770l107 -108v743zM94 750v-713h23v518q0 4 4 4h18l-22 23v2v143zM676 807v-19l20 -20v18zM270 924v-19l27 -26h16l-22 22zM211 37h20v430l-20 20v-450zM231 479v17l-26 26h-45l20 -20h27h2q0 -2 2 -2zM211 528l20 -20 v190l-20 21v-191zM231 725h-14l14 -14v14zM154 37h20v459l-20 20v-479zM160 725l14 -14v14h-14zM154 586l20 -21v133l-20 21v-133zM129 580l23 -21h16l-21 21h-18zM676 750v-19l20 -20v16zM37 879h14l-14 14v-14zM559 905l27 -26h18l-22 22v2h-2v29l-21 20v-47zM750 37 l-23 20h-16l20 -20h19zM633 37l-21 20h-18l20 -20h19zM639 43v655l-21 21v-656zM672 705h2l22 -23v16l-26 27h-47l22 -20h27zM594 899l20 -20h115h2h2l21 -23v43h-160zM729 842h2h-2zM676 690v-653h43l-21 22h-2v2v609zM754 43v801l-21 20v-14v-6v2v-783zM754 958h-189 l21 -22h168v22zM580 758l-21 20v-741h45l-22 22v2h-2v697zM305 899l21 -20h249l-22 20h-248zM285 879l-21 20h-221l20 -20h222zM696 758l-26 26h-105l21 -22h86h2l22 -23v19zM72 958l20 -22h174h2l23 -23v19q0 4 4 4h227v22h-450zM61 842h-18l20 -21h578h4h-2h29h2v-2 l22 -22v45h-633h-4h2zM72 784l45 -45v19q0 4 4 4h110v22h-159zM57 989l-20 21v-74h45l-23 22v3h-2v2v26zM139 -109l-20.5 20.5t-33.5 35t-33.5 34t-20.5 19.5h-17q8 -10 26.5 -27.5t36 -35l31.5 -31.5l13 -15h18zM145 -84l-86 86h-2v2v754q0 4 4 4h21l-23 22v2h-2v2v27 l-20 21v-830l108 -108v18zM180 -109h191l-107 109h-192zM522 647v137h-248l109 -137h139zM645 -109h248l-107 109h-249zM899 872l-106 109v-975l106 -108v974zM877 907h16l-107 109h-743l20 -21h725h3v-2z" />
<glyph unicode="O" d="M903 899h-18l22 -20v-5v-987v-2h-2v-2h-2h-725q-2 0 -2 2l-22 23v-21q0 -2 -2 -2l-2 -2h-29q-2 0 -2 1t-2 1l-115 117h-2v2v1045q0 4 4 4h784h3l116 -117v-2v-31v-2h-2v-2h-2zM899 932l-106 106v-16l106 -109v19zM94 981v-160h45l-22 23v2v115zM154 981v-102h43l-21 22 h-2v2v58zM618 750v-570l21 -20v569zM211 750v-455q0 -4 -4 -4h-170v-21h194v459zM754 37v20h-625l23 -20h602zM238 821h434h2v-2l22 -20v18q0 4 4 4h29h2q0 -2 2 -2l21 -20v43h-537zM154 139v-43h43l-21 21zM676 807v-653h20v632zM188 117l21 -21h541l-23 21h-539zM754 100 v686l-21 21v-684zM633 154l-21 20h-512l21 -20h29h2v-2l22 -21v19q0 4 4 4h455zM94 37h45l-22 22v2v86l-23 21v-131zM211 791l20 -23v47l-20 21v-45zM160 725l14 -14v14h-14zM154 354l20 -20v364l-20 23v-367zM217 958l21 -22h516v22h-537zM246 899l20 -20h488v20h-508z M100 784l21 -20h86l2 -2h2l20 -23v19l-26 26h-105zM129 348l23 -20h16l-21 20h-18zM270 270h107v400l-107 108v-508zM385 270h137v398h-137v-398zM522 676v108h-248l109 -108h139zM565 784l21 -20h28v-2h2l23 -23v45h-74zM211 905l27 -26h18l-23 22q0 2 -2 2v29l-20 20v-47z M94 354l27 -26h18l-22 22v2v406l-23 20v-424zM559 238l21 -21v541l-21 20v-540zM188 899l21 -20h18l-22 20h-17zM129 842l23 -21h22v21h-45zM72 348l20 -20h19l-21 20h-18zM43 231l20 -20h512l-22 20h-510zM57 989l-20 21v-682h45l-23 22h-2v2v637zM139 -109l-20.5 20.5 t-33.5 35t-33.5 34t-20.5 19.5h-17l107 -109h18zM145 -84l-86 86h-2v2v201l-20 22v-221l108 -108v18zM180 -109h713l-107 109h-714l80 -80zM899 872l-106 109v-975l106 -108v974zM877 907h16l-107 109h-743l20 -21h27h2h2v-2l23 -20v18q0 4 4 4h29h2v-2l22 -20v18q0 4 4 4 h610h3v-2z" />
<glyph unicode="P" d="M885 844l22 -23v-4v-491v-2v-2h-2h-2h-518v-433v-2l-2 -2h-2h-203q-2 0 -2 2l-22 21v-19v-2h-2v-2h-2h-29q-2 0 -4 2l-115 115q-2 0 -2 2v2v1045l2 2q0 2 2 2h258h4h522h3v-2l116 -115v-4v-86v-2v-2h-2h-2h-18zM899 932l-13 14q-14 15 -31 32t-35.5 34.5t-26.5 27.5v-75 q4 -4 19 -19.5t33.5 -34t34 -35t19.5 -20.5v76zM377 -100v424l-107 106v-424zM522 973v20q0 4 4 4h228v21h-654l21 -21h377v-2h2zM94 635v-596h45l-22 22v2v549zM328 635v-103h43l-21 23h-2v2v29q0 4 4 4h19zM94 809v-102h45l-22 22v2v55zM129 958l23 -20h313v20h-336z M559 575v-43h45zM522 612v2v-2zM522 707v77h-248l80 -77h168zM270 707h72l-72 71v-71zM473 879v-2v2zM618 866v-276h21v227q0 4 4 4h19l-23 23zM211 39h20v51l-20 23v-74zM231 102v19l-26 26h-17zM565 844l15 -17v17h-15zM754 524h-15l15 -16v16zM750 473l-23 23h-422 l21 -23h424zM270 473h43l-22 23v2v2v55l-21 20v-102zM733 809v-135l21 -21v133zM733 561h21v51l-21 23v-74zM754 625v18l-27 27h-16zM682 784l14 -14v14h-14zM676 559l20 -20v104q0 4 4 4h19l-21 23l-2 2v2v84l-20 20v-219zM653 844l21 -23h55h2h2l21 -22v45h-101zM594 553 l20 -21h76l-20 21h-76zM231 584l-20 20v-452l20 -21v453zM160 610l14 -14v14h-14zM266 590h2l23 -23v43h-74l21 -20h28zM754 479v19l-21 20v-18zM559 616l21 -20v221l-21 21v-222zM154 66l20 -21v76q0 4 4 4h19l-21 22h-2v3v2v432l-20 20v-538zM129 901l23 -20h313h6h-2h145 h2v-2l23 -23v21q0 4 4 4h111v20h-625zM211 707h20v22l-20 21v-43zM160 784l20 -20h27h2h2l20 -23v43h-71zM154 733l20 -20v45l-20 20v-45zM129 727l23 -20h16l-21 20h-18zM362 610l21 -20h172h2h2l21 -23v17l-27 26h-23q-4 0 -6 2q0 -2 2 -2h-164zM362 553l21 -21h139v21 h-160zM129 59l23 -20h16l-21 20h-18zM117 991l-23 21v-131h45l-22 22v2v29q0 4 4 4h18l-22 23v2v28zM43 1018l14 -17v17h-14zM72 844l22 -23l23 -22v18q0 4 4 4h401v23h-450zM72 670l22 -23l23 -22v18q0 4 4 4h203h2l22 -22v18q0 4 4 4h170v23h-450zM893 330l-107 106h-512 l109 -106h510zM545 938l-43 45v-45h43zM270 1051h-2h2zM139 -106l-108 108h-17l107 -108h18zM145 -84l-86 86v2h-2v2v637q0 4 4 4h21l-23 23v2h-2v2v143q0 4 4 4h21l-23 23v2h-2v2v143l-20 21v-1006l108 -106v16zM180 -106h191l-107 108h-192zM899 817l-27 27l-79 80v-133 l-2 -5q0 2 2 2v-346l106 -108v483zM877 852h16l-107 106h-249l20 -20h231h3z" />
<glyph unicode="Q" horiz-adv-x="1013" d="M1022 -78q2 0 2 -2t-2 -4l-86 -86q-4 -4 -6 0l-197 197v-47l41 -41l17 -17l116 -117q2 0 2 -2t-2 -2l-59 -59q0 -2 -2 -2t-2 2l-117 117l-29 28h-520h-2l-22 23v-19v-2l-2 -2h-2h-29h-4l-115 117h-2v2v1045q0 4 4 4h784h3l116 -117v-2v-899zM676 809v-217h20v196zM94 201 v-162h45l-22 22v2v3v28q0 4 4 4h18l-22 23v2v29q0 4 4 4h18zM754 858v45h-160l20 -22h115h2h2zM231 248v18l-26 27h-76l23 -21h55h2v-2h2zM231 307v43h-43l23 -20zM324 940h2v-2l22 -23v21q0 4 4 4h29h2v-2h2l21 -23v46h-334l20 -21h232zM37 272h20v664q0 4 4 4h21l-23 23 h-2v2v26l-20 21v-740zM676 997h14l-14 15v-15zM377 385v287l-107 108v-508h43l-22 23v2v2zM328 907l20 -20v18l-20 21v-19zM385 926v-45h21v24zM444 983v-133l27 -27h16l-22 23v2v115zM559 809v-453l21 -20v452zM522 678v108h-248l109 -108h139zM459 823l-21 21h-168v-21 h189zM211 809v-420h20v399zM160 844l20 -21h27h2h2l20 -22v43h-71zM197 330l-21 22h-2v2v463l-20 21v-508h43zM385 393l80 80q2 2 4 2l2 -2q12 -12 23 -20q10 -8 17 -16.5t11 -12.5v246h-137v-277zM469 436q-4 -4 -12 -11t-13 -11l115 -115l21 -20v45l-27 28q-23 20 -41 39 l-28.5 28.5t-14.5 16.5zM479 236l78 -80h23v22l-27 29l-29 29h-45zM580 190v76l-21 21v-76zM580 844h-43l22 -21l21 -22v43zM618 967l27 -27h17l-23 23l-21 20v-16zM754 946v17l-21 20v-16zM754 1018h-72l20 -21h27h2h2l21 -22v43zM653 961l21 -21h76l-23 21h-74zM639 1018 h-131l20 -21h86h2l23 -22v43zM502 1012v-162l26 -27h17l-21 23h-2v2v143zM479 844l21 -21h16l-20 21h-17zM465 1018h-422l20 -21h377h2l23 -22v43zM100 903l21 -22h221l-20 22h-222zM565 961l21 -21h47l-21 21h-47zM139 272l-22 23v2v580l-23 20v-625h45zM211 299l20 -20v16 l-20 20v-16zM414 213l155 -156l57.5 -57.5t51 -52t36.5 -37.5l15 -14l25 24l-402 399l-22 -22q6 -10 28 -31q10 -10 27 -24zM604 881l-22 22v2h-2v2v27l-21 20v-73h45zM246 236l20 -23h135l-22 23h-133zM129 176l23 -20h254v20h-277zM129 119l23 -21h313v21h-336zM129 61 l23 -22h370v22h-393zM754 285v155l-21 21v-334h21v152q0 4 2 6h-2zM754 453v43h-72l20 -21h27h2l2 -2zM676 127h20v342l-20 20v-362zM211 240l27 -27h18l-45 45v-18zM733 559l21 -20v307l-21 22v-309zM43 236l20 -23h27h2h2l23 -23v19q0 4 4 4h106l-22 23h-162zM623 844 l22 -21h27h2l22 -22v43h-73zM653 555l21 -23h76l-23 23h-74zM899 934l-13 14q-14 15 -31 32t-35.5 34.5t-26.5 27.5v-888l13 -14q13 -15 30.5 -32.5t35 -36t27.5 -26.5v889zM139 -104q-4 4 -20.5 19t-33.5 33.5t-33.5 34t-20.5 19.5h-17l107 -106h18zM145 -82l-86 86h-2v2 v203l-20 20v-221l108 -108v18zM690 -104q-16 14 -34.5 32.5t-34 35t-26.5 27.5l-11 11h-512l108 -106h510zM897 -197q-2 2 -16.5 17.5t-33 34t-35.5 36t-24 23.5l-53 -53l111 -109zM725 35l-86 86v2v405q0 4 4 4h19l-23 23v2v2v258l-21 21v-742l107 -108v47zM1014 -80 l-111 111l-80 -82l109 -111z" />
<glyph unicode="R" d="M885 784l22 -22v-2v-262v-2l-84 -84l84 -84v-4v-435v-2q0 -2 -2 -2h-2h-260h-4l-115 117h-2v2v315h-137v-430v-2q0 -2 -2 -2h-2h-203h-2l-22 23v-19v-2l-2 -2h-2h-29h-4l-115 117h-2v2v1047q0 4 4 4h784v-2h3l116 -117v-2v-146v-2l-2 -2h-2h-18zM899 932l-106 108v-133 q4 -4 19 -20.5t33.5 -33.5t34 -33.5t19.5 -20.5v133zM377 -100v422l-107 108v-424zM211 459v-363h20v342zM502 459v-72h20v51zM559 459v-246h45l-22 20v3h-2v2v200zM465 915v19q0 4 4 4h281l-23 20h-567l20 -20h260h2v-2zM618 199v-19l21 -20v18zM754 973v43h-654l21 -21 h608h2h2zM639 508v45h-102l20 -21h57v-2h2zM545 532l-21 21l-2 2v2v25h-73l22 -21h27h2v-2l28 -27h17zM502 532h14l-14 15v-15zM459 532l-21 21h-18l20 -21h19zM430 532l-22 21v2h-2v2v25h-72l20 -21h27h2v-2h2l27 -27h18zM385 532h16l-16 15v-15zM342 532l-20 21h-17 l21 -21h16zM313 532l-22 21v2v2v25h-45l22 -23l29 -27h16zM168 532l-21 21h-75l20 -21h76zM37 532h45l-23 21v2h-2v2v377q0 4 4 4h21l-23 23h-2v2v26l-20 23v-480zM72 958l20 -20h19l-21 20h-18zM268 877h2h-2zM328 866v-18l20 -21v19zM385 866v-45h45l-22 23zM559 807v-217 h45l-22 22l-2 2v172zM682 784l14 -14v14h-14zM690 96l-20 21h-111v-21h131zM522 784h-248l109 -108h139v108zM385 618h137v50h-137v-50zM270 778v-160h107v54zM342 821l-20 21h-105l21 -21h104zM117 901h-17l17 -16v16zM139 821l-22 23v2v28l-23 21v-305h23v227q0 4 4 4h18z M168 821l-21 21h-18l23 -21h16zM211 791l20 -21v45l-20 23v-47zM174 874l-20 21v-47l20 -21v47zM57 1016h-14l14 -15v15zM174 537v221l-20 20v-219zM207 764h2q0 -2 2 -2l20 -21v17l-26 26h-45l20 -20h27zM211 561h45l-23 21v2h-2v2v143l-20 21v-189zM270 532h15l-15 15v-15 zM348 537v18l-20 20v-16zM465 537v18l-21 20v-16zM559 39h191l-23 20h-168v-20zM754 43v338l-21 20v-335zM754 436h-72l20 -20h27h2v-2h2l21 -23v45zM676 430v-307l20 -21v308zM676 590h20v112q0 4 4 5h19l-21 20l-2 2v2v27l-20 20v-188zM733 647h21v25l-21 20v-45zM754 682 v104l-21 21v-76q0 -4 -4 -4h-18l22 -22zM754 842h-131l22 -21h84h2h2l21 -22v43zM618 838v-222l21 -20v219zM594 610l20 -20h19l-21 20h-18zM580 842h-160l20 -21h115h2h2l21 -22v43zM406 901h-246l20 -20h82q4 0 4 -2v2h58q0 -2 2 -2l22 -23v21q0 4 4 4h29h2v-2h2l21 -23 v45zM117 989l-23 23v-47l23 -21v45zM633 154l-21 20h-53v-20h74zM618 240l21 -23v281l-21 20v-278zM168 938l-14 14v-14h14zM733 965l21 -21v17l-21 20v-16zM594 233l45 -45v19l-27 26h-18zM231 39v20h-43l21 -20h22zM94 39h23v199q0 4 4 4h18l-22 22v2v144l-23 20v-391z M174 436h-14l14 -14v14zM154 430v-162l20 -20v162zM129 262l45 -45v19l-27 26h-18zM117 436h-17l17 -14v14zM154 39h43l-21 20q-2 0 -2 2v2v144l-20 20v-188zM516 328q-8 8 -25.5 26.5t-35 36l-31.5 31.5l-14 14h-136l109 -108h133zM487 881l-22 20l-21 23v-43h43zM139 -106 q-4 4 -20.5 19t-33.5 33.5t-33.5 34t-20.5 19.5h-17l107 -106h18zM145 -84l-86 86q0 2 -2 2v465q0 4 4 4h146h2h2l20 -22v18q0 4 5 4h262h2l22 -22v18q0 4 4 4h29h2h2l21 -22v16q0 4 2 4l-2 -2v25h-52l-4 2q0 -2 2 -2h-489v-488l108 -106v16zM152 -80q12 -10 19 -18t9 -8 h191l-107 106h-192q12 -10 36 -35t44 -45zM645 -106h248l-107 106h-249zM899 322q0 2 -29.5 31.5t-56.5 54.5q-6 8 -11 13l-9 9v-424l106 -106v422zM817 418l80 80l-109 110l-81 -80q2 -4 15 -16t30 -29q18 -18 39 -41zM899 758q-4 2 -8 8l-9 9t-10 11q-20 20 -44.5 44 t-34.5 36v-250l106 -108v250zM877 793h16l-107 108h-307l21 -20h288v-2h3z" />
<glyph unicode="S" d="M885 901l22 -20v-4v-203v-2v-2h-2h-2h-76l80 -80v-4v-697v-2h-2v-2h-2h-725q-2 0 -2 2l-22 23v-21v-2h-2q0 -2 -2 -2h-29q-2 0 -4 2l-115 115l-2 2v2v260q0 4 4 4h518v52h-401h-4l-115 116h-2v2v611q0 4 4 4h784h3l116 -117v-4v-29v-2q-2 0 -2 -2h-2h-18zM877 909h16 l-107 109h-395l21 -21h86h2v-2l22 -22v20q0 4 4 4h262h3v-2zM117 178l-23 21v-160h656l-23 20h-606q-4 0 -4 4v115zM385 1012v-15h16zM754 45v16l-21 23v-18zM754 961h-15l15 -17v17zM733 954v-47l21 -20v47zM711 901l20 -20h19l-23 20h-16zM696 961h-14l14 -17v17zM676 954 v-47l26 -26h17l-21 22q-2 0 -2 2v29zM653 901l21 -20h16l-20 20h-17zM639 961h-16l16 -17v17zM618 954v-47l27 -26h17l-23 22v2v29zM594 901l20 -20h19l-21 20h-18zM580 961h-15l15 -17v17zM559 954v-47l27 -26h18l-22 22v2h-2v29zM537 901l20 -20h18l-22 20h-16zM754 823 v21h-275l21 -21h254zM487 881l-22 22v2v29l-21 20v-104l27 -27h16l-22 23v2v29q0 4 4 4h18zM459 823l-21 21h-18l20 -21h19zM430 823l-22 23q-2 0 -2 2v86l-21 20v-104l27 -27h18zM401 823l-22 21h-17l21 -21h18zM371 823l-21 23h-2v2v143l-20 21v-162l26 -27h17zM342 823 l-20 21h-17l21 -21h16zM328 590h43l-21 22h-2v2v2v27l-20 21v-74zM618 270h44l-23 23v2v2v143l-21 21v-191zM690 270l-20 23h-17l21 -23h16zM696 276v338l-20 21v-338zM604 532l-22 23v2h-2v57l-21 21v-103h45zM559 489v-249l27 -27h18l-22 23v2h-2v231zM754 119h-508 l20 -23h463h2h2l21 -22v45zM754 178l-21 21v-17l21 -20v16zM217 176l21 -20h512l-23 20h-510zM211 96h45l-23 23v2h-2v2v27l-20 20v-74zM754 670h-15l15 -15v15zM733 664v-424l21 -21v424zM594 233l20 -20h115h2h2l21 -23v17l-27 26h-133zM614 475q0 -2 2 -2l23 -22v45h-74 l21 -21h28zM696 670h-73l22 -21h27h2v-2l22 -22v45zM618 664v-105l21 -20v104zM594 553l20 -21h19l-21 21h-18zM580 670h-246l20 -21h201h2v-2h2l21 -22v45zM371 475l-21 21q0 2 -2 2v2v26l-20 21v-45l26 -27h17zM522 612h-160l21 -22h115h2l22 -23v45zM516 532l-20 21h-142 q-2 0 -4 2q0 -2 2 -2h-18l20 -21h162zM522 539v16l-20 23v-19zM522 475v21h-160l21 -21h139zM305 496l21 -21h16l-20 21h-17zM291 670h-17l17 -15v15zM270 664v-162l27 -27h16l-22 21v2v2v143zM209 473q0 2 -2 2h20l-22 21h-168v-21h168q2 0 4 -2zM37 532h45l-23 23h-2v2 v434l-20 21v-480zM291 1018h-131l20 -21h27h2v-2h2l20 -22v20q0 4 5 4h30q2 0 2 -2l23 -22v45zM231 510v16l-26 27h-17l23 -23zM231 844h-20v-285l20 -20v305zM231 963l-20 20v-102h20v82zM174 991l-20 21v-453l26 -27h17l-21 23h-2v2v434zM129 553l23 -21h16l-21 21h-18z M117 1018h-17l17 -14v14zM94 1012v-453l27 -27h18l-22 23v2v434zM72 553l20 -21h19l-21 21h-18zM57 1018h-14l14 -14v14zM256 475l-45 43v-16l27 -27h18zM285 475l-21 21h-18l20 -21h19zM270 823h43l-22 23v2v115l-21 20v-160zM348 1018h-14l14 -14v14zM406 961h-15l15 -17 v17zM465 961h-16l16 -17v17zM160 233l20 -20h395l-22 20h-393zM154 227v-131h20v111zM479 901l21 -20h16l-20 20h-17zM522 963l-20 20v-76l26 -26h17l-21 22h-2v2v58zM788 436v2v-2zM43 238l20 -25h27h2h2l23 -23v48h-74zM791 438v2v-2zM342 707l-72 73v-73h72zM793 1040 v-16q4 -4 19 -20.5t33.5 -34t34 -33.5t19.5 -21v19zM522 330v106h-280q-4 0 -5 1t-4 1q2 0 3 -2h-54q-2 0 -3 1t-3 1l2 -2h-110q-4 0 -5.5 1t-3.5 1q2 0 2 -2h-47l107 -106h401zM139 -106l-108 108h-17q8 -10 26.5 -27.5t36 -35l31.5 -31.5l13 -14h18zM145 -82l-86 84v2h-2 v2v201l-20 24v-223l108 -108v18zM180 -106h713l-107 108h-714zM899 586q-16 14 -31 28l-55 56q-6 8 -11 13l-9 9v-248q0 -4 -2 -4h2v-432l106 -108v686zM819 678h74l-107 108h-512l80 -79h434h3v-2zM899 874l-13 14q-14 15 -31 32.5t-35.5 35t-26.5 27.5v-192l106 -107v190z " />
<glyph unicode="T" horiz-adv-x="1038" d="M936 668h-2h-2h-285v-781v-2h-2v-2h-2h-29q-2 0 -4 2l-22 23v-21v-2l-2 -2h-2h-144q-2 0 -4 2l-22 23v-21v-2h-2v-2h-2h-29l-2 2l-117 117v2v664h-141q-2 0 -4 2l-115 114q-2 0 -2 2v2v261q0 4 4 4h813h2l117 -117v-4v-260v-2v-2zM928 932l-14 13l-30.5 30.5t-36 35 t-26.5 27.5v-250l107 -106v250zM639 -102v772l-109 108v-772zM319 797v18l-26 27h-250l20 -21h232h2v-2zM530 924v-103h45l-22 23h-2v2v55zM588 924v-45h22v22zM319 856v16l-26 27h-221l20 -20h203h2zM668 971v20q0 4 4 4h28h2q0 -2 3 -2l20 -22v20q0 4 4 4h55v21h-741 l20 -21h173h2l2 -2l22 -22v20q0 4 4 4h86h2v-2l23 -22v20q0 4 4 4h262h2v-2zM430 37l-20 20h-19l21 -20h18zM356 37h45l-22 22h-2v2v900l-21 20v-944zM436 43v889l-22 20v-889zM436 958h-16l16 -16v16zM37 995h14l-14 15v-15zM240 981v-18l22 -21v19zM43 958l20 -22h193 l-20 22h-193zM778 821l-20 21h-19l21 -21h18zM705 821h45l-23 23h-2v2v115l-20 20v-160zM784 958h-16l16 -16v16zM784 827v105l-22 20v-104zM82 879l-23 22l-2 2v29l-20 20v-73h45zM319 958h-14l14 -16v16zM299 905l20 -20v47l-20 20v-47zM647 848l21 -21v134l-21 20v-133z M565 842l21 -21h76l-21 21h-76zM51 821l-14 15v-15h14zM299 848l20 -21v17l-20 20v-16zM479 958l21 -22h26h2l23 -23v19q0 4 4 4h29h2h2l22 -23v45h-131zM924 676l-109 108h-278l108 -108h279zM262 676v108h-248q8 -10 26.5 -27.5t36 -34.5t31.5 -32l13 -14h141zM401 -109 l-108 109h-19l109 -109h18zM406 -84l-87 86v2v782l-20 21v-801l107 -108v18zM575 -109l-108 109h-133q8 -10 26.5 -27.5t36 -35t30.5 -31.5l13 -15h135zM580 -84l-86 86v2v928l-21 20v-946l107 -108v18zM508 0q8 -10 26.5 -27.5t36 -35t30.5 -31.5l13 -15h19l-109 109h-16z " />
<glyph unicode="U" d="M905 -113v-2h-2h-725q-2 0 -2 2l-22 23v-21v-2h-2q0 -2 -2 -2h-29q-2 0 -4 2l-115 117h-2v2v1045q0 4 4 4h262h2l117 -117v-4v-664h137v781q0 4 4 4h203h2h2l21 -23v19q0 4 4 4h30h3l116 -117v-4v-1045v-2h-2zM793 1040v-1032l106 -108v1034zM754 74v45h-217l20 -23h172 h2h2zM696 451v18l-26 27h-47l22 -21h27h2v-2zM117 266q0 4 4 4h18l-22 23v2v2v29q0 4 4 4h18l-22 22v2v609l-23 20v-770h45l-22 23v2v28zM522 131v21q0 4 4 4h228v20h-682l20 -20h115h2v-2h2l20 -23v21q0 4 5 4h262h2v-2zM270 96h246l-20 23h-226v-23zM227 96l-22 23h-162 l20 -23h164zM37 156h45l-23 22h-2v2v25q0 4 2 6q-2 0 -2 -2v29v753l-20 21v-856zM231 276v687l-20 20v-686zM231 1018h-71l20 -21h27h2v-2h2l20 -22v45zM154 1012v-656l20 -20v655zM129 350l23 -20h16l-21 20h-18zM117 1018h-74l20 -21h27h2l2 -2l23 -22v45zM59 213v-2v2v0z M37 96h14l-14 17v-17zM231 102v19l-20 20v-18zM152 270h75l-22 23h-76zM545 96l-43 45v-18l26 -27h17zM750 213l-23 20h-598l23 -20h598zM676 502l20 -21v510l-20 21v-510zM696 1018h-14l14 -14v14zM559 270h16l-16 17v-17zM559 330h21v198q0 4 4 4h20l-22 23v2h-2v434 l-21 21v-682zM639 1018h-16l16 -14v14zM618 1012v-453l21 -20v452zM594 553l20 -21h19l-21 21h-18zM580 1018h-15l15 -14v14zM639 469l-21 20v-159h21v139zM690 270l-20 23h-105l21 -23h104zM754 236l-21 22v-18l21 -21v17zM719 270l-21 23l-2 2v2v143l-20 21v-164l26 -27 h17zM733 66l21 -21v16l-21 23v-18zM754 266l-27 27h-16l43 -45v18zM43 59l20 -20h687l-23 20h-684zM754 1020l-21 20v-743l21 -21v744zM270 1040v-770h107v664zM139 -106q-4 4 -20.5 20t-33.5 34.5t-33.5 34t-20.5 19.5h-17q8 -10 26.5 -27.5t36 -35l31.5 -31.5l13 -14h18z M145 -82l-86 86h-2v2v27l-20 20v-45l108 -108v18zM180 -106h713l-107 108h-714z" />
<glyph unicode="V" d="M907 932v-871v-2l-174 -174h-2v-2h-2h-434q-2 0 -4 2l-115 117l-117 115l-28 28l-29 31q-2 0 -2 2v871q0 4 4 4h199h6h-2h59h2l117 -117v-4v-662h137v312q0 4 2 6q-2 0 -2 -4v465q0 2 2 4h2h25h6h-2h53h6h115h2h2l21 -23v19q0 4 4 4h30h3l116 -117v-4zM793 1038v-858 l106 -108v860zM729 -106q8 8 33.5 32.5t53.5 52t51.5 52t29.5 30.5l-109 111l-170 -168zM90 995h2h2v-2l23 -22v20q0 4 4 4h86h2q0 -2 2 -2l20 -22v45h-188l20 -21h27zM94 981v-801v-4v2v-24h23v807zM211 981v-336l20 -22v338zM575 37l-22 20h-336l21 -20h313h6h-2h20z M559 37h-2l2 -2v2zM211 37h16l-16 14v-14zM580 43v16l-21 23v-19zM580 90q0 4 4 4h55v23h-451l21 -23h346h2h2l21 -22v18zM188 639l43 -45v18l-26 27h-17zM502 197v-17l26 -26h17zM618 981v-45h44l-23 22zM676 588h20v256l-20 20v-276zM676 905l20 -20v16l-20 23v-19z M696 958h-43l21 -22l22 -23v45zM623 899l22 -20h27h2l22 -23v16l-26 27h-47zM594 174l20 -20h82v20h-102zM154 211h20v403q0 4 4 4h19l-21 21q-2 0 -2 2v2v289l-20 20v-741zM174 958h-14l14 -16v16zM160 174l20 -20h314q6 0 6 -2q0 2 -2 2h18l-20 20h-336zM211 211h45 l-23 22l-2 3v348l-20 20v-393zM154 94h43l-21 23q-2 0 -2 2v2v26l-20 21v-74zM618 211h44l-23 22v3v636l-21 21v-682zM696 1016h-131l21 -21h28h2v-2l23 -22v20q0 4 4 4h53v21zM559 1010v-830l27 -26h18l-22 22q-2 0 -2 2v811zM537 174l20 -20h18l-22 20h-16zM522 231h-276 l20 -20h232h2l22 -23v43zM559 35v-2v2zM690 211l-20 20h-17l21 -20h16zM682 551l14 -14v14h-14zM719 211l-21 22h-2v3v288l-20 21v-307l26 -27h17zM37 152l20 -23v860l-20 21v-858zM750 211l-23 20h-16l20 -20h19zM754 1018l-21 20v-800l21 -21v801zM618 1049l-2 2z M559 1049v2v-2zM557 1053h2h-2zM377 270v662l-107 106v-768h107zM211 1049v2v-2zM209 1053h2h-2zM719 -109q-4 4 -19.5 20.5t-34 35l-34 34l-19.5 19.5h-424l109 -109h422z" />
<glyph unicode="W" horiz-adv-x="1531" d="M1430 -117v-2q-2 0 -3 -2h-2l-1247 6q-2 0 -2 2l-22 21v-19v-2h-2v-2h-2h-29q-2 0 -4 2l-115 115q-2 0 -2 2v2v1041q0 8 4 8h262h2v-2l117 -115v-4v-664h137v781q0 4 4 4h262h3v-2l116 -115v-4v-664h137v781q0 4 5 4h202h2h2v-2l23 -21v19q0 4 4 4h29h2v-2l117 -121v-4 v-1045zM1421 928l-13 14t-30.5 32.5t-36 37t-26.5 28.5v-1034l106 -112v1034zM1219 1020v2v-2zM1255 983v-653h23v633zM1278 74v43h-219l20 -21h172h2h2zM37 96h45l-23 23l-2 2v31q0 4 4 4h21l-23 20v2h-2v2v811l-20 21v-916zM154 270h20v490q0 4 4 4h19l-21 22h-2v2v203 l-20 21v-742zM231 1018h-14l14 -17v17zM270 213h15l-15 14v-14zM1198 461v-164l27 -27h18l-22 23l-2 2v24v9v-2v112zM1044 131v21q0 4 5 4h229v20h-684l20 -20h115h2v-2h2l21 -23v21q0 4 4 4h262l2 -2zM1038 96l-20 21h-221l22 -21h219zM793 96h14l-14 17v-17zM750 96 l-23 21h-655l20 -21h658zM559 156h45l-22 20v2h-2v2v811l-21 21v-856zM639 1018h-74l21 -21h28v-2h2l23 -22v45zM1221 328l2 2zM1233 291l22 -21l23 -22v43h-45zM1255 240l23 -21v17l-23 20v-16zM754 102v19l-21 20v-18zM1212 270l-20 21h-105l21 -21h104zM1081 330h23v198 q0 4 4 4h18l-22 23v2v434l-23 21v-682zM1161 1018h-14l14 -17v17zM1141 1012v-453l20 -20v452zM1116 553l23 -21h16l-20 21h-19zM1104 1018h-17l17 -17v17zM1081 270h17l-17 17v-17zM1161 469l-20 20v-159h20v139zM653 233l21 -20h577h2h-2h21l-21 20h-598zM639 266q0 4 4 4 h19l-23 23v2v668l-21 20v-770h44l-23 23v2v28zM674 270h76l-23 21h-74zM676 330h20v661l-20 21v-682zM754 276v687l-21 20v-686zM754 1018h-72l20 -21h27h2v-2h2l21 -22v45zM94 983v-770h45l-22 23v2v725zM154 199v-17l26 -26h17zM211 182l27 -26h18l-23 20v2h-2v2v549 l-20 21v-568zM414 182l26 -26h19l-45 43v-17zM522 156v20h-73l22 -20h51zM72 176l20 -20h76l-21 20h-75zM522 233h-248l23 -20h113h2l2 -2l22 -21v19q0 4 4 4h82v20zM246 176l20 -20h164l-20 20h-164zM211 1012v-221l20 -21v221zM188 784l23 -20l20 -23v17l-26 26h-17z M174 1018h-14l14 -17v17zM188 176l21 -20h18l-22 20h-17zM174 233h-45l45 -43v43zM117 1018h-74l20 -21h27h2v-2h2l23 -22v45zM1069 96l-22 23l-23 22v-18l27 -27h18zM1219 469l-27 27h-45l20 -23h27h2l23 -22v18zM1219 991l-21 21v-512l21 -21v512zM1255 66l9.5 -9.5 t13.5 -11.5v16l-23 21v-16zM1278 991l-27 27h-24h-6h2h-19l21 -21h26h2v-2h2l23 -22v18zM43 59l20 -20h1209l-21 20h-143h-1065zM1278 1020l-23 20v-16l23 -23v19zM899 932l-13 14q-14 15 -31 32t-35.5 34.5t-26.5 27.5v-770h106v662zM377 932l-107 108v-770h107v662z M139 -106l-108 108h-17q8 -10 26.5 -27.5t36 -35l31.5 -31.5l13 -14h18zM145 -84l-86 86v2h-2v2v27l-20 20v-45l108 -108v16zM180 -106h86q86 0 216 -1.5t284 -2.5t291 -2t237.5 -1h122.5q-8 8 -24.5 26.5t-34 37t-31.5 33t-18 18.5h-1237z" />
<glyph unicode="X" d="M907 494l-84 -84l84 -84v-2v-58v-2v-2h-2h-2h-18l22 -22v-4v-349v-2h-2v-2h-2h-260q-2 0 -4 2l-115 117h-2v2v287h-82l-55 -55v-349v-2h-2v-2h-2h-260q-2 0 -4 2l-115 117h-2v2v348q0 4 4 4h19l-21 23h-2v2v59l2 2l84 84l-84 84q-2 2 -2 4v435q0 4 4 4h262h2l117 -117v-4 v-256h82l55 55v318q0 4 4 4h262h3l116 -117v-4v-434v-2v-2zM899 932l-106 106v-424l106 -106v424zM377 -102v338l-107 106v-336zM57 334v18q0 4 4 4h29h2h2v-2l23 -20v16l-27 27h-76l23 -23zM94 342v-305h45l-22 22v2v261zM733 647h21v139l-21 21v-160zM754 797v18l-27 27 h-45l20 -21h27h2v-2h2zM618 401v-307h21v285zM270 444h15l-15 15v-15zM297 444h219l-20 21h-222zM522 449v18l-20 20v-16zM522 498q0 4 4 4h49l-22 20h-23h-6h2h-221l21 -20h172h2v-2l22 -21v19zM305 580l21 -21h196v21h-217zM559 528l21 -20v309q0 4 4 4h20l-22 23 q-2 0 -2 2v143l-21 21v-482zM639 797v45h-45zM733 981v-18l21 -21v19zM754 913v19l-27 26h-104l22 -22h84h2h2zM696 879v20h-43l21 -20h22zM618 879h44l-23 22v2v29l-21 20v-73zM733 848l21 -21v74l-21 23v-76zM754 1016h-189l21 -21h143h2q0 -2 2 -2l21 -22v45zM618 440 l21 -20v366l-21 21v-367zM676 588h20v227l-20 21v-248zM522 639h-248l23 -21h225v21zM270 633v-43q0 -6 -2 -6h2v-56l27 -26h16l-22 22v2v29q0 4 4 4h18l-22 23v2v28zM285 502l-21 20h-18l20 -20h19zM37 647h20v170q0 4 4 4h21l-23 23h-2v2v86q0 4 4 4h21l-23 22v3h-2v2v26 l-20 21v-363zM231 797v18l-26 27h-45l20 -21h27h2v-2h2zM117 797v45h-45zM211 981v-133l20 -21v134zM154 924v-19l20 -20v16zM94 879h17l-17 14v-14zM121 879h47l-21 20h-47zM72 958l20 -22h58h2l22 -23v45h-102zM197 414l-21 22h-2v2v2v375l-20 21v-742h20v316q0 4 4 4h19z M231 1016h-188l20 -21h144h2q0 -2 2 -2l20 -22v45zM94 588h23v198l-23 21v-219zM231 391v45h-43zM211 502h45l-23 22h-2v2v260l-20 21v-305zM211 401v-338l20 -20v336zM565 436l21 -22h28h2l23 -23v19l-27 26h-47zM100 436l17 -16v16h-17zM129 57l23 -20h75l-22 20h-76z M604 37l-22 22v2h-2v349l-21 20v-393h45zM94 383l23 -21v48l-23 20v-47zM690 37l-20 20h-76l20 -20h76zM682 436l14 -16v16h-14zM37 342v-305h20v285zM434 295l-110 111q-6 -8 -27 -28t-27 -26l111 -110zM754 322l-21 20v-305h21v285zM719 356l-21 23h-2v2v29l-20 20v-367 l20 -20v309q0 4 4 4h19zM377 932l-107 106v-307l56 -55h51v256zM14 0q8 -10 26.5 -27.5t36 -35l31.5 -31.5l13 -15h250l-107 109h-250zM522 299v51l-55 56h-133l106 -107h82zM645 -109h248l-107 109h-249zM899 236l-13 13q-14 13 -31 30.5t-35.5 35t-26.5 27.5v-336 l106 -108v338zM877 270h16l-107 107h-75l43 -43v18q0 4 4 4h30h3v-2zM899 322q0 2 -29.5 31.5t-56.5 54.5q-6 6 -11 12t-9 10v-47l106 -109v48zM817 416l80 82l-109 110l-81 -82l84 -84z" />
<glyph unicode="Y" d="M907 932v-434v-2l-2 -2h-2h-18l22 -23v-2v-582v-2h-2v-2h-2h-725q-2 0 -2 2l-22 23v-21v-2h-2q0 -2 -2 -2h-29q-2 0 -4 2l-115 117h-2v2v262q0 4 4 4h518v49h-401h-4l-115 117h-2v2v2v25v6v-2v580q0 4 4 4h262h2l117 -117v-4v-227h137v344q0 4 4 4h262h3l116 -117v-4z M899 932l-106 106v-424l106 -106v424zM231 438v2v-2v0zM754 971v45h-72l20 -21h27h2l2 -2zM559 197v-76l21 -21v76zM559 588l21 -23v45h-246l20 -22h201h2h2zM733 111v-74h21v53zM754 551h-15l15 -14v14zM733 152l21 -23v395l-21 21v-393zM711 145l22 -22l21 -23v19l-27 26 h-16zM674 145h-2h2zM696 670l-20 20v-43h20v23zM633 37l-21 20h-307l21 -20h307zM231 117h-20v-54l20 -20v74zM227 37l-22 20h-17l21 -20h18zM154 37h43l-21 22h-2v2v58l-20 20v-102zM174 150q0 4 4 4h320h2v-2l22 -23v45h-422l21 -20h29h2v-2l22 -23v21zM94 37h23v110 l-23 21v-131zM274 117l23 -23h219l-20 23h-222zM516 473l-20 21h-191l21 -21h190zM559 674l21 -21v336l-21 21v-336zM639 1016h-74l21 -21h28h2v-2l23 -22v45zM522 479v17l-20 20v-16zM524 530h2h-2zM362 551l21 -21h115h2v-2l22 -20v14v6v-2v25h-160zM270 37h43l-22 22v2 v29l-21 21v-74zM641 182h2h-2zM639 700q0 4 4 5h19l-23 22v2v232l-21 20v-918l21 -20v18v113v6v-2v522zM274 668l23 -21h278l-22 21h-279zM270 662v-162l27 -27h16l-22 21v2v2v143zM285 473l-21 21h-192l20 -21h193zM37 473h45l-23 21v2h-2v2v376q0 4 4 5h21l-23 22l-2 2v86 l-20 21v-537zM231 1016h-14l14 -15v15zM211 1010v-105l20 -20v104zM188 899l23 -20l20 -23v16l-26 27h-17zM168 530l-21 21h-18l23 -21h16zM154 750v-76l20 -21v74zM174 610h-14l14 -16v16zM100 668l21 -21h47l-21 21h-47zM139 762l-22 22v2v2v27l-23 21v-131h23v53q0 4 4 4 h18zM117 842h-17l17 -15v15zM94 530h45l-22 23v2v86l-23 21v-132zM174 537v47l-20 20v-47zM174 739v19l-27 26h-18l23 -22zM160 842l14 -15v15h-14zM231 727l-20 23v-220h20v197zM197 762l-21 22q-2 0 -2 2v2v27l-20 21v-48l26 -26h17zM174 1016h-14l14 -15v15zM154 1010 v-105l26 -26h17l-21 22q-2 0 -2 2v86zM129 899l23 -20h16l-21 20h-18zM117 1016h-17l17 -15v15zM94 1010v-105l27 -26h18l-22 22v2v86zM72 899l20 -20h19l-21 20h-18zM57 1016h-14l14 -15v15zM231 739v19l-26 26h-17zM231 768v76q-4 8 -20 20v-76zM348 584l-20 20v-74h43 l-21 23h-2v2v29zM545 94l-43 45v-18l26 -27h17zM670 725h-17l21 -20l22 -23v16zM575 94l-22 23h-16l20 -23h18zM696 584l-20 20v-450v-7v3v-113h20v84q0 4 4 4h19l-21 20l-2 2v3v434zM696 989l-20 21v-19v-260l20 -20v278zM559 238l21 -21v336l-21 22v-337zM750 588l-23 22 h-45l20 -22h48zM43 231l20 -20h492h2h2l21 -23v17l-27 26h-510zM778 588l-22 22v2h-2v2v25q0 4 2 6q0 -2 -2 -2v318l-21 20v-367l27 -26h18zM377 932l-107 106v-333h107v227zM4 473h-2h2zM522 328v108h-282h-7h3h-173h-4h2h-43h-4q8 -10 26.5 -27.5t36 -35l31.5 -31.5 l13 -14h401zM139 -109l-108 109h-17q8 -10 26.5 -27.5t36 -35l31.5 -31.5l13 -15h18zM145 -84l-86 86h-2v2v201l-20 22v-221l108 -108v18zM180 -109h713l-107 109h-714l80 -80zM899 467l-9 9l-18 18q-16 18 -38.5 40.5l-40.5 40.5v-569l106 -108v569zM877 502h16l-107 108 h-18z" />
<glyph unicode="Z" d="M907 932v-608v-2l-2 -3h-2h-518v-49h403v-2h3l116 -116v-2v-263v-2h-2v-2h-2h-29l-2 2l-22 23v-21v-2h-2v-2h-2h-725q-2 0 -4 2l-115 117h-2v2v258v4v434q0 4 4 5h78l-80 79q-2 0 -2 2v2v203q0 4 4 4h19l-21 23h-2v2v29q0 4 4 4h784h3l116 -117v-4zM899 932l-106 106 v-598l106 -106v598zM893 328l-107 108h-512l109 -108h510zM754 188v48h-74l22 -25h27h2h2zM270 981v-76l27 -26h16l-22 22v2v58zM328 864v-16l26 -27h17l-21 23zM575 94l-22 23h-510l20 -23h512zM37 154h45l-23 22h-2v2v29q0 4 4 4h21l-23 22l-2 3v405l-20 21v-508zM94 270 h45l-22 21v2v2v346l-23 21v-392zM37 901v2v-24h45l-23 22l-2 2v29l-20 20v-45v-6zM231 958h-14l14 -16v16zM342 821l-20 21h-279l20 -21h279zM37 821h14l-14 15v-15zM174 958h-14l14 -16v16zM154 952v-47l26 -26h17l-21 22q-2 0 -2 2v29zM129 899l23 -20h16l-21 20h-18z M117 958h-17l17 -16v16zM94 952v-47l27 -26h18l-22 22v2v29zM72 899l20 -20h19l-21 20h-18zM227 879l-22 20h-17l21 -20h18zM57 958h-14l14 -16v16zM754 473v21h-160l20 -21h140zM487 473l-43 43v-16l27 -27h16zM459 473l-21 21h-164l23 -21h162zM580 174h-508l20 -20h463h2 v-2h2l21 -23v45zM559 121l21 -21v19l-21 20v-18zM256 211l-23 22l-2 3v258h-77v-197l20 -23v195q0 4 4 4h29q4 0 4 -4v-231l27 -27h18zM168 270l-21 21h-18l23 -21h16zM154 633v-103h43l-21 23h-2v2v57zM211 662v-105l20 -20v104zM188 551l21 -21h18l-22 21h-17zM440 647 l2 -2l23 -22v45h-139h-4h2h-107l21 -21h202zM465 551h-160l21 -21h114h2v-2l23 -20v43zM270 530h43l-22 23v2v29l-21 20v-74zM444 614l21 -20v18l-21 21v-19zM274 610l23 -22h141h4h-2h19l-21 22h-164zM270 473h15l-15 14v-14zM516 473l-20 21h-17l21 -21h16zM545 473 l-21 21q0 2 -2 2v2v143l-20 21v-162l26 -27h17zM516 821l-20 21h-17l21 -21h16zM487 821l-22 23v2v143l-21 21v-162l27 -27h16zM459 821l-21 21h-18l20 -21h19zM430 821l-22 23h-2v2v86l-21 20v-104l27 -27h18zM406 958h-15l15 -16v16zM465 1016h-16l16 -15v15zM522 827v162 l-20 21v-162zM754 1016h-15l15 -15v15zM733 1010v-453l21 -20v452zM559 981v-102h21v82zM618 981v-424l27 -27h17l-23 23v2v406zM594 551l20 -21h19l-21 21h-18zM711 551l20 -21h19l-23 21h-16zM696 1016h-14l14 -15v15zM676 1010v-453l26 -27h17l-21 23h-2v2v434zM653 551 l21 -21h16l-20 21h-17zM639 1016h-131l20 -21h27h2q0 -2 2 -2l21 -22v20q0 4 4 4h30h2v-2l23 -22v45zM522 668h-14l14 -15v15zM575 473l-22 21h-16l20 -21h18zM604 473l-22 21v2q-2 0 -2 2v28q0 4 4 4h20l-22 23v2h-2v287h-21v-342l27 -27h18zM362 842l21 -21h18l-22 21h-17 zM174 668h-74l21 -21h29h2v-2l22 -22v45zM72 231l20 -20h135l-22 20h-133zM57 668h-14l14 -15v15zM618 197v-103h21v82zM639 231h-393l20 -20h348h2l23 -23v43zM328 905l20 -20v73h-20v-53zM256 879l-23 22l-2 2v29l-20 20v-47l27 -26h18zM82 37l-23 22l-2 2v29l-20 21v-74 h45zM305 899l21 -20l22 -23v16l-26 27h-17zM285 879l-21 20h-18l20 -20h19zM696 205l-20 24v-168q0 -4 -4 -4h-600l20 -20h604v168zM14 784l78 -79h430v79h-508zM2 268q2 0 2 2zM35 995h231h2v-2l23 -22v20q0 4 4 4h111v21h-392zM2 268q-2 0 -2 -2q0 2 2 2zM14 0 q8 -10 26.5 -27.5t36 -35l31.5 -31.5l13 -15h715l-109 109h-713zM842 -84l-86 86l-2 2v172l-21 21v-191l109 -108v18zM877 -109h16l-107 109h-18zM899 147l-106 109v-250l106 -108v249zM377 270v52l-107 108v-160h107z" />
<glyph unicode="[" horiz-adv-x="632" d="M508 842l20 -21q2 -2 2 -4v-145v-2h-2l-2 -2h-141v-398h25h2q2 0 2 -2l114 -114q2 -2 2 -4v-261v-2q0 -2 -2 -2h-2h-348h-2l-22 23v-19v-2h-2v-2h-2h-29h-4l-115 117h-2v2v1047l2 2l2 2h258q4 0 4 -2v2h144h2v-2h2l114 -117q2 0 2 -2v-88v-2h-2h-2v-2h-18zM414 1040v-75 l108 -109v76zM516 676l-106 108h-136l109 -108h133zM299 199v-19l20 -20v18zM211 807v-510l20 -21v510zM94 154h45l-22 22v2v2v289q0 4 4 4h18l-22 23v2v28l-23 21v-393zM227 270l-22 21h-17l21 -21h18zM129 494l23 -21l22 -22v43h-45zM174 266q0 4 4 4h19l-21 23h-2v2v143 l-20 21v-246h20v53zM174 553h-74l21 -21h53v21zM299 139v-16l20 -21v17zM313 96l-20 21h-193l21 -21h192zM94 96h17l-17 15v-15zM319 147l-26 29h-164l23 -22h143h2l22 -23v16zM227 213l-16 14v-14h16zM154 881h14l-14 14v-14zM377 901h-217l20 -20h172h2v-2l23 -23v45z M356 848l21 -21v19l-21 20v-18zM160 842l20 -21h27h2h2l20 -22v18q0 4 5 4h135l-21 21h-190zM377 188v45h-160l21 -20h57l2 -2l22 -23v21q0 4 5 4h28h2v-2zM154 616l20 -20v219l-20 23v-222zM356 66l21 -23v135l-21 21v-133zM129 610l23 -20h16l-21 20h-18zM43 1018l20 -23 h314v23h-334zM72 59l20 -20h279l-21 20h-278zM117 932l-23 20v-362h45l-22 22v2v318zM270 1051h-2h2zM139 -106q-4 4 -20.5 19t-33.5 33.5t-33.5 34t-20.5 19.5h-17l107 -106h18zM145 -84l-86 86v2h-2v31q0 4 4 4h21l-23 20v2h-2v2v928l-20 21v-1006l108 -106v16zM152 -80 q12 -10 19 -18t9 -8h336l-106 106h-338q12 -10 36 -35t44 -45zM522 147l-14 15q-14 14 -31.5 32.5t-36 36t-26.5 25.5v-250l108 -106v247zM377 270v402l-107 106v-508h107zM414 924v-133l108 -109v133zM500 850h16l-106 108h-310l21 -20h289h2q2 0 2 -2z" />
<glyph unicode="]" horiz-adv-x="632" d="M530 -113v-2h-2v-2h-2h-348q-2 0 -2 2l-22 23v-21v-2h-2q0 -2 -2 -2h-29q-2 0 -4 2l-115 117h-2v2v262q0 4 4 4h141v398h-24q-2 0 -4 2l-115 114q-2 0 -2 2v2v144q0 4 4 4h19l-21 22q-2 0 -2 3v2v86q0 4 4 4h406h2h2l114 -117q2 0 2 -4v-1045zM522 932l-14 13t-31.5 30.5 t-36 35t-26.5 27.5v-1032l108 -108v1034zM299 924v-310l20 -20v307zM94 197v-103h45l-22 23v2v2v29q0 4 4 4h18zM33 203h2h-2zM377 971v45h-334l20 -21h289h2v-2zM51 995l-14 15v-15h14zM319 449v18l-26 27h-47l20 -21h29q2 0 2 -2zM37 821h45l-23 23h-2v2v26l-20 21v-72z M262 797v18v4v-2v25h-190l20 -21h86h2v-2l23 -22v20q0 4 4 4h29h2v-2h2zM182 270h45l-22 21v2h-2v2v491l-21 21v-537zM319 508v43h-73l20 -21h29h2v-2zM262 264l-26 27h-19l23 -23l22 -22v18zM240 545v-15h16zM240 211h22v25l-22 20v-45zM262 467l-22 20v-190l22 -23v193z M299 500l20 -21v17l-20 20v-16zM262 899h-219l20 -20h199v20zM285 588l-23 22v2v2v172l-22 21v-219h45zM129 174l23 -20h167v284l-20 21v-281q0 -4 -4 -4h-166zM129 117l23 -23h167v23h-190zM313 588l-20 22h-19l23 -22h16zM356 63l21 -20v918l-21 20v-918zM43 231l20 -20 h27h2h2l23 -23v19q0 4 4 4h82v20h-160zM72 57l20 -20h279l-21 20h-278zM35 936h260h2l22 -23v45h-305zM145 676v108h-131q8 -10 26.5 -27.5t36 -34.5t31.5 -32l13 -14h24zM139 -109l-20.5 20.5t-33.5 35t-33.5 34t-20.5 19.5h-17q8 -10 26.5 -27.5t36 -35l31.5 -31.5l13 -15 h18zM145 -84l-86 86h-2v2v29q0 4 4 4h21l-23 22l-2 2v144l-20 22v-16v-6v2v-201l108 -108v18zM180 -109h336l-106 109h-338l80 -80z" />
<glyph unicode="a" d="M905 -115v-2h-2h-203l-2 2l-22 23v-21v-2h-2v-2h-2h-29q-2 0 -4 2l-115 117h-2v2v2v139h-137v-258v-2h-2v-2h-2h-203q-2 0 -2 2l-22 23v-21v-2h-2q0 -2 -2 -2h-29q-2 0 -4 2l-115 117h-2v2v1045q0 4 4 4h784h3l116 -117v-4v-1045v-2h-2zM793 1038v-1032l106 -108v1034z M377 147l-107 109v-250l107 -108v249zM94 227v-45h45zM37 299h45l-23 20v3h-2v2v434q0 4 4 4h21l-23 22v2h-2v2v201l-20 21v-711zM94 356h23v371l-23 23v-394zM117 784h-45l45 -45v45zM150 299h2v-2l22 -23v19l-27 26h-75l20 -20h58zM154 1010v-74h20v53zM129 899l23 -20h75 l-22 20h-76zM129 842l23 -21h403h2v-2h2l21 -22v45h-451zM270 1010v-131h43l-22 22v2v86zM676 240h20v661l-20 23v-684zM696 958h-362l20 -22h260h2l23 -23v19q0 4 4 4h29h2l22 -23v45zM555 299h2v-2h2l21 -23v45h-334l20 -20h289zM227 37l-22 20h-17l21 -20h18zM197 37 l-21 22h-2v2v86l-20 21v-105l26 -26h17zM168 37l-21 20h-18l23 -20h16zM231 43v102h-20v-82zM154 240h43l-21 22l-22 23v-45zM559 807v-424l21 -21v424zM274 377l23 -21h278l-22 21h-279zM516 414l-20 22h-279l21 -22h278zM211 750v-277h45l-23 21v2h-2v2v229zM502 459v-19 l20 -20v18zM270 530h107v140l-107 108v-248zM522 668h-137v-138h137v2v136zM270 356h15l-15 15v-15zM522 784h-248l109 -108h139v108zM246 494l20 -21h232h2v-2l22 -22v45h-276zM231 784h-71l20 -22h27h2h2l20 -23v45zM154 326l20 -21v453l-20 20v-452zM188 262l23 -22 l20 -23v45h-43zM211 209l20 -21v17l-20 22v-18zM256 299l-23 20v3h-2v2v86l-20 20v-131h45zM559 240h45l-45 45v-45zM633 240l-21 22h-18l20 -22h19zM618 864v-598l21 -20v598zM618 905l21 -20v16l-21 23v-19zM328 936h14l-14 16v-16zM305 899l21 -20h288h2l23 -23v16 l-27 27h-307zM129 203l45 -43v18q0 4 4 4h49l-22 21h-76zM94 37h45l-22 22v2v84h-23v-108zM565 203l21 -21h143h2l2 -2l21 -20v16l-27 27h-162zM676 94h14l-14 17v-17zM696 145h-78v-108h44l-23 22v2v60q0 4 4 4h29q2 0 2 -2l22 -23v45zM750 37l-23 20h-74l21 -20h76z M733 168v-105l21 -20v104zM754 1016h-480l23 -21h432q4 0 4 -4v-782l21 -21v828zM231 1016h-71l20 -21h27q4 0 4 -4v-86l20 -20v131zM117 1016h-74l20 -21h27q4 0 4 -4v-170h45l-22 23v2v28q0 4 4 5h18l-22 22v2v113zM139 -109l-108 109h-17l21.5 -21.5t36 -37t34.5 -35.5 l15 -15h18zM145 -84l-86 86h-2v2v232q0 4 4 4h29h2h2l23 -23v45h-80v-256l108 -108v18zM180 -109h191l-107 109h-192l80 -80zM522 154v108h-248l109 -108h139zM662 -109l-20.5 20.5t-34 35t-34 34t-20.5 19.5h-16l108 -109h17zM668 -84l-86 86q-2 0 -2 2v172l-21 21v-191 l109 -108v18zM674 -80q29 -29 28 -29h191l-107 109h-192z" />
<glyph unicode="b" d="M885 784l22 -20v-4v-260v-2v-2l-84 -84l84 -84v-2v-437v-2l-2 -2h-2h-725q-2 0 -2 2l-22 21v-19v-2h-2v-2h-2h-29q-2 0 -4 2l-115 115q-2 0 -2 2v2v1045q0 4 4 4h784h3v-2l116 -115v-4v-146v-2h-2v-2h-2h-18zM899 932q0 2 -15.5 17.5t-34 33.5t-35.5 35.5t-21 21.5v-133 l106 -108v133zM385 866v-43h45l-22 21zM211 461v-365h45l-23 23v2h-2v319zM559 461v-221l21 -21v221zM559 809v-219h45l-22 22v2h-2v174zM174 758l-20 22v-221l20 -20v219zM168 532l-21 21h-75l20 -21h76zM37 532h45l-23 23h-2v2v377q0 4 4 4h21l-23 23v2h-2v28l-20 21v-480 zM754 1018h-654l21 -21h608h2v-2h2l21 -22v45zM270 924v-17l21 -20v16zM168 823l-21 21h-18l23 -21h16zM117 901h-17l17 -14v14zM117 819q0 4 4 4h18l-22 21v2v2v26l-23 21v-305h23v229zM174 874l-20 21v-45l20 -23v47zM285 881l-21 20h-104l20 -20h105zM168 938l-14 16v-16 h14zM94 1012v-47l23 -21v47zM72 958l20 -20h19l-21 20h-18zM57 1018h-14l14 -17v17zM291 934q0 4 4 4h455l-23 20h-567l20 -20h86h2l23 -23v19zM754 944v19l-21 20v-18zM211 750v-189h45l-23 23h-2v2v143zM270 270h107v54l-107 108v-162zM385 270h137v52h-137v-52zM522 436 h-248l109 -106h139v106zM614 532h2v-2l23 -20v43h-102l20 -21h57zM545 532l-21 23h-2v2v25h-73l22 -21h27h2v-2l28 -27h17zM502 532h14l-14 15v-15zM459 532l-21 21h-18l20 -21h19zM430 532l-22 23l-2 2v25h-72l20 -21h27h2l2 -2l27 -27h18zM385 532h16l-16 15v-15zM342 532 l-20 21h-17l21 -21h16zM313 532l-22 23v2v25h-45l22 -23l29 -27h16zM270 532h15l-15 15v-15zM348 539v16l-20 20v-16zM465 539v16l-21 20v-16zM733 809v-76l21 -20v75zM682 784l14 -14v14h-14zM618 518v-336l21 -22v338zM305 176l21 -20h307l-21 20h-307zM676 590h20v112 q0 4 4 5h19l-21 22h-2v2v27l-20 22v-190zM733 649h21v23l-21 20v-43zM754 684v16l-27 27h-16zM754 844h-136v-228l21 -20v223q0 4 4 4h86h2v-2h2l21 -22v45zM385 618h137v52h-137v-52zM522 784h-248l109 -106h139v106zM270 780v-162h107v54zM291 207l-21 20v-71h43l-22 20v2 v2v27zM676 123l20 -21v310q0 4 4 4h19l-21 22l-22 23v-338zM750 39l-23 20h-539l21 -20h541zM174 219v17l-27 26h-18zM117 436h-17l17 -14v14zM174 436h-14l14 -14v14zM154 432v-164l20 -20v162zM94 39h23v199q0 4 4 4h18l-22 22v2v144l-23 22v-393zM154 39h43l-21 22h-2v2 v144l-20 20v-188zM754 45v336l-21 20v-335zM754 436h-43l43 -43v43zM696 467h-14l14 -16v16zM594 610l20 -20h19l-21 20h-18zM231 758l-26 26h-45l20 -20h27h2h2l20 -23v17zM575 213l-22 20h-279l23 -20h278zM246 117l20 -21h424l-20 21h-424zM231 817l-20 21v-47l20 -21v47 zM420 844l20 -21h115h2v-2h2l21 -22v45h-160zM342 823l-20 21h-105l21 -21h104zM43 496l20 -21h144h2v-2h2l20 -22v20q0 4 5 4h319h2v-2h2l21 -22v45h-537zM348 874l-20 21v-45l20 -23v47zM139 -106l-108 108h-17l21.5 -21.5t36 -37t34.5 -34.5l15 -15h18zM145 -84l-86 86v2 h-2v2v463l-20 20v-481l108 -108v16zM152 -78q29 -29 28 -28h713l-107 108h-714zM899 324l-15 15q-16 15 -34.5 34.5t-35.5 37t-21 21.5v-424l106 -108v424zM817 418q2 2 13.5 13t24.5 24.5t25.5 27t16.5 17.5l-109 110l-81 -82zM899 758q0 2 -15.5 17.5t-34 33.5t-35.5 35.5 t-21 21.5v-250l106 -106v248zM877 793h16l-107 108h-452l20 -20h27h2l2 -2l21 -21v19q0 4 4 4h378h3v-2z" />
<glyph unicode="c" d="M385 668v-398h287h2v-2l22 -20v18q0 4 4 4h88h3v-2l116 -114v-4v-261v-2q0 -2 -2 -2h-2h-725h-2l-22 23v-19v-2h-2v-2h-2h-29h-4l-115 117q-2 0 -2 2v2v1045q0 4 4 4h784h3v-2l116 -117v-2v-262v-2h-2l-2 -2h-518zM328 199v-103h43l-21 23h-2v2v57zM94 983v-944h45 l-22 20v2v2v754q0 4 4 4h18l-22 23v2v2v113zM270 983v-102h43l-22 20v2v2v56zM154 809v-713h43l-21 23h-2v2v665zM750 821l-23 23h-481l20 -23h484zM231 784h-14l14 -14v14zM733 63q0 -4 -4 -4h-483l20 -20h488v168l-21 20v-164zM754 233h-15l15 -14v14zM231 90l-26 27h-17 l23 -23l20 -20v16zM211 821h45l-23 23v2h-2v2v55l-20 21v-103zM639 915v19q0 4 4 4h111v20h-420l20 -20h260h2v-2zM342 938l-14 14v-14h14zM653 901l21 -20h55h2v-2h2l21 -23v45h-101zM754 827v19l-21 20v-18zM618 907l27 -26h17l-44 43v-17zM160 958l20 -20h27h2l2 -2 l20 -21v43h-71zM211 66l27 -27h18l-23 20l-22 23v-16zM256 96l-23 23h-2v2v637l-20 20v-655l27 -27h18zM305 901l21 -20h307l-21 20h-307zM129 844l23 -23l22 -22v133l-20 20v-104q0 -4 -4 -4h-21zM129 59l23 -20h75l-22 20h-76zM696 131v45h-305l21 -22h260h2zM385 154h16 l-16 16v-16zM676 123l20 -21v17l-20 22v-18zM362 117l21 -21h307l-20 21h-308zM285 96l-21 21h-18l20 -21h19zM291 207l-21 20v-104l21 -21v105zM43 1018l20 -23h27h2h2l23 -22v18q0 4 4 4h145h2l23 -22v18q0 4 4 4h459v23h-711zM690 213l-20 20h-396l23 -20h27h2v-2l22 -23 v21q0 4 4 4h338zM274 784l109 -108h510l-107 108h-512zM899 932l-15 16q-16 15 -34.5 34t-35.5 36.5t-21 21.5v-249l106 -109v250zM139 -106q-4 4 -21.5 21t-37 35.5t-34.5 34t-15 17.5h-17l21.5 -21.5t36 -37t34.5 -34.5l15 -15h18zM145 -84l-86 86v2h-2v2v985l-20 21 v-1006l108 -106v16zM180 -106h713l-107 108h-714zM793 256v-250l106 -106v250zM696 236l-20 20v-16l20 -21v17zM377 270v402l-107 106v-508h107z" />
<glyph unicode="d" d="M733 -113q0 -2 -2 -2h-2h-551q-2 0 -2 2l-22 21v-19v-2h-2v-2h-2h-29q-2 0 -4 2l-115 115q-2 0 -2 2v2v1045q0 4 4 4h551h2l2 -2l21 -21v19q0 4 4 4h30l2 -2l175 -174l116 -115v-4v-697v-2zM899 758l-15 15q-16 15 -34.5 34.5t-35.5 37t-21 21.5v-684l106 -108v684z M94 199v-160h45l-22 22v2v29q0 4 4 4h18l-22 23v2v57zM154 199v-43h43l-21 20zM522 784h-248l109 -106h139v106zM270 270h107v402l-107 108v-510zM385 270h137v400h-137v-400zM522 973v45h-479l20 -21h435v-2h2zM211 66l27 -27h18l-23 22l-22 21v-16zM580 39v20h-334l20 -20 h314zM754 741v43h-131l22 -20h84h2h2zM211 270h20v402l-20 20v-422zM168 270l-21 21h-75l20 -21h76zM37 270h45l-23 23q0 2 -2 2v696l-20 21v-742zM174 508v18l-27 27h-18l23 -23zM139 532l-22 23v2v201l-23 22v-450h23v198q0 4 4 4h18zM117 784h-17l17 -14v14zM174 670h-14 l14 -17v17zM154 664v-105l20 -20v104zM174 276v222l-20 20v-221zM94 823h45l-22 21v2v2v84l-23 22v-131zM231 682v18l-26 27h-17zM174 874l-20 21v-45l20 -23v47zM129 844l23 -23l22 -22v18l-27 27h-18zM231 713v104l-20 21v-105zM696 901h-536l20 -20h516v20zM154 707h43 l-21 22h-2v2v57l-20 21v-102zM555 823l2 -2h2l21 -22v20q0 4 4 4h170v21h-537l21 -21h317zM559 809v-479h45l-22 20v2h-2v2v434zM633 330l-21 20h-18l20 -20h19zM696 334v366l-20 21v-365zM696 727h-14l14 -14v14zM653 350l21 -20h16l-20 20h-17zM639 758l-21 22v-424 l27 -26h17l-23 20v2v2v404zM733 297l21 -21v453l-21 21v-453zM676 156h20v22l-20 21v-43zM696 209q0 4 4 4h54v20h-131l22 -20h27h2v-2l22 -21v19zM618 182l21 -22v47l-21 20v-45zM516 938l-20 20h-396l21 -20h395zM565 291l21 -21h164l-23 21h-162zM188 176l21 -20h424 l-21 20h-424zM129 117l23 -21h55h2h2l20 -22v18q0 4 5 4h403v21h-510zM129 59l23 -20h75l-22 20h-76zM545 938l-21 23l-22 22v-18l26 -27h17zM559 240l21 -21v45l-21 23v-47zM594 958l20 -20h25v20h-45zM575 938l-22 20h-16l20 -20h18zM43 233l20 -20h27h2h2v-2l23 -21v19 q0 4 4 4h29h2v-2l22 -21v19q0 4 4 4h397l-22 20h-510zM580 1020l-21 20v-75l27 -27h18l-22 23v2h-2v57zM139 -106l-108 108h-17l21.5 -21.5t36 -37t34.5 -34.5l15 -15h18zM145 -84l-86 86v2h-2v2v201l-20 20v-221l108 -106v16zM152 -78q29 -29 28 -28h539l-107 108h-540z M897 63l-109 111l-170 -168l111 -110z" />
<glyph unicode="e" d="M885 903l22 -22v-2v-205v-2h-2v-2h-2h-76l80 -80v-2v-262v-2h-2v-2h-2h-518v-50h403h3v-2l116 -114v-4v-261v-2q0 -2 -2 -2h-2h-725h-2l-22 23v-19v-2l-2 -2h-2h-29h-4l-115 117h-2v2v1047q0 4 4 4h784q0 -2 3 -2l116 -117v-2v-29v-2v-2h-2h-2h-18zM899 934l-15 16 q-16 15 -34.5 34.5t-35.5 36.5l-21 21v-18l15 -16q15 -15 33.5 -34.5t36 -35.5t21.5 -20v16zM502 983v-74l26 -26h17l-21 20l-2 2v2v56zM893 330l-107 108h-512l109 -108h510zM94 403v-364h45l-22 22v2v3v317zM154 403v-305h20v285zM754 74v45h-508l20 -21h463h2v-2h2z M256 98l-23 23h-2v2v27l-20 22v-74h45zM754 156v20h-537l21 -20h516zM256 215l-23 21v2h-2v2v198h-20v-223h45zM733 66l21 -21v18l-21 21v-18zM754 236h-508l20 -21h488v21zM129 61l23 -22h598l-23 22h-598zM465 961h-16l16 -15v15zM618 909l27 -26h17l-23 20v2v2v27l-21 20 v-45zM754 961h-15l15 -15v15zM733 954v-45l21 -22v47zM711 903l20 -20h19l-23 20h-16zM696 961h-14l14 -15v15zM676 954v-45l26 -26h17l-21 20l-2 2v2v27zM653 903l21 -20h16l-20 20h-17zM639 961h-16l16 -15v15zM565 961l15 -15v15h-15zM594 903l20 -20h19l-21 20h-18z M479 844l21 -21h254v21h-275zM406 961h-15l15 -15v15zM385 954v-104l27 -27h18l-22 23v2h-2v86zM401 823l-22 21h-17l21 -21h18zM371 823l-21 23h-2v2v143l-20 23v-164l26 -27h17zM342 823l-20 21h-17l21 -21h16zM291 1018h-131l20 -21h27h2h2l20 -22v18q0 4 5 4h30h2 l23 -22v43zM231 883v80l-20 20v-100h20zM217 844l14 -15v15h-14zM211 559l20 -20v278l-20 23v-281zM270 823h43l-22 23v2v115l-21 20v-160zM348 1018h-14l14 -14v14zM37 532h45l-23 23v2h-2v2v432l-20 23v-482zM57 1018h-14l14 -14v14zM111 532l-21 23h-18l20 -23h19z M139 532l-22 23v2v2v432l-23 23v-455l27 -27h18zM117 1018h-17l17 -14v14zM168 532l-21 23h-18l23 -23h16zM180 532h17l-21 23h-2v2v2v432l-20 23v-455zM270 502l27 -27h16l-22 23v2v143l-21 21v-162zM328 592h43l-21 22h-2v2v27l-20 21v-72zM696 670h-362l20 -21h318h2 l22 -22v43zM672 532h2l22 -22v18l-26 27h-336l20 -23h318zM328 532h14l-14 17v-17zM676 635v-17l26 -26h17zM672 592h2v-2l22 -23v19l-26 26h-308l21 -20h289zM719 532l-21 23l-22 23v-19l26 -27h17zM754 532v23h-43l20 -23h23zM719 475l-21 23l-22 22v-18l26 -27h17z M754 475v21h-43l20 -21h23zM754 670h-15l15 -15v15zM733 664v-46l21 -20v45zM711 612l20 -20h19l-23 20h-16zM305 496l21 -21h342h6h-2h18l-20 21h-365zM674 473v2v-2zM291 670h-17l17 -15v15zM676 473v-2v2zM459 823l-21 21h-18l20 -21h19zM231 510v18l-26 27h-17l23 -23z M246 496l20 -21h19l-21 21h-18zM559 909l27 -26h18l-22 20v2h-2v2v27l-21 20v-45zM487 883l-22 20v2v2v27l-21 20v-104l27 -27h16l-22 23v2v31q0 4 4 4h18zM211 502l27 -27h18l-45 45v-18zM537 903l20 -20h18l-22 20h-16zM516 883l-20 20h-17l21 -20h16zM385 997h16l-16 17 v-17zM43 496l20 -21h142h4h-2h20l-22 21h-162zM72 438l45 -45v21q0 4 4 4h29h2v-2l22 -23v45h-102zM342 707l-72 73v-73h72zM139 -104q-4 4 -21.5 21t-37 35.5t-34.5 33.5l-15 16h-17l107 -106h18zM145 -82l-86 86l-2 2v408q0 4 4 4h21l-23 20v2h-2v2v27l-20 20v-481 l108 -108v18zM72 2l21.5 -21.5t37 -36t34.5 -33.5l15 -15h713l-107 106h-714zM899 150l-15 15q-16 15 -34.5 34.5t-35.5 37t-21 21.5v-250l106 -108v250zM377 272v52l-107 108v-160h107zM899 586l-15 15q-16 15 -34.5 34.5t-35.5 37t-21 21.5v-250l106 -108v250zM819 678h74 l-107 108h-512l80 -79h434h3zM872 903l-79 80v-190l106 -109v193zM877 911h16l-107 107h-395l21 -21h86h2l22 -22v18q0 4 4 4h262h3z" />
<glyph unicode="f" d="M885 842l22 -23v-2v-145v-2v-2h-2h-2h-76l80 -80v-4v-260v-2l-2 -3h-2h-518v-432v-2h-2v-2h-2h-203q-2 0 -2 2l-22 23v-21v-2h-2q0 -2 -2 -2h-29q-2 0 -4 2l-115 117h-2v2v1045q0 2 2 4h2h258h4h522h3l116 -117v-4v-86v-2v-2h-2h-2h-18zM100 1016l21 -21h377h2v-2l22 -22 v20q0 4 4 4h228v21h-654zM690 821l-20 21h-598l22 -23l23 -22v20q0 4 4 4h569zM270 705h72l-72 73v-73zM231 739v45h-71l20 -22h27h2h2zM211 750v-45h20v22zM117 786l-23 21v-102h45l-22 22v2v57zM152 705h16l-21 20h-18zM174 711v47l-20 20v-47zM702 821h17l-43 43v-16z M731 821h23v21h-43zM754 879v20h-625l23 -20h520h2l22 -23v18q0 4 4 5h54zM465 936v22h-336l23 -22h313zM545 936l-21 22l-22 23v-45h43zM94 879h45l-22 22v2v29q0 4 4 4h18l-22 22v3v2v26l-23 21v-131zM43 1016l14 -15v15h-14zM139 -109l-108 109h-17l21.5 -21.5t36 -37 t34.5 -35.5l15 -15h18zM145 -84l-86 86h-2v2v639q0 4 4 4h29h2q0 -2 2 -2l23 -22v20q0 4 4 4h633v21h-693q-4 0 -4 4v145q0 4 4 4h21l-23 23h-2v2v143l-20 21v-1004l108 -108v18zM231 100v19l-26 26h-17zM211 111v-74h20v53zM117 612l-23 21v-596h45l-22 22v2v551zM152 37 h16l-21 20h-18zM174 43v78q0 4 4 4h19l-21 20q-2 0 -2 2v3v434l-20 20v-541zM174 594v16h-14zM231 129v455l-20 20v-452zM238 588h28h2l23 -23v45h-74zM270 473h43l-22 21v2v2v55l-21 22v-102zM326 473h424l-23 21h-422zM348 584l-20 20v-74h43l-21 23h-2v2v29zM754 479v17 l-21 20v-16zM754 508v43h-392l21 -21h346h2q2 0 2 -2zM754 588v22h-420l20 -22h400zM371 -109l-107 109h-192l80 -80l28 -29h191zM377 322l-107 108v-424l107 -108v424zM893 328l-107 108h-512l109 -108h510zM793 690v-250l106 -106v250zM893 676l-107 108h-512l80 -79h434 h3l28 -29h74zM793 924v-136l106 -106v133zM893 850l-107 108h-249l20 -22h231h3l86 -86h16zM899 932l-106 106v-75l106 -107v76z" />
<glyph unicode="g" d="M903 670h-76l80 -80v-4v-144v-2v-2h-2h-2h-18l22 -22v-4v-523v-2h-2v-2h-2h-725q-2 0 -2 2l-22 23v-21q0 -2 -2 -2l-2 -2h-29q-2 0 -2 1t-2 1l-115 117h-2v2v1045q0 4 4 4h784h3l116 -117v-2v-262v-2l-2 -2h-2zM793 1040v-249l106 -107v250zM754 625v45h-246l20 -21h27h2 v-2h2l21 -22v20q0 4 4 4h145h2v-2h2zM94 983v-944h45l-22 22v2v900zM154 983v-770h43l-21 23h-2v2v725zM733 983v-160h21v140zM559 635v-45h45l-22 22zM690 823l-20 21h-424l20 -21h424zM231 961h-14l14 -17v17zM270 881h43l-22 22v2v29l-21 20v-73zM696 901h-391l21 -20 h346h2l22 -23v43zM696 940v21h-422l23 -21h399zM696 829v17l-20 20v-16zM211 240l27 -27h18l-23 23l-2 2v581q0 4 5 4h20l-23 23h-2v2v86l-20 20v-714zM385 475h45l-22 23h-2v2v143l-21 21v-189zM618 518v-188h21v168zM676 578v-248h43l-21 22h-2v2v201zM754 74v45h-566 l21 -21h520l2 -2h2zM555 475q4 0 4 -4v-199h45l-22 21v2h-2v2v199h-160l20 -21h115zM754 496h-21v-140l21 -20v160zM711 350l20 -20h19l-23 20h-16zM197 98l-21 21q-2 0 -2 2v2v27l-20 20v-72h43zM618 156h15l-15 14v-14zM750 156l-23 20h-104l22 -20h105zM580 176h-420 l20 -20h400v20zM754 162v16l-21 21v-17zM733 240l21 -21v19l-21 20v-18zM754 293h-160l20 -21h115h2v-2h2l21 -22v45zM246 233l20 -20h463h2h2l21 -23v17l-27 26h-481zM487 532l-22 23v2v57l-21 21v-103h43zM465 670h-74l21 -21h28h2v-2l23 -22v45zM733 66l21 -21v18l-21 21 v-18zM594 612l20 -22h58h2l22 -23v45h-102zM537 553l20 -21h57h2l23 -22v43h-102zM516 532l-20 21h-17l21 -21h16zM188 233l21 -20h18l-22 20h-17zM129 59l23 -20h598l-23 20h-598zM522 643l-20 21v-105l26 -27h17l-21 23h-2v2v86zM362 438l109 -108h51v108h-160zM385 403 v-131h137v50h-53h-4zM43 1018l20 -21h27h2h2v-2l23 -20v18q0 4 4 4h29h2v-2l22 -20v18q0 4 4 4h551h2q0 -2 2 -2l21 -20v43h-711zM778 532l-22 23v2h-2v57l-21 21v-103h45zM348 700l-78 80v-508h107v140l-27 26h-2v2v2v258zM139 -106l-108 108h-17l21.5 -21.5t36 -37 t34.5 -34.5l15 -15h18zM145 -82l-86 86h-2v2v985l-20 21v-1004l108 -108v18zM180 -106h713l-107 108h-20h-25h-20h-25h-20h-25h-14h-31h-12h-33h-12h-33h-6h-39h-10h-37h-4h-41h-10h-35h-4h-41h-6h-39h-6h-39h-9h-36h-4h-44h-6h-28zM872 438q-23 23 -48 48.5t-31 31.5v-510 l106 -108v512zM877 446h16l-107 107h-18l23 -21zM793 692v-133l106 -108v135zM819 678h74l-107 108h-512l80 -79h434h3z" />
<glyph unicode="h" d="M903 494h-18l22 -23v-2v-582v-2h-2v-2h-2h-260q-2 0 -4 2l-115 117h-2v2v315h-137v-432v-2h-2v-2h-2h-203q-2 0 -2 2l-22 23v-21v-2h-2q0 -2 -2 -2h-29q-2 0 -4 2l-115 117h-2v2v1045q0 4 4 4h262h2l117 -117v-4v-227h137v344q0 4 4 4h262h3l116 -117v-4v-434v-2l-2 -2 h-2zM899 932l-106 106v-424l106 -106v424zM377 322l-107 108v-424l107 -108v424zM211 459v-19l20 -20v18zM676 111v-74h20v53zM733 111v-74h21v53zM739 551l15 -14v14h-15zM733 152l21 -23v395l-21 21v-393zM94 37h23v84q0 4 4 4h18l-22 20v2v3v260l-23 20v-393zM117 436 h-17l17 -16v16zM154 37h20v53l-20 21v-74zM174 100v19l-27 26h-18l23 -22zM174 410l-20 20v-278l20 -23v281zM211 401v-364h20v342zM231 410l-26 26h-45l20 -22h27h2h2l20 -23v19zM639 971v45h-74l21 -21h28h2v-2zM750 647l-23 21h-16l20 -21h19zM676 647h43l-43 43v-43z M754 653v336l-21 21v-336zM754 1016h-15l15 -15v15zM676 731l20 -20v278l-20 21v-279zM696 1016h-14l14 -15v15zM559 674l21 -21v336l-21 21v-336zM522 530v21h-160l21 -21h139zM348 584l-20 20v-74h43l-21 23h-2v2v29zM555 588h2h2l21 -23v45h-246l20 -22h201zM559 37h45 l-22 22v2h-2v492l-21 22v-538zM633 37l-21 20h-18l20 -20h19zM653 725l43 -43v16l-26 27h-17zM274 668l23 -21h278l-22 21h-279zM305 494l21 -21h196v21h-217zM662 125l-23 20v2v3v550q0 4 4 5h19l-23 22v2v232l-21 20v-918l21 -20v78q0 4 4 4h19zM94 705h23v53q0 4 4 4h18 l-22 22v2v2v27l-23 21v-131zM174 1016h-14l14 -15v15zM168 530l-21 21h-18l23 -21h16zM94 530h45l-22 23v2v86l-23 21v-132zM117 842h-17l17 -15v15zM211 864v-76l20 -20v76zM174 842h-14l14 -15v15zM129 784l45 -45v19l-27 26h-18zM174 610h-14l14 -16v16zM100 668l21 -21 h47l-21 21h-47zM174 653v74l-20 23v-76zM174 537v47l-20 20v-47zM197 762l-21 22q-2 0 -2 2v2v27l-20 21v-48l26 -26h17zM211 530h20v197l-20 23v-220zM231 739v19l-26 26h-17zM231 1016h-14l14 -15v15zM211 1010v-105l20 -20v104zM188 899l43 -43v16l-26 27h-17zM154 905 l26 -26h17l-21 22h-2v2v86l-20 21v-105zM100 1016l17 -15v15h-17zM129 899l23 -20h16l-21 20h-18zM94 905l27 -26h18l-22 22v2v86l-23 21v-105zM270 500l27 -27h16l-22 21v2v2v143l-21 21v-162zM711 145l22 -22l21 -23v19l-27 26h-16zM696 119l-26 26h-17l43 -45v19z M43 1016l14 -15v15h-14zM72 899l20 -20h19l-21 20h-18zM72 494l20 -21h115h2v-2h2l20 -22v20q0 4 5 4h49l-21 21h-192zM696 584l-20 20v-452l26 -27h17l-21 20l-2 2v3v434zM270 1038v-333h107v227zM139 -109l-108 109h-17l21.5 -21.5t36 -37t34.5 -35.5l15 -15h18zM145 -84 l-86 86h-2v2v465q0 4 4 4h21l-23 21v2h-2v2v376q0 4 4 5h21l-23 22l-2 2v86l-20 21v-1004l108 -108v18zM180 -109h191l-107 109h-192zM522 328v108h-248l109 -108h139zM645 -109h248l-107 109h-249zM872 494q-23 23 -48 49t-31 32v-569l106 -108v569zM877 502h16l-107 108 h-104l20 -22h86h3z" />
<glyph unicode="i" horiz-adv-x="487" d="M362 901l23 -22v-2v-988q0 -4 -4 -4h-203q-2 0 -2 2l-22 21v-19v-2h-2v-2h-2h-29q-2 0 -4 2l-115 115l-2 2v2v1045q0 4 4 4h262q2 0 2 -2l117 -115v-4v-29v-2h-2v-2h-2h-19zM377 934l-15 16q-16 15 -35.5 33t-36 35.5t-20.5 21.5v-16l16 -16q15 -15 33.5 -34.5t36 -36.5 t21.5 -22v19zM154 983v-367l20 -20v367zM231 510v16l-26 27h-51v-430l20 -21v426q0 4 4 4h29h2l2 -2zM117 961h-17l17 -17v17zM231 961h-14l14 -17v17zM211 954v-395l20 -20v395zM129 119l23 -23h16l-21 23h-18zM139 590l-22 22v2v320l-23 20v-858h45l-22 23v2v2v463 q0 4 4 4h18zM211 66l20 -21v453l-20 20v-452zM168 590l-21 20h-18l23 -20h16zM43 1018l14 -14v14h-14zM72 59l20 -20h135l-22 20h-133zM111 997l-17 15v-15h17zM139 -106l-108 108h-17l21.5 -21.5t36 -37t34.5 -34.5l15 -15h18zM145 -84l-86 86v2h-2v2v29q0 4 4 4h21l-23 22 h-2v2v928l-20 21v-1004l108 -108v16zM377 874l-15 16q-16 15 -35.5 34.5t-36 37t-20.5 21.5v-977q0 -4 -4 -4h-194l108 -108h197v980zM354 909h17l-107 109h-164l21 -21h29h2v-2l22 -22v20q0 4 4 4h88v-2h2z" />
<glyph unicode="j" d="M907 -115h-2v-2h-2h-29l-2 2l-22 23v-21v-2h-2h-2v-2h-725q-2 0 -2 1t-2 1l-115 117h-2v2v522q0 4 4 4h19l-21 23h-2v2v145q0 4 4 5h78l-80 79q-2 0 -2 2v2v261q0 4 4 4h784h3l116 -117v-2v-1047v-2zM899 932l-15 16q-16 15 -34.5 34t-35.5 36.5t-21 21.5v-1034l106 -108 v1034zM444 690v-248l78 -80v250zM618 981v-743l21 -21v744zM676 981v-918l20 -20v918zM211 633v-17l20 -22v18zM270 633v-76l27 -27h16l-22 23v2v57zM37 328h45l-23 22h-2v2v115l-20 20v-159zM580 799v16l-27 27h-424l23 -21h403h2l2 -2zM37 154h45l-23 22h-2v2v29q0 4 4 4 h21l-23 22v3h-2v2v26l-20 21v-131zM231 467l-20 20v-190l20 -21v191zM43 291l20 -21h164l-22 21h-162zM238 473h163l-22 21h-162zM174 524l-20 23v-219h20v196zM117 584l-23 20v-250l23 -20v250zM72 348l20 -20h19l-21 20h-18zM639 100v19l-21 20v-16zM639 174h-422l21 -20 h376h2v-2l23 -21v43zM211 168v-14h16zM72 174l20 -20h82v20h-102zM43 117l20 -21h570l-21 21h-569zM575 211l-22 22h-481l20 -22h483zM94 938h17l-17 14v-14zM100 899l21 -20h395l-20 20h-396zM522 885v18l-20 21v-19zM522 958h-422l21 -20h377h2v-2l22 -23v45zM94 821h45 l-22 23v2v26l-23 23v-74zM580 958h-15l15 -16v16zM559 952v-104l21 -21v105zM406 479v133l-21 21v-133zM406 668h-72l20 -21h27h2l2 -2l21 -20v43zM328 662v-105l20 -20v104zM305 551l21 -21h16l-20 21h-17zM285 530l-21 21h-104l20 -21h105zM227 590l-22 20h-105l21 -20 h106zM57 494h-14l14 -15v15zM82 37l-23 22v2h-2v29l-20 21v-74h45zM604 211l-22 22v3h-2v2v548l-21 21v-569l27 -27h18zM522 319h-137v-49h133h4v49zM377 322l-107 108v-160h107v52zM690 37l-20 20h-598l20 -20h598zM633 211l-21 22h-18l20 -22h19zM522 350l-84 86h-164 l109 -108h139v22zM43 668l20 -21h144h2l2 -2l20 -20v18q0 4 5 4h30h2v-2l23 -20v43h-248zM57 989l-20 21v-189h20v168zM37 557l20 -20v104l-20 21v-105zM754 973v43h-711l20 -21h551h2v-2l23 -20v18q0 4 4 4h29h2v-2l22 -20v18q0 4 4 4h29h2l2 -2zM92 705h348h2l80 -80v159 h-508zM35 530h16l-20 21h-17zM836 -109l-21.5 21.5t-36 37t-34 35t-17.5 15.5h-713l21.5 -21.5l36 -36t34 -33.5t15.5 -18h715zM842 -84l-86 86v2h-2v957l-21 20v-975l109 -108v18zM848 -80l29 -29h16l-107 109h-18z" />
<glyph unicode="k" d="M907 494l-84 -84l84 -84v-2v-58v-2v-2h-2h-2h-18l22 -22v-4v-349q0 -4 -4 -4h-260q-2 0 -4 2l-115 117h-2v2v287h-137v-404v-2h-2v-2h-2h-203q-2 0 -2 2l-22 23v-21v-2h-2l-2 -2h-29q-2 0 -4 2l-115 117h-2v2v1045q0 4 4 4h262h2l117 -117v-2v-258h82l55 55v318q0 4 4 4 h262h3l116 -117v-2v-436v-2v-2zM899 932l-106 106v-424l106 -106v424zM733 342v-305h21v285zM377 293l-107 108v-395l107 -108v395zM94 430v-393h45l-22 22v2v349zM94 836v-277h45l-22 23v2v231zM305 580l21 -21h196v21h-217zM522 639h-276l45 -45v20q0 4 4 4h227v21z M154 618h43l-21 21q-2 0 -2 2v2v143l-20 21v-189zM227 618l-22 21h-17l21 -21h18zM256 618l-23 21v2h-2v2v115l-20 20v-133l27 -27h18zM231 813h-71l20 -20h27h2v-2h2l20 -23v45zM270 586l27 -27h16l-43 45v-18zM174 1016h-14l14 -15v15zM94 907h45l-22 23v2v2v55l-23 21 v-103zM117 1016h-17l17 -15v15zM168 907l-21 23h-18l23 -23h16zM197 907l-21 23h-2v2v2v55l-20 21v-76l26 -27h17zM231 1016h-14l14 -15v15zM211 934l20 -21v76l-20 21v-76zM231 885v18l-26 27h-17zM129 580l23 -21h133l-21 21h-135zM618 807v-367l21 -20v366zM733 981v-16 l21 -23v19zM733 647h21v139l-21 21v-160zM754 797v18l-27 27h-45l20 -21h27h2v-2h2zM618 401v-307h21v285zM696 879v20h-43l21 -20h22zM639 932l-21 20v-73h44l-23 22v2v29zM733 848l21 -21v76l-21 21v-76zM754 932l-27 26h-104l22 -20h84l2 -2h2l21 -23v19zM676 588h20v227 l-20 21v-248zM565 436l21 -22h28h2l23 -23v19l-27 26h-47zM565 1016l21 -21h143h2q0 -2 2 -2l21 -20v43h-189zM594 842l22 -23l23 -22v45h-45zM604 37l-22 22v2h-2v349l-21 20v-393h45zM211 877l20 -21v16l-20 23v-18zM559 528l21 -20v309q0 4 4 4h20l-22 23q-2 0 -2 2v143 l-21 21v-482zM231 362v44h-71l20 -21h27h2h2zM154 94h20v285l-20 22v-307zM211 63l20 -20v307l-20 21v-308zM129 57l23 -20h75l-22 20h-76zM690 37l-20 20h-76l20 -20h76zM682 436l14 -16v16h-14zM43 1016l14 -15v15h-14zM72 870l22 -22l23 -21v19q0 4 4 4h106l-22 20h-133z M72 522l20 -20h483l-22 20h-481zM72 465l22 -23l23 -22v20q0 4 4 4h401v21h-450zM719 356l-21 23h-2v2v29l-20 20v-367l20 -20v309q0 4 4 4h19zM377 932l-107 106v-362h107v256zM139 -109l-108 109h-17l21.5 -21.5t36 -37t34.5 -35.5l15 -15h18zM145 -84l-86 86h-2v2v436 q0 4 4 4h21l-23 21v2h-2v2v29q0 4 4 4h21l-23 22h-2v2v320q0 4 4 4h21l-23 22h-2v2v115l-20 21v-1004l108 -108v18zM180 -109h191l-107 109h-192zM522 299v51l-55 56h-193l109 -107h139zM899 236l-106 106v-338q0 -4 -5 -4h-251l108 -109h254v345zM877 270h16l-107 107h-75 l43 -43v18q0 4 4 4h30h3v-2zM899 322l-13 14q-14 14 -31 31.5t-35.5 35t-26.5 27.5v-47l106 -109v48zM817 416q4 6 16.5 17t24.5 24.5t23.5 25l15.5 15.5l-109 110l-81 -82l84 -84z" />
<glyph unicode="l" d="M907 -113q0 -2 -2 -2h-2h-725h-2l-22 23v-19v-2h-2v-2h-2h-29h-4l-115 117q-2 0 -2 2v2v1045q0 4 4 4h262v-2h2l117 -117v-2v-664h287h2v-2l22 -20v18q0 4 4 4h88h3v-2l116 -114v-4v-261v-2zM899 150l-106 106v-250l106 -106v250zM94 983v-102h23v80zM211 983v-18l20 -21 v17zM328 199v-103h43l-21 23h-2v2v57zM211 924v-103h20v82zM754 74v16l-27 27h-16l22 -23zM696 131v45h-305l21 -22h260h2zM385 154h16l-16 16v-16zM754 233h-15l15 -14v14zM733 227v-104l21 -21v105zM676 123l26 -27h17l-21 23l-22 22v-18zM733 66l21 -21v16l-21 21v-16z M727 59h-481l20 -20h484zM256 39l-23 20l-22 23v-16l27 -27h18zM227 39l-22 20h-76l23 -20h75zM231 784h-14l14 -14v14zM160 784l14 -14v14h-14zM197 96l-21 23h-2v2v637l-20 20v-682h43zM211 123l20 -21v656l-20 20v-655zM168 821l-21 23h-22h-6h2h-21l21 -23h47zM117 846 v2v-2zM94 39h45l-22 20v2v2v754l-23 21v-799zM231 74v16l-26 27h-17l23 -23zM174 932l-20 20v-104l20 -21v105zM362 117l21 -21h307l-20 21h-308zM231 932l-26 26h-45l20 -20h27h2l2 -2l20 -21v17zM291 207l-21 20v-131h21v111zM690 213l-20 20h-396l23 -20h27h2v-2l22 -23 v21q0 4 4 4h338zM43 1018l20 -23h27h2h2l23 -22v18q0 4 4 4h86h2h2l20 -22v45h-188zM696 236l-20 20v-16l20 -21v17zM377 932l-13 14q-14 15 -31.5 32t-35.5 34.5t-27 27.5v-770h107v662zM139 -106q-4 4 -21.5 21t-37 35.5t-34.5 34t-15 17.5h-17l21.5 -21.5t36 -37 t34.5 -34.5l15 -15h18zM145 -84l-86 86v2h-2v2v985l-20 21v-1006l108 -106v16zM180 -106h713l-107 108h-714z" />
<glyph unicode="m" horiz-adv-x="1531" d="M1430 934v-1047v-2h-3v-2h-2h-143q-2 0 -2 1t-2 1l-23 23v-21v-2h-2q0 -2 -2 -2h-86q-2 0 -2 1t-2 1l-114 117h-3v2v635h-137v-752q0 -4 -4 -4h-260q-2 0 -2 1t-2 1l-115 117h-2v2v635h-137v-752v-2h-2v-2h-2h-203q-2 0 -2 2l-22 23v-21q0 -2 -2 -2h-2v-2h-29q-2 0 -2 1 t-2 1l-115 117h-2v2v1045q0 4 4 4h1307h2l117 -117v-2zM1421 932l-13 14q-13 15 -30.5 32t-36 34.5t-26.5 27.5v-1034l106 -108v1034zM1161 246v18l-26 27h-19zM377 641l-107 135v-770l107 -108v743zM94 750v-713h23v518q0 4 4 4h18l-22 23v2v2v143zM676 807v-16l20 -23v18z M1104 856v18q0 4 4 5h29h2l22 -23v18q0 4 4 5h86h2h2l23 -23v16l-27 27h-458v-20h81h3h2l20 -23v18q0 4 4 5h174h2h2zM160 725l14 -14v14h-14zM154 586l20 -21v133l-20 23v-135zM211 37h20v430l-20 20v-450zM231 479v17l-26 26h-45l20 -20h27h2l2 -2zM211 528l20 -20v190 l-20 23v-193zM231 725h-14l14 -14v14zM154 37h20v459l-20 20v-479zM129 582l23 -23h16l-21 23h-18zM1141 864v-43h43l-23 23zM1255 864v-801l23 -20v801zM879 864v-16l26 -27h19l-23 23zM633 37l-21 20h-18l20 -20h19zM639 43v655l-21 23v-658zM639 725h-16l16 -14v14z M580 758l-21 20v-741h45l-22 22v2h-2v697zM676 750v-713h43l-21 22h-2v2v668zM1278 913v45h-713l21 -20h665h2v-2h2zM750 37l-23 20h-16l20 -20h19zM285 879l-21 20h-221l20 -20h222zM37 938h45l-23 20v3h-2v2v26l-20 21v-72zM754 899h-160l20 -20h115h2h2l21 -23v43z M580 932l-21 20v-47l27 -26h18l-22 22v2h-2v29zM575 879l-22 20h-248l21 -20h249zM313 879l-22 22l-21 23v-19l27 -26h16zM72 958l20 -20h174v-2h2l23 -23v21q0 4 4 4h227v20h-450zM1278 995v21h-1235l20 -21h1215zM37 879h14l-14 16v-16zM754 43v801l-21 20v-801zM793 821 h100l-21 21h-79v-21zM913 842l21 -21h110v21h-131zM1255 905l23 -20v18l-23 21v-19zM1272 37l-21 20h-18l20 -20h19zM1176 842l20 -23l23 -20v43h-43zM1198 37h45l-22 22l-2 2v725l-21 21v-770zM696 758l-26 26h-105l21 -20h86q2 0 2 -2l22 -23v19zM1147 784l14 -16v16h-14z M1126 270l-22 21v2v2v549l-23 20v-567v-4v2v-258h23v229q0 4 4 4h18zM1141 297l20 -21v482l-20 20v-481zM61 842h-18l20 -21h609h2v-2l22 -20v43h-633h-4h2zM72 784l45 -45v21q0 4 4 4h110v20h-159zM139 -109l-20.5 20.5t-33.5 35t-33.5 34t-20.5 19.5h-17q8 -10 26.5 -27.5 t36 -35l31.5 -31.5l13 -15h18zM145 -84l-86 86h-2v2v756q0 4 4 4h21l-23 20v2h-2v2v27l-20 21v-830l108 -108v18zM180 -109h191l-107 109h-192zM522 647v137h-248l109 -137h139zM899 -109v750l-106 135v-772q0 -4 -5 -4h-251l108 -109h254zM1044 647v137h-247l108 -137h139z M1243 -109l-108 109h-76l108 -109h76zM1247 -84l-86 86v2v232l-20 20v-250l106 -108v18zM1282 -109h135l-108 109h-133z" />
<glyph unicode="n" d="M885 899l22 -20v-5v-987v-2h-2v-2h-2h-260q-2 0 -4 2l-115 117h-2v2v635h-137v-752v-2h-2v-2h-2h-203q-2 0 -2 2l-22 23v-21v-2h-2q0 -2 -2 -2h-29q-2 0 -4 2l-115 117h-2v2v1045q0 4 4 4h784h3l116 -117v-4v-29v-2q-2 0 -2 -2h-2h-18zM793 1038v-16q4 -4 19 -20.5 t33.5 -34t34 -33.5t19.5 -21v19zM377 641l-107 135v-770l107 -108v743zM94 750v-713h23v518q0 4 4 4h18l-22 23v2v143zM676 807v-19l20 -20v18zM270 924v-19l27 -26h16l-22 22zM211 37h20v430l-20 20v-450zM231 479v17l-26 26h-45l20 -20h27h2q0 -2 2 -2zM211 528l20 -20 v190l-20 21v-191zM231 725h-14l14 -14v14zM154 37h20v459l-20 20v-479zM160 725l14 -14v14h-14zM154 586l20 -21v133l-20 21v-133zM129 580l23 -21h16l-21 21h-18zM676 750v-19l20 -20v16zM37 879h14l-14 14v-14zM559 905l27 -26h18l-22 22v2h-2v29l-21 20v-47zM750 37 l-23 20h-16l20 -20h19zM633 37l-21 20h-18l20 -20h19zM639 43v655l-21 21v-656zM672 705h2l22 -23v16l-26 27h-47l22 -20h27zM594 899l20 -20h115h2h2l21 -23v43h-160zM729 842h2h-2zM676 690v-653h43l-21 22h-2v2v609zM754 43v801l-21 20v-14v-6v2v-783zM754 958h-189 l21 -22h168v22zM580 758l-21 20v-741h45l-22 22v2h-2v697zM305 899l21 -20h249l-22 20h-248zM285 879l-21 20h-221l20 -20h222zM696 758l-26 26h-105l21 -22h86h2l22 -23v19zM72 958l20 -22h174h2l23 -23v19q0 4 4 4h227v22h-450zM61 842h-18l20 -21h578h4h-2h29h2v-2 l22 -22v45h-633h-4h2zM72 784l45 -45v19q0 4 4 4h110v22h-159zM57 989l-20 21v-74h45l-23 22v3h-2v2v26zM139 -109l-20.5 20.5t-33.5 35t-33.5 34t-20.5 19.5h-17q8 -10 26.5 -27.5t36 -35l31.5 -31.5l13 -15h18zM145 -84l-86 86h-2v2v754q0 4 4 4h21l-23 22v2h-2v2v27 l-20 21v-830l108 -108v18zM180 -109h191l-107 109h-192zM522 647v137h-248l109 -137h139zM645 -109h248l-107 109h-249zM899 872l-106 109v-975l106 -108v974zM877 907h16l-107 109h-743l20 -21h725h3v-2z" />
<glyph unicode="o" d="M903 899h-18l22 -20v-5v-987v-2h-2v-2h-2h-725q-2 0 -2 2l-22 23v-21q0 -2 -2 -2l-2 -2h-29q-2 0 -2 1t-2 1l-115 117h-2v2v1045q0 4 4 4h784h3l116 -117v-2v-31v-2h-2v-2h-2zM899 932l-106 106v-16l106 -109v19zM94 981v-160h45l-22 23v2v115zM154 981v-102h43l-21 22 h-2v2v58zM618 750v-570l21 -20v569zM211 750v-455q0 -4 -4 -4h-170v-21h194v459zM754 37v20h-625l23 -20h602zM238 821h434h2v-2l22 -20v18q0 4 4 4h29h2q0 -2 2 -2l21 -20v43h-537zM154 139v-43h43l-21 21zM676 807v-653h20v632zM188 117l21 -21h541l-23 21h-539zM754 100 v686l-21 21v-684zM633 154l-21 20h-512l21 -20h29h2v-2l22 -21v19q0 4 4 4h455zM94 37h45l-22 22v2v86l-23 21v-131zM211 791l20 -23v47l-20 21v-45zM160 725l14 -14v14h-14zM154 354l20 -20v364l-20 23v-367zM217 958l21 -22h516v22h-537zM246 899l20 -20h488v20h-508z M100 784l21 -20h86l2 -2h2l20 -23v19l-26 26h-105zM129 348l23 -20h16l-21 20h-18zM270 270h107v400l-107 108v-508zM385 270h137v398h-137v-398zM522 676v108h-248l109 -108h139zM565 784l21 -20h28v-2h2l23 -23v45h-74zM211 905l27 -26h18l-23 22q0 2 -2 2v29l-20 20v-47z M94 354l27 -26h18l-22 22v2v406l-23 20v-424zM559 238l21 -21v541l-21 20v-540zM188 899l21 -20h18l-22 20h-17zM129 842l23 -21h22v21h-45zM72 348l20 -20h19l-21 20h-18zM43 231l20 -20h512l-22 20h-510zM57 989l-20 21v-682h45l-23 22h-2v2v637zM139 -109l-20.5 20.5 t-33.5 35t-33.5 34t-20.5 19.5h-17l107 -109h18zM145 -84l-86 86h-2v2v201l-20 22v-221l108 -108v18zM180 -109h713l-107 109h-714l80 -80zM899 872l-106 109v-975l106 -108v974zM877 907h16l-107 109h-743l20 -21h27h2h2v-2l23 -20v18q0 4 4 4h29h2v-2l22 -20v18q0 4 4 4 h610h3v-2z" />
<glyph unicode="p" d="M885 844l22 -23v-4v-491v-2v-2h-2h-2h-518v-433v-2l-2 -2h-2h-203q-2 0 -2 2l-22 21v-19v-2h-2v-2h-2h-29q-2 0 -4 2l-115 115q-2 0 -2 2v2v1045l2 2q0 2 2 2h258h4h522h3v-2l116 -115v-4v-86v-2v-2h-2h-2h-18zM899 932l-13 14q-14 15 -31 32t-35.5 34.5t-26.5 27.5v-75 q4 -4 19 -19.5t33.5 -34t34 -35t19.5 -20.5v76zM377 -100v424l-107 106v-424zM522 973v20q0 4 4 4h228v21h-654l21 -21h377v-2h2zM94 635v-596h45l-22 22v2v549zM328 635v-103h43l-21 23h-2v2v29q0 4 4 4h19zM94 809v-102h45l-22 22v2v55zM129 958l23 -20h313v20h-336z M559 575v-43h45zM522 612v2v-2zM522 707v77h-248l80 -77h168zM270 707h72l-72 71v-71zM473 879v-2v2zM618 866v-276h21v227q0 4 4 4h19l-23 23zM211 39h20v51l-20 23v-74zM231 102v19l-26 26h-17zM565 844l15 -17v17h-15zM754 524h-15l15 -16v16zM750 473l-23 23h-422 l21 -23h424zM270 473h43l-22 23v2v2v55l-21 20v-102zM733 809v-135l21 -21v133zM733 561h21v51l-21 23v-74zM754 625v18l-27 27h-16zM682 784l14 -14v14h-14zM676 559l20 -20v104q0 4 4 4h19l-21 23l-2 2v2v84l-20 20v-219zM653 844l21 -23h55h2h2l21 -22v45h-101zM594 553 l20 -21h76l-20 21h-76zM231 584l-20 20v-452l20 -21v453zM160 610l14 -14v14h-14zM266 590h2l23 -23v43h-74l21 -20h28zM754 479v19l-21 20v-18zM559 616l21 -20v221l-21 21v-222zM154 66l20 -21v76q0 4 4 4h19l-21 22h-2v3v2v432l-20 20v-538zM129 901l23 -20h313h6h-2h145 h2v-2l23 -23v21q0 4 4 4h111v20h-625zM211 707h20v22l-20 21v-43zM160 784l20 -20h27h2h2l20 -23v43h-71zM154 733l20 -20v45l-20 20v-45zM129 727l23 -20h16l-21 20h-18zM362 610l21 -20h172h2h2l21 -23v17l-27 26h-23q-4 0 -6 2q0 -2 2 -2h-164zM362 553l21 -21h139v21 h-160zM129 59l23 -20h16l-21 20h-18zM117 991l-23 21v-131h45l-22 22v2v29q0 4 4 4h18l-22 23v2v28zM43 1018l14 -17v17h-14zM72 844l22 -23l23 -22v18q0 4 4 4h401v23h-450zM72 670l22 -23l23 -22v18q0 4 4 4h203h2l22 -22v18q0 4 4 4h170v23h-450zM893 330l-107 106h-512 l109 -106h510zM545 938l-43 45v-45h43zM270 1051h-2h2zM139 -106l-108 108h-17l107 -108h18zM145 -84l-86 86v2h-2v2v637q0 4 4 4h21l-23 23v2h-2v2v143q0 4 4 4h21l-23 23v2h-2v2v143l-20 21v-1006l108 -106v16zM180 -106h191l-107 108h-192zM899 817l-27 27l-79 80v-133 l-2 -5q0 2 2 2v-346l106 -108v483zM877 852h16l-107 106h-249l20 -20h231h3z" />
<glyph unicode="q" horiz-adv-x="1013" d="M1022 -78q2 0 2 -2t-2 -4l-86 -86q-4 -4 -6 0l-197 197v-47l41 -41l17 -17l116 -117q2 0 2 -2t-2 -2l-59 -59q0 -2 -2 -2t-2 2l-117 117l-29 28h-520h-2l-22 23v-19v-2l-2 -2h-2h-29h-4l-115 117h-2v2v1045q0 4 4 4h784h3l116 -117v-2v-899zM676 809v-217h20v196zM94 201 v-162h45l-22 22v2v3v28q0 4 4 4h18l-22 23v2v29q0 4 4 4h18zM754 858v45h-160l20 -22h115h2h2zM231 248v18l-26 27h-76l23 -21h55h2v-2h2zM231 307v43h-43l23 -20zM324 940h2v-2l22 -23v21q0 4 4 4h29h2v-2h2l21 -23v46h-334l20 -21h232zM37 272h20v664q0 4 4 4h21l-23 23 h-2v2v26l-20 21v-740zM676 997h14l-14 15v-15zM377 385v287l-107 108v-508h43l-22 23v2v2zM328 907l20 -20v18l-20 21v-19zM385 926v-45h21v24zM444 983v-133l27 -27h16l-22 23v2v115zM559 809v-453l21 -20v452zM522 678v108h-248l109 -108h139zM459 823l-21 21h-168v-21 h189zM211 809v-420h20v399zM160 844l20 -21h27h2h2l20 -22v43h-71zM197 330l-21 22h-2v2v463l-20 21v-508h43zM385 393l80 80q2 2 4 2l2 -2q12 -12 23 -20q10 -8 17 -16.5t11 -12.5v246h-137v-277zM469 436q-4 -4 -12 -11t-13 -11l115 -115l21 -20v45l-27 28q-23 20 -41 39 l-28.5 28.5t-14.5 16.5zM479 236l78 -80h23v22l-27 29l-29 29h-45zM580 190v76l-21 21v-76zM580 844h-43l22 -21l21 -22v43zM618 967l27 -27h17l-23 23l-21 20v-16zM754 946v17l-21 20v-16zM754 1018h-72l20 -21h27h2h2l21 -22v43zM653 961l21 -21h76l-23 21h-74zM639 1018 h-131l20 -21h86h2l23 -22v43zM502 1012v-162l26 -27h17l-21 23h-2v2v143zM479 844l21 -21h16l-20 21h-17zM465 1018h-422l20 -21h377h2l23 -22v43zM100 903l21 -22h221l-20 22h-222zM565 961l21 -21h47l-21 21h-47zM139 272l-22 23v2v580l-23 20v-625h45zM211 299l20 -20v16 l-20 20v-16zM414 213l155 -156l57.5 -57.5t51 -52t36.5 -37.5l15 -14l25 24l-402 399l-22 -22q6 -10 28 -31q10 -10 27 -24zM604 881l-22 22v2h-2v2v27l-21 20v-73h45zM246 236l20 -23h135l-22 23h-133zM129 176l23 -20h254v20h-277zM129 119l23 -21h313v21h-336zM129 61 l23 -22h370v22h-393zM754 285v155l-21 21v-334h21v152q0 4 2 6h-2zM754 453v43h-72l20 -21h27h2l2 -2zM676 127h20v342l-20 20v-362zM211 240l27 -27h18l-45 45v-18zM733 559l21 -20v307l-21 22v-309zM43 236l20 -23h27h2h2l23 -23v19q0 4 4 4h106l-22 23h-162zM623 844 l22 -21h27h2l22 -22v43h-73zM653 555l21 -23h76l-23 23h-74zM899 934l-13 14q-14 15 -31 32t-35.5 34.5t-26.5 27.5v-888l13 -14q13 -15 30.5 -32.5t35 -36t27.5 -26.5v889zM139 -104q-4 4 -20.5 19t-33.5 33.5t-33.5 34t-20.5 19.5h-17l107 -106h18zM145 -82l-86 86h-2v2 v203l-20 20v-221l108 -108v18zM690 -104q-16 14 -34.5 32.5t-34 35t-26.5 27.5l-11 11h-512l108 -106h510zM897 -197q-2 2 -16.5 17.5t-33 34t-35.5 36t-24 23.5l-53 -53l111 -109zM725 35l-86 86v2v405q0 4 4 4h19l-23 23v2v2v258l-21 21v-742l107 -108v47zM1014 -80 l-111 111l-80 -82l109 -111z" />
<glyph unicode="r" d="M885 784l22 -22v-2v-262v-2l-84 -84l84 -84v-4v-435v-2q0 -2 -2 -2h-2h-260h-4l-115 117h-2v2v315h-137v-430v-2q0 -2 -2 -2h-2h-203h-2l-22 23v-19v-2l-2 -2h-2h-29h-4l-115 117h-2v2v1047q0 4 4 4h784v-2h3l116 -117v-2v-146v-2l-2 -2h-2h-18zM899 932l-106 108v-133 q4 -4 19 -20.5t33.5 -33.5t34 -33.5t19.5 -20.5v133zM377 -100v422l-107 108v-424zM211 459v-363h20v342zM502 459v-72h20v51zM559 459v-246h45l-22 20v3h-2v2v200zM465 915v19q0 4 4 4h281l-23 20h-567l20 -20h260h2v-2zM618 199v-19l21 -20v18zM754 973v43h-654l21 -21 h608h2h2zM639 508v45h-102l20 -21h57v-2h2zM545 532l-21 21l-2 2v2v25h-73l22 -21h27h2v-2l28 -27h17zM502 532h14l-14 15v-15zM459 532l-21 21h-18l20 -21h19zM430 532l-22 21v2h-2v2v25h-72l20 -21h27h2v-2h2l27 -27h18zM385 532h16l-16 15v-15zM342 532l-20 21h-17 l21 -21h16zM313 532l-22 21v2v2v25h-45l22 -23l29 -27h16zM168 532l-21 21h-75l20 -21h76zM37 532h45l-23 21v2h-2v2v377q0 4 4 4h21l-23 23h-2v2v26l-20 23v-480zM72 958l20 -20h19l-21 20h-18zM268 877h2h-2zM328 866v-18l20 -21v19zM385 866v-45h45l-22 23zM559 807v-217 h45l-22 22l-2 2v172zM682 784l14 -14v14h-14zM690 96l-20 21h-111v-21h131zM522 784h-248l109 -108h139v108zM385 618h137v50h-137v-50zM270 778v-160h107v54zM342 821l-20 21h-105l21 -21h104zM117 901h-17l17 -16v16zM139 821l-22 23v2v28l-23 21v-305h23v227q0 4 4 4h18z M168 821l-21 21h-18l23 -21h16zM211 791l20 -21v45l-20 23v-47zM174 874l-20 21v-47l20 -21v47zM57 1016h-14l14 -15v15zM174 537v221l-20 20v-219zM207 764h2q0 -2 2 -2l20 -21v17l-26 26h-45l20 -20h27zM211 561h45l-23 21v2h-2v2v143l-20 21v-189zM270 532h15l-15 15v-15 zM348 537v18l-20 20v-16zM465 537v18l-21 20v-16zM559 39h191l-23 20h-168v-20zM754 43v338l-21 20v-335zM754 436h-72l20 -20h27h2v-2h2l21 -23v45zM676 430v-307l20 -21v308zM676 590h20v112q0 4 4 5h19l-21 20l-2 2v2v27l-20 20v-188zM733 647h21v25l-21 20v-45zM754 682 v104l-21 21v-76q0 -4 -4 -4h-18l22 -22zM754 842h-131l22 -21h84h2h2l21 -22v43zM618 838v-222l21 -20v219zM594 610l20 -20h19l-21 20h-18zM580 842h-160l20 -21h115h2h2l21 -22v43zM406 901h-246l20 -20h82q4 0 4 -2v2h58q0 -2 2 -2l22 -23v21q0 4 4 4h29h2v-2h2l21 -23 v45zM117 989l-23 23v-47l23 -21v45zM633 154l-21 20h-53v-20h74zM618 240l21 -23v281l-21 20v-278zM168 938l-14 14v-14h14zM733 965l21 -21v17l-21 20v-16zM594 233l45 -45v19l-27 26h-18zM231 39v20h-43l21 -20h22zM94 39h23v199q0 4 4 4h18l-22 22v2v144l-23 20v-391z M174 436h-14l14 -14v14zM154 430v-162l20 -20v162zM129 262l45 -45v19l-27 26h-18zM117 436h-17l17 -14v14zM154 39h43l-21 20q-2 0 -2 2v2v144l-20 20v-188zM516 328q-8 8 -25.5 26.5t-35 36l-31.5 31.5l-14 14h-136l109 -108h133zM487 881l-22 20l-21 23v-43h43zM139 -106 q-4 4 -20.5 19t-33.5 33.5t-33.5 34t-20.5 19.5h-17l107 -106h18zM145 -84l-86 86q0 2 -2 2v465q0 4 4 4h146h2h2l20 -22v18q0 4 5 4h262h2l22 -22v18q0 4 4 4h29h2h2l21 -22v16q0 4 2 4l-2 -2v25h-52l-4 2q0 -2 2 -2h-489v-488l108 -106v16zM152 -80q12 -10 19 -18t9 -8 h191l-107 106h-192q12 -10 36 -35t44 -45zM645 -106h248l-107 106h-249zM899 322q0 2 -29.5 31.5t-56.5 54.5q-6 8 -11 13l-9 9v-424l106 -106v422zM817 418l80 80l-109 110l-81 -80q2 -4 15 -16t30 -29q18 -18 39 -41zM899 758q-4 2 -8 8l-9 9t-10 11q-20 20 -44.5 44 t-34.5 36v-250l106 -108v250zM877 793h16l-107 108h-307l21 -20h288v-2h3z" />
<glyph unicode="s" d="M885 901l22 -20v-4v-203v-2v-2h-2h-2h-76l80 -80v-4v-697v-2h-2v-2h-2h-725q-2 0 -2 2l-22 23v-21v-2h-2q0 -2 -2 -2h-29q-2 0 -4 2l-115 115l-2 2v2v260q0 4 4 4h518v52h-401h-4l-115 116h-2v2v611q0 4 4 4h784h3l116 -117v-4v-29v-2q-2 0 -2 -2h-2h-18zM877 909h16 l-107 109h-395l21 -21h86h2v-2l22 -22v20q0 4 4 4h262h3v-2zM117 178l-23 21v-160h656l-23 20h-606q-4 0 -4 4v115zM385 1012v-15h16zM754 45v16l-21 23v-18zM754 961h-15l15 -17v17zM733 954v-47l21 -20v47zM711 901l20 -20h19l-23 20h-16zM696 961h-14l14 -17v17zM676 954 v-47l26 -26h17l-21 22q-2 0 -2 2v29zM653 901l21 -20h16l-20 20h-17zM639 961h-16l16 -17v17zM618 954v-47l27 -26h17l-23 22v2v29zM594 901l20 -20h19l-21 20h-18zM580 961h-15l15 -17v17zM559 954v-47l27 -26h18l-22 22v2h-2v29zM537 901l20 -20h18l-22 20h-16zM754 823 v21h-275l21 -21h254zM487 881l-22 22v2v29l-21 20v-104l27 -27h16l-22 23v2v29q0 4 4 4h18zM459 823l-21 21h-18l20 -21h19zM430 823l-22 23q-2 0 -2 2v86l-21 20v-104l27 -27h18zM401 823l-22 21h-17l21 -21h18zM371 823l-21 23h-2v2v143l-20 21v-162l26 -27h17zM342 823 l-20 21h-17l21 -21h16zM328 590h43l-21 22h-2v2v2v27l-20 21v-74zM618 270h44l-23 23v2v2v143l-21 21v-191zM690 270l-20 23h-17l21 -23h16zM696 276v338l-20 21v-338zM604 532l-22 23v2h-2v57l-21 21v-103h45zM559 489v-249l27 -27h18l-22 23v2h-2v231zM754 119h-508 l20 -23h463h2h2l21 -22v45zM754 178l-21 21v-17l21 -20v16zM217 176l21 -20h512l-23 20h-510zM211 96h45l-23 23v2h-2v2v27l-20 20v-74zM754 670h-15l15 -15v15zM733 664v-424l21 -21v424zM594 233l20 -20h115h2h2l21 -23v17l-27 26h-133zM614 475q0 -2 2 -2l23 -22v45h-74 l21 -21h28zM696 670h-73l22 -21h27h2v-2l22 -22v45zM618 664v-105l21 -20v104zM594 553l20 -21h19l-21 21h-18zM580 670h-246l20 -21h201h2v-2h2l21 -22v45zM371 475l-21 21q0 2 -2 2v2v26l-20 21v-45l26 -27h17zM522 612h-160l21 -22h115h2l22 -23v45zM516 532l-20 21h-142 q-2 0 -4 2q0 -2 2 -2h-18l20 -21h162zM522 539v16l-20 23v-19zM522 475v21h-160l21 -21h139zM305 496l21 -21h16l-20 21h-17zM291 670h-17l17 -15v15zM270 664v-162l27 -27h16l-22 21v2v2v143zM209 473q0 2 -2 2h20l-22 21h-168v-21h168q2 0 4 -2zM37 532h45l-23 23h-2v2 v434l-20 21v-480zM291 1018h-131l20 -21h27h2v-2h2l20 -22v20q0 4 5 4h30q2 0 2 -2l23 -22v45zM231 510v16l-26 27h-17l23 -23zM231 844h-20v-285l20 -20v305zM231 963l-20 20v-102h20v82zM174 991l-20 21v-453l26 -27h17l-21 23h-2v2v434zM129 553l23 -21h16l-21 21h-18z M117 1018h-17l17 -14v14zM94 1012v-453l27 -27h18l-22 23v2v434zM72 553l20 -21h19l-21 21h-18zM57 1018h-14l14 -14v14zM256 475l-45 43v-16l27 -27h18zM285 475l-21 21h-18l20 -21h19zM270 823h43l-22 23v2v115l-21 20v-160zM348 1018h-14l14 -14v14zM406 961h-15l15 -17 v17zM465 961h-16l16 -17v17zM160 233l20 -20h395l-22 20h-393zM154 227v-131h20v111zM479 901l21 -20h16l-20 20h-17zM522 963l-20 20v-76l26 -26h17l-21 22h-2v2v58zM788 436v2v-2zM43 238l20 -25h27h2h2l23 -23v48h-74zM791 438v2v-2zM342 707l-72 73v-73h72zM793 1040 v-16q4 -4 19 -20.5t33.5 -34t34 -33.5t19.5 -21v19zM522 330v106h-280q-4 0 -5 1t-4 1q2 0 3 -2h-54q-2 0 -3 1t-3 1l2 -2h-110q-4 0 -5.5 1t-3.5 1q2 0 2 -2h-47l107 -106h401zM139 -106l-108 108h-17q8 -10 26.5 -27.5t36 -35l31.5 -31.5l13 -14h18zM145 -82l-86 84v2h-2 v2v201l-20 24v-223l108 -108v18zM180 -106h713l-107 108h-714zM899 586q-16 14 -31 28l-55 56q-6 8 -11 13l-9 9v-248q0 -4 -2 -4h2v-432l106 -108v686zM819 678h74l-107 108h-512l80 -79h434h3v-2zM899 874l-13 14q-14 15 -31 32.5t-35.5 35t-26.5 27.5v-192l106 -107v190z " />
<glyph unicode="t" horiz-adv-x="1038" d="M936 668h-2h-2h-285v-781v-2h-2v-2h-2h-29q-2 0 -4 2l-22 23v-21v-2l-2 -2h-2h-144q-2 0 -4 2l-22 23v-21v-2h-2v-2h-2h-29l-2 2l-117 117v2v664h-141q-2 0 -4 2l-115 114q-2 0 -2 2v2v261q0 4 4 4h813h2l117 -117v-4v-260v-2v-2zM928 932l-14 13l-30.5 30.5t-36 35 t-26.5 27.5v-250l107 -106v250zM639 -102v772l-109 108v-772zM319 797v18l-26 27h-250l20 -21h232h2v-2zM530 924v-103h45l-22 23h-2v2v55zM588 924v-45h22v22zM319 856v16l-26 27h-221l20 -20h203h2zM668 971v20q0 4 4 4h28h2q0 -2 3 -2l20 -22v20q0 4 4 4h55v21h-741 l20 -21h173h2l2 -2l22 -22v20q0 4 4 4h86h2v-2l23 -22v20q0 4 4 4h262h2v-2zM430 37l-20 20h-19l21 -20h18zM356 37h45l-22 22h-2v2v900l-21 20v-944zM436 43v889l-22 20v-889zM436 958h-16l16 -16v16zM37 995h14l-14 15v-15zM240 981v-18l22 -21v19zM43 958l20 -22h193 l-20 22h-193zM778 821l-20 21h-19l21 -21h18zM705 821h45l-23 23h-2v2v115l-20 20v-160zM784 958h-16l16 -16v16zM784 827v105l-22 20v-104zM82 879l-23 22l-2 2v29l-20 20v-73h45zM319 958h-14l14 -16v16zM299 905l20 -20v47l-20 20v-47zM647 848l21 -21v134l-21 20v-133z M565 842l21 -21h76l-21 21h-76zM51 821l-14 15v-15h14zM299 848l20 -21v17l-20 20v-16zM479 958l21 -22h26h2l23 -23v19q0 4 4 4h29h2h2l22 -23v45h-131zM924 676l-109 108h-278l108 -108h279zM262 676v108h-248q8 -10 26.5 -27.5t36 -34.5t31.5 -32l13 -14h141zM401 -109 l-108 109h-19l109 -109h18zM406 -84l-87 86v2v782l-20 21v-801l107 -108v18zM575 -109l-108 109h-133q8 -10 26.5 -27.5t36 -35t30.5 -31.5l13 -15h135zM580 -84l-86 86v2v928l-21 20v-946l107 -108v18zM508 0q8 -10 26.5 -27.5t36 -35t30.5 -31.5l13 -15h19l-109 109h-16z " />
<glyph unicode="u" d="M905 -113v-2h-2h-725q-2 0 -2 2l-22 23v-21v-2h-2q0 -2 -2 -2h-29q-2 0 -4 2l-115 117h-2v2v1045q0 4 4 4h262h2l117 -117v-4v-664h137v781q0 4 4 4h203h2h2l21 -23v19q0 4 4 4h30h3l116 -117v-4v-1045v-2h-2zM793 1040v-1032l106 -108v1034zM754 74v45h-217l20 -23h172 h2h2zM696 451v18l-26 27h-47l22 -21h27h2v-2zM117 266q0 4 4 4h18l-22 23v2v2v29q0 4 4 4h18l-22 22v2v609l-23 20v-770h45l-22 23v2v28zM522 131v21q0 4 4 4h228v20h-682l20 -20h115h2v-2h2l20 -23v21q0 4 5 4h262h2v-2zM270 96h246l-20 23h-226v-23zM227 96l-22 23h-162 l20 -23h164zM37 156h45l-23 22h-2v2v25q0 4 2 6q-2 0 -2 -2v29v753l-20 21v-856zM231 276v687l-20 20v-686zM231 1018h-71l20 -21h27h2v-2h2l20 -22v45zM154 1012v-656l20 -20v655zM129 350l23 -20h16l-21 20h-18zM117 1018h-74l20 -21h27h2l2 -2l23 -22v45zM59 213v-2v2v0z M37 96h14l-14 17v-17zM231 102v19l-20 20v-18zM152 270h75l-22 23h-76zM545 96l-43 45v-18l26 -27h17zM750 213l-23 20h-598l23 -20h598zM676 502l20 -21v510l-20 21v-510zM696 1018h-14l14 -14v14zM559 270h16l-16 17v-17zM559 330h21v198q0 4 4 4h20l-22 23v2h-2v434 l-21 21v-682zM639 1018h-16l16 -14v14zM618 1012v-453l21 -20v452zM594 553l20 -21h19l-21 21h-18zM580 1018h-15l15 -14v14zM639 469l-21 20v-159h21v139zM690 270l-20 23h-105l21 -23h104zM754 236l-21 22v-18l21 -21v17zM719 270l-21 23l-2 2v2v143l-20 21v-164l26 -27 h17zM733 66l21 -21v16l-21 23v-18zM754 266l-27 27h-16l43 -45v18zM43 59l20 -20h687l-23 20h-684zM754 1020l-21 20v-743l21 -21v744zM270 1040v-770h107v664zM139 -106q-4 4 -20.5 20t-33.5 34.5t-33.5 34t-20.5 19.5h-17q8 -10 26.5 -27.5t36 -35l31.5 -31.5l13 -14h18z M145 -82l-86 86h-2v2v27l-20 20v-45l108 -108v18zM180 -106h713l-107 108h-714z" />
<glyph unicode="v" d="M907 932v-871v-2l-174 -174h-2v-2h-2h-434q-2 0 -4 2l-115 117l-117 115l-28 28l-29 31q-2 0 -2 2v871q0 4 4 4h199h6h-2h59h2l117 -117v-4v-662h137v312q0 4 2 6q-2 0 -2 -4v465q0 2 2 4h2h25h6h-2h53h6h115h2h2l21 -23v19q0 4 4 4h30h3l116 -117v-4zM793 1038v-858 l106 -108v860zM729 -106q8 8 33.5 32.5t53.5 52t51.5 52t29.5 30.5l-109 111l-170 -168zM90 995h2h2v-2l23 -22v20q0 4 4 4h86h2q0 -2 2 -2l20 -22v45h-188l20 -21h27zM94 981v-801v-4v2v-24h23v807zM211 981v-336l20 -22v338zM575 37l-22 20h-336l21 -20h313h6h-2h20z M559 37h-2l2 -2v2zM211 37h16l-16 14v-14zM580 43v16l-21 23v-19zM580 90q0 4 4 4h55v23h-451l21 -23h346h2h2l21 -22v18zM188 639l43 -45v18l-26 27h-17zM502 197v-17l26 -26h17zM618 981v-45h44l-23 22zM676 588h20v256l-20 20v-276zM676 905l20 -20v16l-20 23v-19z M696 958h-43l21 -22l22 -23v45zM623 899l22 -20h27h2l22 -23v16l-26 27h-47zM594 174l20 -20h82v20h-102zM154 211h20v403q0 4 4 4h19l-21 21q-2 0 -2 2v2v289l-20 20v-741zM174 958h-14l14 -16v16zM160 174l20 -20h314q6 0 6 -2q0 2 -2 2h18l-20 20h-336zM211 211h45 l-23 22l-2 3v348l-20 20v-393zM154 94h43l-21 23q-2 0 -2 2v2v26l-20 21v-74zM618 211h44l-23 22v3v636l-21 21v-682zM696 1016h-131l21 -21h28h2v-2l23 -22v20q0 4 4 4h53v21zM559 1010v-830l27 -26h18l-22 22q-2 0 -2 2v811zM537 174l20 -20h18l-22 20h-16zM522 231h-276 l20 -20h232h2l22 -23v43zM559 35v-2v2zM690 211l-20 20h-17l21 -20h16zM682 551l14 -14v14h-14zM719 211l-21 22h-2v3v288l-20 21v-307l26 -27h17zM37 152l20 -23v860l-20 21v-858zM750 211l-23 20h-16l20 -20h19zM754 1018l-21 20v-800l21 -21v801zM618 1049l-2 2z M559 1049v2v-2zM557 1053h2h-2zM377 270v662l-107 106v-768h107zM211 1049v2v-2zM209 1053h2h-2zM719 -109q-4 4 -19.5 20.5t-34 35l-34 34l-19.5 19.5h-424l109 -109h422z" />
<glyph unicode="w" horiz-adv-x="1531" d="M1430 -117v-2q-2 0 -3 -2h-2l-1247 6q-2 0 -2 2l-22 21v-19v-2h-2v-2h-2h-29q-2 0 -4 2l-115 115q-2 0 -2 2v2v1041q0 8 4 8h262h2v-2l117 -115v-4v-664h137v781q0 4 4 4h262h3v-2l116 -115v-4v-664h137v781q0 4 5 4h202h2h2v-2l23 -21v19q0 4 4 4h29h2v-2l117 -121v-4 v-1045zM1421 928l-13 14t-30.5 32.5t-36 37t-26.5 28.5v-1034l106 -112v1034zM1219 1020v2v-2zM1255 983v-653h23v633zM1278 74v43h-219l20 -21h172h2h2zM37 96h45l-23 23l-2 2v31q0 4 4 4h21l-23 20v2h-2v2v811l-20 21v-916zM154 270h20v490q0 4 4 4h19l-21 22h-2v2v203 l-20 21v-742zM231 1018h-14l14 -17v17zM270 213h15l-15 14v-14zM1198 461v-164l27 -27h18l-22 23l-2 2v24v9v-2v112zM1044 131v21q0 4 5 4h229v20h-684l20 -20h115h2v-2h2l21 -23v21q0 4 4 4h262l2 -2zM1038 96l-20 21h-221l22 -21h219zM793 96h14l-14 17v-17zM750 96 l-23 21h-655l20 -21h658zM559 156h45l-22 20v2h-2v2v811l-21 21v-856zM639 1018h-74l21 -21h28v-2h2l23 -22v45zM1221 328l2 2zM1233 291l22 -21l23 -22v43h-45zM1255 240l23 -21v17l-23 20v-16zM754 102v19l-21 20v-18zM1212 270l-20 21h-105l21 -21h104zM1081 330h23v198 q0 4 4 4h18l-22 23v2v434l-23 21v-682zM1161 1018h-14l14 -17v17zM1141 1012v-453l20 -20v452zM1116 553l23 -21h16l-20 21h-19zM1104 1018h-17l17 -17v17zM1081 270h17l-17 17v-17zM1161 469l-20 20v-159h20v139zM653 233l21 -20h577h2h-2h21l-21 20h-598zM639 266q0 4 4 4 h19l-23 23v2v668l-21 20v-770h44l-23 23v2v28zM674 270h76l-23 21h-74zM676 330h20v661l-20 21v-682zM754 276v687l-21 20v-686zM754 1018h-72l20 -21h27h2v-2h2l21 -22v45zM94 983v-770h45l-22 23v2v725zM154 199v-17l26 -26h17zM211 182l27 -26h18l-23 20v2h-2v2v549 l-20 21v-568zM414 182l26 -26h19l-45 43v-17zM522 156v20h-73l22 -20h51zM72 176l20 -20h76l-21 20h-75zM522 233h-248l23 -20h113h2l2 -2l22 -21v19q0 4 4 4h82v20zM246 176l20 -20h164l-20 20h-164zM211 1012v-221l20 -21v221zM188 784l23 -20l20 -23v17l-26 26h-17z M174 1018h-14l14 -17v17zM188 176l21 -20h18l-22 20h-17zM174 233h-45l45 -43v43zM117 1018h-74l20 -21h27h2v-2h2l23 -22v45zM1069 96l-22 23l-23 22v-18l27 -27h18zM1219 469l-27 27h-45l20 -23h27h2l23 -22v18zM1219 991l-21 21v-512l21 -21v512zM1255 66l9.5 -9.5 t13.5 -11.5v16l-23 21v-16zM1278 991l-27 27h-24h-6h2h-19l21 -21h26h2v-2h2l23 -22v18zM43 59l20 -20h1209l-21 20h-143h-1065zM1278 1020l-23 20v-16l23 -23v19zM899 932l-13 14q-14 15 -31 32t-35.5 34.5t-26.5 27.5v-770h106v662zM377 932l-107 108v-770h107v662z M139 -106l-108 108h-17q8 -10 26.5 -27.5t36 -35l31.5 -31.5l13 -14h18zM145 -84l-86 86v2h-2v2v27l-20 20v-45l108 -108v16zM180 -106h86q86 0 216 -1.5t284 -2.5t291 -2t237.5 -1h122.5q-8 8 -24.5 26.5t-34 37t-31.5 33t-18 18.5h-1237z" />
<glyph unicode="x" d="M907 494l-84 -84l84 -84v-2v-58v-2v-2h-2h-2h-18l22 -22v-4v-349v-2h-2v-2h-2h-260q-2 0 -4 2l-115 117h-2v2v287h-82l-55 -55v-349v-2h-2v-2h-2h-260q-2 0 -4 2l-115 117h-2v2v348q0 4 4 4h19l-21 23h-2v2v59l2 2l84 84l-84 84q-2 2 -2 4v435q0 4 4 4h262h2l117 -117v-4 v-256h82l55 55v318q0 4 4 4h262h3l116 -117v-4v-434v-2v-2zM899 932l-106 106v-424l106 -106v424zM377 -102v338l-107 106v-336zM57 334v18q0 4 4 4h29h2h2v-2l23 -20v16l-27 27h-76l23 -23zM94 342v-305h45l-22 22v2v261zM733 647h21v139l-21 21v-160zM754 797v18l-27 27 h-45l20 -21h27h2v-2h2zM618 401v-307h21v285zM270 444h15l-15 15v-15zM297 444h219l-20 21h-222zM522 449v18l-20 20v-16zM522 498q0 4 4 4h49l-22 20h-23h-6h2h-221l21 -20h172h2v-2l22 -21v19zM305 580l21 -21h196v21h-217zM559 528l21 -20v309q0 4 4 4h20l-22 23 q-2 0 -2 2v143l-21 21v-482zM639 797v45h-45zM733 981v-18l21 -21v19zM754 913v19l-27 26h-104l22 -22h84h2h2zM696 879v20h-43l21 -20h22zM618 879h44l-23 22v2v29l-21 20v-73zM733 848l21 -21v74l-21 23v-76zM754 1016h-189l21 -21h143h2q0 -2 2 -2l21 -22v45zM618 440 l21 -20v366l-21 21v-367zM676 588h20v227l-20 21v-248zM522 639h-248l23 -21h225v21zM270 633v-43q0 -6 -2 -6h2v-56l27 -26h16l-22 22v2v29q0 4 4 4h18l-22 23v2v28zM285 502l-21 20h-18l20 -20h19zM37 647h20v170q0 4 4 4h21l-23 23h-2v2v86q0 4 4 4h21l-23 22v3h-2v2v26 l-20 21v-363zM231 797v18l-26 27h-45l20 -21h27h2v-2h2zM117 797v45h-45zM211 981v-133l20 -21v134zM154 924v-19l20 -20v16zM94 879h17l-17 14v-14zM121 879h47l-21 20h-47zM72 958l20 -22h58h2l22 -23v45h-102zM197 414l-21 22h-2v2v2v375l-20 21v-742h20v316q0 4 4 4h19z M231 1016h-188l20 -21h144h2q0 -2 2 -2l20 -22v45zM94 588h23v198l-23 21v-219zM231 391v45h-43zM211 502h45l-23 22h-2v2v260l-20 21v-305zM211 401v-338l20 -20v336zM565 436l21 -22h28h2l23 -23v19l-27 26h-47zM100 436l17 -16v16h-17zM129 57l23 -20h75l-22 20h-76z M604 37l-22 22v2h-2v349l-21 20v-393h45zM94 383l23 -21v48l-23 20v-47zM690 37l-20 20h-76l20 -20h76zM682 436l14 -16v16h-14zM37 342v-305h20v285zM434 295l-110 111q-6 -8 -27 -28t-27 -26l111 -110zM754 322l-21 20v-305h21v285zM719 356l-21 23h-2v2v29l-20 20v-367 l20 -20v309q0 4 4 4h19zM377 932l-107 106v-307l56 -55h51v256zM14 0q8 -10 26.5 -27.5t36 -35l31.5 -31.5l13 -15h250l-107 109h-250zM522 299v51l-55 56h-133l106 -107h82zM645 -109h248l-107 109h-249zM899 236l-13 13q-14 13 -31 30.5t-35.5 35t-26.5 27.5v-336 l106 -108v338zM877 270h16l-107 107h-75l43 -43v18q0 4 4 4h30h3v-2zM899 322q0 2 -29.5 31.5t-56.5 54.5q-6 6 -11 12t-9 10v-47l106 -109v48zM817 416l80 82l-109 110l-81 -82l84 -84z" />
<glyph unicode="y" d="M907 932v-434v-2l-2 -2h-2h-18l22 -23v-2v-582v-2h-2v-2h-2h-725q-2 0 -2 2l-22 23v-21v-2h-2q0 -2 -2 -2h-29q-2 0 -4 2l-115 117h-2v2v262q0 4 4 4h518v49h-401h-4l-115 117h-2v2v2v25v6v-2v580q0 4 4 4h262h2l117 -117v-4v-227h137v344q0 4 4 4h262h3l116 -117v-4z M899 932l-106 106v-424l106 -106v424zM231 438v2v-2v0zM754 971v45h-72l20 -21h27h2l2 -2zM559 197v-76l21 -21v76zM559 588l21 -23v45h-246l20 -22h201h2h2zM733 111v-74h21v53zM754 551h-15l15 -14v14zM733 152l21 -23v395l-21 21v-393zM711 145l22 -22l21 -23v19l-27 26 h-16zM674 145h-2h2zM696 670l-20 20v-43h20v23zM633 37l-21 20h-307l21 -20h307zM231 117h-20v-54l20 -20v74zM227 37l-22 20h-17l21 -20h18zM154 37h43l-21 22h-2v2v58l-20 20v-102zM174 150q0 4 4 4h320h2v-2l22 -23v45h-422l21 -20h29h2v-2l22 -23v21zM94 37h23v110 l-23 21v-131zM274 117l23 -23h219l-20 23h-222zM516 473l-20 21h-191l21 -21h190zM559 674l21 -21v336l-21 21v-336zM639 1016h-74l21 -21h28h2v-2l23 -22v45zM522 479v17l-20 20v-16zM524 530h2h-2zM362 551l21 -21h115h2v-2l22 -20v14v6v-2v25h-160zM270 37h43l-22 22v2 v29l-21 21v-74zM641 182h2h-2zM639 700q0 4 4 5h19l-23 22v2v232l-21 20v-918l21 -20v18v113v6v-2v522zM274 668l23 -21h278l-22 21h-279zM270 662v-162l27 -27h16l-22 21v2v2v143zM285 473l-21 21h-192l20 -21h193zM37 473h45l-23 21v2h-2v2v376q0 4 4 5h21l-23 22l-2 2v86 l-20 21v-537zM231 1016h-14l14 -15v15zM211 1010v-105l20 -20v104zM188 899l23 -20l20 -23v16l-26 27h-17zM168 530l-21 21h-18l23 -21h16zM154 750v-76l20 -21v74zM174 610h-14l14 -16v16zM100 668l21 -21h47l-21 21h-47zM139 762l-22 22v2v2v27l-23 21v-131h23v53q0 4 4 4 h18zM117 842h-17l17 -15v15zM94 530h45l-22 23v2v86l-23 21v-132zM174 537v47l-20 20v-47zM174 739v19l-27 26h-18l23 -22zM160 842l14 -15v15h-14zM231 727l-20 23v-220h20v197zM197 762l-21 22q-2 0 -2 2v2v27l-20 21v-48l26 -26h17zM174 1016h-14l14 -15v15zM154 1010 v-105l26 -26h17l-21 22q-2 0 -2 2v86zM129 899l23 -20h16l-21 20h-18zM117 1016h-17l17 -15v15zM94 1010v-105l27 -26h18l-22 22v2v86zM72 899l20 -20h19l-21 20h-18zM57 1016h-14l14 -15v15zM231 739v19l-26 26h-17zM231 768v76q-4 8 -20 20v-76zM348 584l-20 20v-74h43 l-21 23h-2v2v29zM545 94l-43 45v-18l26 -27h17zM670 725h-17l21 -20l22 -23v16zM575 94l-22 23h-16l20 -23h18zM696 584l-20 20v-450v-7v3v-113h20v84q0 4 4 4h19l-21 20l-2 2v3v434zM696 989l-20 21v-19v-260l20 -20v278zM559 238l21 -21v336l-21 22v-337zM750 588l-23 22 h-45l20 -22h48zM43 231l20 -20h492h2h2l21 -23v17l-27 26h-510zM778 588l-22 22v2h-2v2v25q0 4 2 6q0 -2 -2 -2v318l-21 20v-367l27 -26h18zM377 932l-107 106v-333h107v227zM4 473h-2h2zM522 328v108h-282h-7h3h-173h-4h2h-43h-4q8 -10 26.5 -27.5t36 -35l31.5 -31.5 l13 -14h401zM139 -109l-108 109h-17q8 -10 26.5 -27.5t36 -35l31.5 -31.5l13 -15h18zM145 -84l-86 86h-2v2v201l-20 22v-221l108 -108v18zM180 -109h713l-107 109h-714l80 -80zM899 467l-9 9l-18 18q-16 18 -38.5 40.5l-40.5 40.5v-569l106 -108v569zM877 502h16l-107 108 h-18z" />
<glyph unicode="z" d="M907 932v-608v-2l-2 -3h-2h-518v-49h403v-2h3l116 -116v-2v-263v-2h-2v-2h-2h-29l-2 2l-22 23v-21v-2h-2v-2h-2h-725q-2 0 -4 2l-115 117h-2v2v258v4v434q0 4 4 5h78l-80 79q-2 0 -2 2v2v203q0 4 4 4h19l-21 23h-2v2v29q0 4 4 4h784h3l116 -117v-4zM899 932l-106 106 v-598l106 -106v598zM893 328l-107 108h-512l109 -108h510zM754 188v48h-74l22 -25h27h2h2zM270 981v-76l27 -26h16l-22 22v2v58zM328 864v-16l26 -27h17l-21 23zM575 94l-22 23h-510l20 -23h512zM37 154h45l-23 22h-2v2v29q0 4 4 4h21l-23 22l-2 3v405l-20 21v-508zM94 270 h45l-22 21v2v2v346l-23 21v-392zM37 901v2v-24h45l-23 22l-2 2v29l-20 20v-45v-6zM231 958h-14l14 -16v16zM342 821l-20 21h-279l20 -21h279zM37 821h14l-14 15v-15zM174 958h-14l14 -16v16zM154 952v-47l26 -26h17l-21 22q-2 0 -2 2v29zM129 899l23 -20h16l-21 20h-18z M117 958h-17l17 -16v16zM94 952v-47l27 -26h18l-22 22v2v29zM72 899l20 -20h19l-21 20h-18zM227 879l-22 20h-17l21 -20h18zM57 958h-14l14 -16v16zM754 473v21h-160l20 -21h140zM487 473l-43 43v-16l27 -27h16zM459 473l-21 21h-164l23 -21h162zM580 174h-508l20 -20h463h2 v-2h2l21 -23v45zM559 121l21 -21v19l-21 20v-18zM256 211l-23 22l-2 3v258h-77v-197l20 -23v195q0 4 4 4h29q4 0 4 -4v-231l27 -27h18zM168 270l-21 21h-18l23 -21h16zM154 633v-103h43l-21 23h-2v2v57zM211 662v-105l20 -20v104zM188 551l21 -21h18l-22 21h-17zM440 647 l2 -2l23 -22v45h-139h-4h2h-107l21 -21h202zM465 551h-160l21 -21h114h2v-2l23 -20v43zM270 530h43l-22 23v2v29l-21 20v-74zM444 614l21 -20v18l-21 21v-19zM274 610l23 -22h141h4h-2h19l-21 22h-164zM270 473h15l-15 14v-14zM516 473l-20 21h-17l21 -21h16zM545 473 l-21 21q0 2 -2 2v2v143l-20 21v-162l26 -27h17zM516 821l-20 21h-17l21 -21h16zM487 821l-22 23v2v143l-21 21v-162l27 -27h16zM459 821l-21 21h-18l20 -21h19zM430 821l-22 23h-2v2v86l-21 20v-104l27 -27h18zM406 958h-15l15 -16v16zM465 1016h-16l16 -15v15zM522 827v162 l-20 21v-162zM754 1016h-15l15 -15v15zM733 1010v-453l21 -20v452zM559 981v-102h21v82zM618 981v-424l27 -27h17l-23 23v2v406zM594 551l20 -21h19l-21 21h-18zM711 551l20 -21h19l-23 21h-16zM696 1016h-14l14 -15v15zM676 1010v-453l26 -27h17l-21 23h-2v2v434zM653 551 l21 -21h16l-20 21h-17zM639 1016h-131l20 -21h27h2q0 -2 2 -2l21 -22v20q0 4 4 4h30h2v-2l23 -22v45zM522 668h-14l14 -15v15zM575 473l-22 21h-16l20 -21h18zM604 473l-22 21v2q-2 0 -2 2v28q0 4 4 4h20l-22 23v2h-2v287h-21v-342l27 -27h18zM362 842l21 -21h18l-22 21h-17 zM174 668h-74l21 -21h29h2v-2l22 -22v45zM72 231l20 -20h135l-22 20h-133zM57 668h-14l14 -15v15zM618 197v-103h21v82zM639 231h-393l20 -20h348h2l23 -23v43zM328 905l20 -20v73h-20v-53zM256 879l-23 22l-2 2v29l-20 20v-47l27 -26h18zM82 37l-23 22l-2 2v29l-20 21v-74 h45zM305 899l21 -20l22 -23v16l-26 27h-17zM285 879l-21 20h-18l20 -20h19zM696 205l-20 24v-168q0 -4 -4 -4h-600l20 -20h604v168zM14 784l78 -79h430v79h-508zM2 268q2 0 2 2zM35 995h231h2v-2l23 -22v20q0 4 4 4h111v21h-392zM2 268q-2 0 -2 -2q0 2 2 2zM14 0 q8 -10 26.5 -27.5t36 -35l31.5 -31.5l13 -15h715l-109 109h-713zM842 -84l-86 86l-2 2v172l-21 21v-191l109 -108v18zM877 -109h16l-107 109h-18zM899 147l-106 109v-250l106 -108v249zM377 270v52l-107 108v-160h107z" />
<glyph unicode="&#x2000;" horiz-adv-x="682" />
<glyph unicode="&#x2001;" horiz-adv-x="1365" />
<glyph unicode="&#x2002;" horiz-adv-x="682" />
<glyph unicode="&#x2003;" horiz-adv-x="1365" />
<glyph unicode="&#x2004;" horiz-adv-x="455" />
<glyph unicode="&#x2005;" horiz-adv-x="341" />
<glyph unicode="&#x2006;" horiz-adv-x="227" />
<glyph unicode="&#x2007;" horiz-adv-x="227" />
<glyph unicode="&#x2008;" horiz-adv-x="170" />
<glyph unicode="&#x2009;" horiz-adv-x="273" />
<glyph unicode="&#x200a;" horiz-adv-x="75" />
<glyph unicode="&#x202f;" horiz-adv-x="273" />
<glyph unicode="&#x205f;" horiz-adv-x="341" />
<glyph unicode="&#x25fc;" horiz-adv-x="1054" d="M0 1055h1055v-1055h-1055v1055z" />
</font>
</defs>
</svg>
